<svg width="379" height="258" viewBox="0 0 379 258" fill="none" xmlns="http://www.w3.org/2000/svg">
<path d="M54.0933 79.0016H379" stroke="#DBDADE" stroke-width="0.925904" stroke-dasharray="2.78 5.56"/>
<path d="M24.2294 47.8249H24.9412V51.2853H25.8498V51.9024H24.9412V53.2994H24.2559V51.9024H21.6777V51.2626L24.2294 47.8249ZM22.3478 51.2853H24.2408V48.7449L22.3478 51.2853ZM30.1046 53.2994H29.3625L28.1358 51.3345L27.3635 52.1333V53.2994H26.6669V47.6735H27.3635V51.3421L29.2035 49.3847H30.0061L28.594 50.8764L30.1046 53.2994Z" fill="#979797"/>
<path d="M21.7536 91.9736C21.7536 91.6203 21.8394 91.3199 22.011 91.0726C22.1827 90.8227 22.4111 90.6321 22.6963 90.5009C22.984 90.3696 23.3008 90.304 23.6466 90.304C24.0252 90.304 24.3596 90.3596 24.6499 90.4706C24.9401 90.5791 25.1673 90.7381 25.3313 90.9476C25.4954 91.1571 25.5774 91.4133 25.5774 91.7162C25.5774 91.9863 25.4916 92.2311 25.32 92.4507C25.1483 92.6677 24.8859 92.8381 24.5325 92.9618C24.7723 93.0274 24.9818 93.1233 25.161 93.2495C25.3402 93.3757 25.479 93.5309 25.5774 93.7152C25.6759 93.8969 25.7251 94.1064 25.7251 94.3436C25.7251 94.5935 25.6721 94.8182 25.5661 95.0175C25.4626 95.2144 25.3162 95.3823 25.1269 95.5211C24.9376 95.6574 24.7142 95.7621 24.4568 95.8353C24.1993 95.906 23.9192 95.9401 23.6163 95.9375C23.2402 95.935 22.9083 95.8656 22.6206 95.7293C22.3354 95.593 22.1107 95.4025 21.9467 95.1576C21.7826 94.9103 21.6943 94.6175 21.6817 94.2793H22.3821C22.4351 94.62 22.5739 94.8813 22.7985 95.063C23.0232 95.2447 23.3046 95.3356 23.6428 95.3356C23.9103 95.3356 24.1438 95.2939 24.3432 95.2106C24.5426 95.1248 24.6966 95.0075 24.8051 94.8585C24.9136 94.7096 24.9679 94.5355 24.9679 94.3361C24.9679 94.1165 24.9073 93.931 24.7862 93.7795C24.665 93.6281 24.4997 93.5133 24.2902 93.435C24.0807 93.3542 23.8472 93.3126 23.5898 93.3101L23.0976 93.2987V92.7043L23.5671 92.693C23.8069 92.6879 24.0214 92.6425 24.2107 92.5567C24.4 92.4683 24.5489 92.3535 24.6574 92.2121C24.7685 92.0683 24.824 91.9105 24.824 91.7389C24.824 91.5875 24.7773 91.4474 24.6839 91.3187C24.5906 91.1874 24.4555 91.0827 24.2788 91.0044C24.1047 90.9262 23.8927 90.8871 23.6428 90.8871C23.4459 90.8871 23.2579 90.9262 23.0787 91.0044C22.8995 91.0801 22.7518 91.1975 22.6357 91.3565C22.5196 91.5155 22.4578 91.7212 22.4502 91.9736H21.7536ZM30.1046 95.8542H29.3625L28.1358 93.8893L27.3635 94.6882V95.8542H26.6669V90.2283H27.3635V93.8969L29.2035 91.9396H30.0061L28.594 93.4312L30.1046 95.8542Z" fill="#979797"/>
<path d="M22.0465 138.409V137.981V137.758C22.0465 137.478 22.0982 137.235 22.2017 137.031C22.3077 136.827 22.4465 136.649 22.6182 136.497C22.7923 136.343 22.9816 136.206 23.1861 136.085C23.393 135.963 23.5987 135.847 23.8032 135.736C24.0101 135.623 24.1994 135.505 24.3711 135.384C24.5427 135.26 24.6803 135.122 24.7837 134.968C24.8897 134.811 24.9427 134.627 24.9427 134.415C24.9427 134.137 24.8443 133.911 24.6474 133.737C24.4531 133.563 24.1893 133.476 23.8562 133.476C23.4978 133.476 23.21 133.577 22.993 133.779C22.7759 133.981 22.6535 134.25 22.6257 134.585H21.9291C21.9367 134.27 22.0149 133.982 22.1638 133.722C22.3128 133.46 22.5311 133.25 22.8188 133.094C23.1066 132.937 23.4612 132.859 23.8827 132.859C24.2487 132.859 24.5667 132.924 24.8367 133.056C25.1068 133.184 25.315 133.366 25.4614 133.601C25.6103 133.833 25.6848 134.104 25.6848 134.415C25.6848 134.698 25.6331 134.94 25.5296 135.142C25.4261 135.344 25.2885 135.519 25.1169 135.668C24.9478 135.814 24.7623 135.946 24.5604 136.062C24.3584 136.178 24.1553 136.29 23.9508 136.399C23.7464 136.505 23.5596 136.617 23.3905 136.736C23.2214 136.852 23.0851 136.986 22.9816 137.137C22.8781 137.288 22.8264 137.469 22.8264 137.678V137.788H25.7151V138.409H22.0465ZM30.1046 138.409H29.3625L28.1359 136.444L27.3635 137.243V138.409H26.6669V132.783H27.3635V136.452L29.2035 134.494H30.0061L28.594 135.986L30.1046 138.409Z" fill="#979797"/>
<path d="M24.4125 180.964V176.606H23.3563V176.148C23.6844 176.148 23.9393 176.124 24.121 176.076C24.3027 176.028 24.4315 175.955 24.5072 175.857C24.5854 175.758 24.6283 175.636 24.6359 175.489H25.1357V180.964H24.4125ZM30.1046 180.964H29.3625L28.1359 178.999L27.3635 179.798V180.964H26.6669V175.338H27.3635V179.007L29.2035 177.049H30.0061L28.594 178.541L30.1046 180.964Z" fill="#979797"/>
<path d="M28.0461 217.969C28.6393 217.969 29.1112 218.207 29.4621 218.684C29.8154 219.159 29.9921 219.862 29.9921 220.793C29.9921 221.719 29.8167 222.42 29.4659 222.894C29.115 223.366 28.6393 223.602 28.0385 223.602C27.4404 223.602 26.9659 223.367 26.615 222.898C26.2642 222.426 26.0888 221.728 26.0888 220.804C26.0888 220.181 26.1695 219.658 26.3311 219.237C26.4926 218.815 26.7198 218.499 27.0126 218.287C27.3053 218.075 27.6499 217.969 28.0461 217.969ZM28.0461 222.996C28.4373 222.996 28.7326 222.825 28.932 222.481C29.134 222.136 29.2349 221.574 29.2349 220.797C29.2349 220.004 29.1327 219.434 28.9282 219.085C28.7263 218.735 28.431 218.559 28.0423 218.559C27.6562 218.559 27.3583 218.736 27.1488 219.089C26.9419 219.44 26.8384 220.009 26.8384 220.797C26.8384 221.572 26.9419 222.132 27.1488 222.478C27.3558 222.823 27.6549 222.996 28.0461 222.996Z" fill="#979797"/>
<path d="M49.2896 139.041H369.684" stroke="#DBDADE" stroke-width="0.925904" stroke-dasharray="2.78 5.56"/>
<path d="M49.2896 104.396H369.684" stroke="#DBDADE" stroke-width="0.925904" stroke-dasharray="2.78 5.56"/>
<path d="M49.2896 173.686H369.684" stroke="#DBDADE" stroke-width="0.925904" stroke-dasharray="2.78 5.56"/>
<path d="M43.1282 209.197L369.684 208.309" stroke="#DBDADE" stroke-width="0.925904"/>
<path d="M43.1282 209.197L43.1282 48.5309" stroke="#DBDADE" stroke-width="0.925904"/>
<path opacity="0.5" d="M65.7853 222.04C65.7853 221.123 65.9346 220.408 66.2333 219.896C66.532 219.379 67.0546 219.12 67.8013 219.12C68.5426 219.12 69.0626 219.379 69.3613 219.896C69.66 220.408 69.8093 221.123 69.8093 222.04C69.8093 222.973 69.66 223.699 69.3613 224.216C69.0626 224.733 68.5426 224.992 67.8013 224.992C67.0546 224.992 66.532 224.733 66.2333 224.216C65.9346 223.699 65.7853 222.973 65.7853 222.04ZM69.0893 222.04C69.0893 221.576 69.0573 221.184 68.9933 220.864C68.9346 220.539 68.8093 220.277 68.6173 220.08C68.4306 219.883 68.1586 219.784 67.8013 219.784C67.4386 219.784 67.1613 219.883 66.9693 220.08C66.7826 220.277 66.6573 220.539 66.5933 220.864C66.5346 221.184 66.5053 221.576 66.5053 222.04C66.5053 222.52 66.5346 222.923 66.5933 223.248C66.6573 223.573 66.7826 223.835 66.9693 224.032C67.1613 224.229 67.4386 224.328 67.8013 224.328C68.1586 224.328 68.4306 224.229 68.6173 224.032C68.8093 223.835 68.9346 223.573 68.9933 223.248C69.0573 222.923 69.0893 222.52 69.0893 222.04ZM71.0797 219.872V219.208H72.5837V224.992H71.8477V219.872H71.0797Z" fill="#6F6B7D"/>
<path opacity="0.5" d="M120.733 222.04C120.733 221.123 120.882 220.408 121.181 219.896C121.479 219.379 122.002 219.12 122.749 219.12C123.49 219.12 124.01 219.379 124.309 219.896C124.607 220.408 124.757 221.123 124.757 222.04C124.757 222.973 124.607 223.699 124.309 224.216C124.01 224.733 123.49 224.992 122.749 224.992C122.002 224.992 121.479 224.733 121.181 224.216C120.882 223.699 120.733 222.973 120.733 222.04ZM124.037 222.04C124.037 221.576 124.005 221.184 123.941 220.864C123.882 220.539 123.757 220.277 123.565 220.08C123.378 219.883 123.106 219.784 122.749 219.784C122.386 219.784 122.109 219.883 121.917 220.08C121.73 220.277 121.605 220.539 121.541 220.864C121.482 221.184 121.453 221.576 121.453 222.04C121.453 222.52 121.482 222.923 121.541 223.248C121.605 223.573 121.73 223.835 121.917 224.032C122.109 224.229 122.386 224.328 122.749 224.328C123.106 224.328 123.378 224.229 123.565 224.032C123.757 223.835 123.882 223.573 123.941 223.248C124.005 222.923 124.037 222.52 124.037 222.04ZM126.131 224.408C126.808 223.864 127.339 223.419 127.723 223.072C128.107 222.72 128.43 222.355 128.691 221.976C128.958 221.592 129.091 221.216 129.091 220.848C129.091 220.501 129.006 220.229 128.835 220.032C128.67 219.829 128.4 219.728 128.027 219.728C127.664 219.728 127.382 219.843 127.179 220.072C126.982 220.296 126.875 220.597 126.859 220.976H126.155C126.176 220.379 126.358 219.917 126.699 219.592C127.04 219.267 127.48 219.104 128.019 219.104C128.568 219.104 129.003 219.256 129.323 219.56C129.648 219.864 129.811 220.283 129.811 220.816C129.811 221.259 129.678 221.691 129.411 222.112C129.15 222.528 128.851 222.896 128.515 223.216C128.179 223.531 127.75 223.899 127.227 224.32H129.979V224.928H126.131V224.408Z" fill="#6F6B7D"/>
<path opacity="0.5" d="M177.158 222.04C177.158 221.123 177.307 220.408 177.606 219.896C177.905 219.379 178.427 219.12 179.174 219.12C179.915 219.12 180.435 219.379 180.734 219.896C181.033 220.408 181.182 221.123 181.182 222.04C181.182 222.973 181.033 223.699 180.734 224.216C180.435 224.733 179.915 224.992 179.174 224.992C178.427 224.992 177.905 224.733 177.606 224.216C177.307 223.699 177.158 222.973 177.158 222.04ZM180.462 222.04C180.462 221.576 180.43 221.184 180.366 220.864C180.307 220.539 180.182 220.277 179.99 220.08C179.803 219.883 179.531 219.784 179.174 219.784C178.811 219.784 178.534 219.883 178.342 220.08C178.155 220.277 178.03 220.539 177.966 220.864C177.907 221.184 177.878 221.576 177.878 222.04C177.878 222.52 177.907 222.923 177.966 223.248C178.03 223.573 178.155 223.835 178.342 224.032C178.534 224.229 178.811 224.328 179.174 224.328C179.531 224.328 179.803 224.229 179.99 224.032C180.182 223.835 180.307 223.573 180.366 223.248C180.43 222.923 180.462 222.52 180.462 222.04ZM182.628 220.664C182.666 220.173 182.855 219.789 183.196 219.512C183.538 219.235 183.98 219.096 184.524 219.096C184.887 219.096 185.199 219.163 185.46 219.296C185.727 219.424 185.927 219.6 186.06 219.824C186.199 220.048 186.268 220.301 186.268 220.584C186.268 220.915 186.172 221.2 185.98 221.44C185.794 221.68 185.548 221.835 185.244 221.904V221.944C185.591 222.029 185.866 222.197 186.068 222.448C186.271 222.699 186.372 223.027 186.372 223.432C186.372 223.736 186.303 224.011 186.164 224.256C186.026 224.496 185.818 224.685 185.54 224.824C185.263 224.963 184.93 225.032 184.54 225.032C183.975 225.032 183.511 224.885 183.148 224.592C182.786 224.293 182.583 223.872 182.54 223.328H183.244C183.282 223.648 183.412 223.909 183.636 224.112C183.86 224.315 184.159 224.416 184.532 224.416C184.906 224.416 185.188 224.32 185.38 224.128C185.578 223.931 185.676 223.677 185.676 223.368C185.676 222.968 185.543 222.68 185.276 222.504C185.01 222.328 184.607 222.24 184.068 222.24H183.884V221.632H184.076C184.567 221.627 184.938 221.547 185.188 221.392C185.439 221.232 185.564 220.987 185.564 220.656C185.564 220.373 185.471 220.147 185.284 219.976C185.103 219.805 184.842 219.72 184.5 219.72C184.17 219.72 183.903 219.805 183.7 219.976C183.498 220.147 183.378 220.376 183.34 220.664H182.628Z" fill="#6F6B7D"/>
<path opacity="0.5" d="M233.991 222.04C233.991 221.123 234.141 220.408 234.439 219.896C234.738 219.379 235.261 219.12 236.007 219.12C236.749 219.12 237.269 219.379 237.567 219.896C237.866 220.408 238.015 221.123 238.015 222.04C238.015 222.973 237.866 223.699 237.567 224.216C237.269 224.733 236.749 224.992 236.007 224.992C235.261 224.992 234.738 224.733 234.439 224.216C234.141 223.699 233.991 222.973 233.991 222.04ZM237.295 222.04C237.295 221.576 237.263 221.184 237.199 220.864C237.141 220.539 237.015 220.277 236.823 220.08C236.637 219.883 236.365 219.784 236.007 219.784C235.645 219.784 235.367 219.883 235.175 220.08C234.989 220.277 234.863 220.539 234.799 220.864C234.741 221.184 234.711 221.576 234.711 222.04C234.711 222.52 234.741 222.923 234.799 223.248C234.863 223.573 234.989 223.835 235.175 224.032C235.367 224.229 235.645 224.328 236.007 224.328C236.365 224.328 236.637 224.229 236.823 224.032C237.015 223.835 237.141 223.573 237.199 223.248C237.263 222.923 237.295 222.52 237.295 222.04ZM239.302 223.704V223.152L242.11 219.264H242.982V223.072H243.782V223.704H242.982V224.992H242.262V223.704H239.302ZM242.294 220.024L240.142 223.072H242.294V220.024Z" fill="#6F6B7D"/>
<path opacity="0.5" d="M290.474 222.04C290.474 221.123 290.623 220.408 290.922 219.896C291.221 219.379 291.743 219.12 292.49 219.12C293.231 219.12 293.751 219.379 294.05 219.896C294.349 220.408 294.498 221.123 294.498 222.04C294.498 222.973 294.349 223.699 294.05 224.216C293.751 224.733 293.231 224.992 292.49 224.992C291.743 224.992 291.221 224.733 290.922 224.216C290.623 223.699 290.474 222.973 290.474 222.04ZM293.778 222.04C293.778 221.576 293.746 221.184 293.682 220.864C293.623 220.539 293.498 220.277 293.306 220.08C293.119 219.883 292.847 219.784 292.49 219.784C292.127 219.784 291.85 219.883 291.658 220.08C291.471 220.277 291.346 220.539 291.282 220.864C291.223 221.184 291.194 221.576 291.194 222.04C291.194 222.52 291.223 222.923 291.282 223.248C291.346 223.573 291.471 223.835 291.658 224.032C291.85 224.229 292.127 224.328 292.49 224.328C292.847 224.328 293.119 224.229 293.306 224.032C293.498 223.835 293.623 223.573 293.682 223.248C293.746 222.923 293.778 222.52 293.778 222.04ZM299.649 219.84H296.841V221.664C296.963 221.493 297.145 221.355 297.385 221.248C297.625 221.136 297.883 221.08 298.161 221.08C298.603 221.08 298.963 221.173 299.241 221.36C299.518 221.541 299.715 221.779 299.833 222.072C299.955 222.36 300.017 222.667 300.017 222.992C300.017 223.376 299.945 223.72 299.801 224.024C299.657 224.328 299.435 224.568 299.137 224.744C298.843 224.92 298.478 225.008 298.041 225.008C297.481 225.008 297.027 224.864 296.681 224.576C296.334 224.288 296.123 223.904 296.049 223.424H296.761C296.83 223.728 296.977 223.965 297.201 224.136C297.425 224.307 297.707 224.392 298.049 224.392C298.47 224.392 298.787 224.267 299.001 224.016C299.214 223.76 299.321 223.424 299.321 223.008C299.321 222.592 299.214 222.272 299.001 222.048C298.787 221.819 298.473 221.704 298.057 221.704C297.774 221.704 297.526 221.773 297.313 221.912C297.105 222.045 296.953 222.229 296.857 222.464H296.169V219.2H299.649V219.84Z" fill="#6F6B7D"/>
<path opacity="0.5" d="M346.927 222.04C346.927 221.123 347.076 220.408 347.375 219.896C347.674 219.379 348.196 219.12 348.943 219.12C349.684 219.12 350.204 219.379 350.503 219.896C350.802 220.408 350.951 221.123 350.951 222.04C350.951 222.973 350.802 223.699 350.503 224.216C350.204 224.733 349.684 224.992 348.943 224.992C348.196 224.992 347.674 224.733 347.375 224.216C347.076 223.699 346.927 222.973 346.927 222.04ZM350.231 222.04C350.231 221.576 350.199 221.184 350.135 220.864C350.076 220.539 349.951 220.277 349.759 220.08C349.572 219.883 349.3 219.784 348.943 219.784C348.58 219.784 348.303 219.883 348.111 220.08C347.924 220.277 347.799 220.539 347.735 220.864C347.676 221.184 347.647 221.576 347.647 222.04C347.647 222.52 347.676 222.923 347.735 223.248C347.799 223.573 347.924 223.835 348.111 224.032C348.303 224.229 348.58 224.328 348.943 224.328C349.3 224.328 349.572 224.229 349.759 224.032C349.951 223.835 350.076 223.573 350.135 223.248C350.199 222.923 350.231 222.52 350.231 222.04ZM355.637 220.584C355.52 219.992 355.155 219.696 354.541 219.696C354.067 219.696 353.712 219.88 353.477 220.248C353.243 220.611 353.128 221.211 353.133 222.048C353.256 221.771 353.459 221.555 353.741 221.4C354.029 221.24 354.349 221.16 354.701 221.16C355.251 221.16 355.688 221.331 356.013 221.672C356.344 222.013 356.509 222.485 356.509 223.088C356.509 223.451 356.437 223.776 356.293 224.064C356.155 224.352 355.941 224.581 355.653 224.752C355.371 224.923 355.027 225.008 354.621 225.008C354.072 225.008 353.643 224.885 353.333 224.64C353.024 224.395 352.808 224.056 352.685 223.624C352.563 223.192 352.501 222.659 352.501 222.024C352.501 220.067 353.184 219.088 354.549 219.088C355.072 219.088 355.483 219.229 355.781 219.512C356.08 219.795 356.256 220.152 356.309 220.584H355.637ZM354.549 221.776C354.32 221.776 354.104 221.824 353.901 221.92C353.699 222.011 353.533 222.152 353.405 222.344C353.283 222.531 353.221 222.76 353.221 223.032C353.221 223.437 353.339 223.768 353.573 224.024C353.808 224.275 354.144 224.4 354.581 224.4C354.955 224.4 355.251 224.285 355.469 224.056C355.693 223.821 355.805 223.507 355.805 223.112C355.805 222.696 355.699 222.371 355.485 222.136C355.272 221.896 354.96 221.776 354.549 221.776Z" fill="#6F6B7D"/>
<ellipse cx="54.0143" cy="252.938" rx="4.72455" ry="3.89756" fill="#7367F0"/>
<path opacity="0.7" d="M70.9749 248.408V256.308H69.9441V248.408H70.9749ZM73.5139 248.408V249.266H67.4105V248.408H73.5139ZM76.0005 247.974V256.308H74.9968V247.974H76.0005ZM75.7618 253.15L75.344 253.134C75.3476 252.732 75.4073 252.362 75.5231 252.022C75.6388 251.678 75.8016 251.38 76.0113 251.127C76.2211 250.873 76.4707 250.678 76.76 250.541C77.053 250.4 77.3767 250.329 77.7311 250.329C78.0205 250.329 78.2809 250.369 78.5124 250.448C78.7438 250.524 78.9409 250.647 79.1037 250.817C79.2701 250.987 79.3967 251.208 79.4835 251.479C79.5703 251.747 79.6137 252.074 79.6137 252.461V256.308H78.6046V252.45C78.6046 252.143 78.5594 251.897 78.469 251.712C78.3785 251.524 78.2465 251.389 78.0729 251.306C77.8993 251.219 77.6859 251.175 77.4327 251.175C77.1832 251.175 76.9553 251.228 76.7492 251.333C76.5466 251.438 76.3712 251.582 76.2229 251.767C76.0782 251.951 75.9643 252.163 75.8811 252.401C75.8016 252.637 75.7618 252.886 75.7618 253.15ZM82.6699 250.438V256.308H81.6608V250.438H82.6699ZM81.5848 248.88C81.5848 248.718 81.6337 248.58 81.7313 248.468C81.8326 248.356 81.9809 248.3 82.1762 248.3C82.3679 248.3 82.5144 248.356 82.6156 248.468C82.7205 248.58 82.773 248.718 82.773 248.88C82.773 249.036 82.7205 249.17 82.6156 249.282C82.5144 249.39 82.3679 249.445 82.1762 249.445C81.9809 249.445 81.8326 249.39 81.7313 249.282C81.6337 249.17 81.5848 249.036 81.5848 248.88ZM88.162 254.751C88.162 254.606 88.1295 254.472 88.0644 254.349C88.0029 254.223 87.8745 254.109 87.6792 254.007C87.4875 253.902 87.1981 253.812 86.8111 253.736C86.4856 253.667 86.1908 253.586 85.9268 253.492C85.6664 253.398 85.444 253.284 85.2595 253.15C85.0787 253.016 84.9394 252.859 84.8418 252.678C84.7441 252.497 84.6953 252.286 84.6953 252.043C84.6953 251.812 84.7459 251.593 84.8472 251.387C84.9521 251.181 85.0986 250.998 85.2866 250.839C85.4783 250.68 85.708 250.555 85.9756 250.465C86.2433 250.374 86.5417 250.329 86.8708 250.329C87.341 250.329 87.7425 250.412 88.0752 250.579C88.408 250.745 88.6629 250.967 88.8402 251.246C89.0174 251.521 89.106 251.826 89.106 252.163H88.1023C88.1023 252 88.0535 251.843 87.9559 251.691C87.8618 251.535 87.7226 251.407 87.5381 251.306C87.3573 251.204 87.1348 251.154 86.8708 251.154C86.5923 251.154 86.3663 251.197 86.1927 251.284C86.0227 251.367 85.8979 251.474 85.8183 251.604C85.7424 251.734 85.7044 251.872 85.7044 252.016C85.7044 252.125 85.7225 252.222 85.7586 252.309C85.7984 252.392 85.8671 252.47 85.9648 252.543C86.0625 252.611 86.1999 252.676 86.3771 252.738C86.5543 252.799 86.7804 252.861 87.0553 252.922C87.5363 253.031 87.9323 253.161 88.2434 253.313C88.5544 253.465 88.7859 253.651 88.9378 253.872C89.0897 254.092 89.1657 254.36 89.1657 254.675C89.1657 254.931 89.1114 255.167 89.0029 255.38C88.898 255.593 88.7443 255.778 88.5418 255.933C88.3429 256.085 88.1041 256.205 87.8256 256.291C87.5508 256.375 87.2415 256.416 86.8979 256.416C86.3807 256.416 85.9431 256.324 85.585 256.139C85.227 255.955 84.9557 255.716 84.7713 255.423C84.5868 255.13 84.4946 254.821 84.4946 254.496H85.5037C85.5181 254.77 85.5977 254.989 85.7424 255.152C85.887 255.311 86.0643 255.425 86.274 255.494C86.4838 255.559 86.6918 255.591 86.8979 255.591C87.1728 255.591 87.4025 255.555 87.5869 255.483C87.775 255.411 87.9179 255.311 88.0155 255.185C88.1132 255.058 88.162 254.913 88.162 254.751ZM96.3957 253.921L97.9636 248.408H98.7231L98.2837 250.551L96.5964 256.308H95.8423L96.3957 253.921ZM94.7735 248.408L96.0214 253.812L96.3957 256.308H95.647L93.7319 248.408H94.7735ZM100.752 253.807L101.973 248.408H103.02L101.11 256.308H100.362L100.752 253.807ZM98.837 248.408L100.362 253.921L100.915 256.308H100.161L98.5332 250.551L98.0884 248.408H98.837ZM106.754 256.416C106.346 256.416 105.975 256.347 105.642 256.21C105.313 256.069 105.029 255.872 104.79 255.619C104.555 255.365 104.374 255.065 104.248 254.718C104.121 254.371 104.058 253.991 104.058 253.579V253.351C104.058 252.873 104.128 252.448 104.269 252.076C104.411 251.7 104.602 251.382 104.845 251.121C105.087 250.861 105.362 250.664 105.669 250.53C105.977 250.396 106.295 250.329 106.624 250.329C107.044 250.329 107.405 250.401 107.709 250.546C108.017 250.691 108.268 250.893 108.463 251.154C108.658 251.41 108.803 251.714 108.897 252.065C108.991 252.412 109.038 252.792 109.038 253.204V253.655H104.655V252.835H108.035V252.76C108.02 252.499 107.966 252.246 107.872 252C107.781 251.754 107.637 251.552 107.438 251.392C107.239 251.233 106.968 251.154 106.624 251.154C106.396 251.154 106.186 251.202 105.995 251.3C105.803 251.394 105.638 251.535 105.501 251.723C105.364 251.911 105.257 252.141 105.181 252.412C105.105 252.684 105.067 252.996 105.067 253.351V253.579C105.067 253.857 105.105 254.119 105.181 254.365C105.26 254.608 105.374 254.821 105.523 255.006C105.675 255.19 105.857 255.335 106.071 255.44C106.288 255.544 106.534 255.597 106.808 255.597C107.163 255.597 107.463 255.525 107.709 255.38C107.955 255.235 108.17 255.042 108.355 254.799L108.962 255.282C108.836 255.474 108.675 255.657 108.479 255.83C108.284 256.004 108.044 256.145 107.758 256.253C107.476 256.362 107.141 256.416 106.754 256.416ZM113.109 256.416C112.7 256.416 112.33 256.347 111.997 256.21C111.668 256.069 111.384 255.872 111.145 255.619C110.91 255.365 110.729 255.065 110.603 254.718C110.476 254.371 110.413 253.991 110.413 253.579V253.351C110.413 252.873 110.483 252.448 110.624 252.076C110.765 251.7 110.957 251.382 111.199 251.121C111.442 250.861 111.717 250.664 112.024 250.53C112.331 250.396 112.65 250.329 112.979 250.329C113.398 250.329 113.76 250.401 114.064 250.546C114.371 250.691 114.623 250.893 114.818 251.154C115.013 251.41 115.158 251.714 115.252 252.065C115.346 252.412 115.393 252.792 115.393 253.204V253.655H111.009V252.835H114.389V252.76C114.375 252.499 114.321 252.246 114.227 252C114.136 251.754 113.991 251.552 113.793 251.392C113.594 251.233 113.322 251.154 112.979 251.154C112.751 251.154 112.541 251.202 112.349 251.3C112.158 251.394 111.993 251.535 111.856 251.723C111.718 251.911 111.612 252.141 111.536 252.412C111.46 252.684 111.422 252.996 111.422 253.351V253.579C111.422 253.857 111.46 254.119 111.536 254.365C111.615 254.608 111.729 254.821 111.877 255.006C112.029 255.19 112.212 255.335 112.425 255.44C112.642 255.544 112.888 255.597 113.163 255.597C113.518 255.597 113.818 255.525 114.064 255.38C114.31 255.235 114.525 255.042 114.709 254.799L115.317 255.282C115.19 255.474 115.03 255.657 114.834 255.83C114.639 256.004 114.398 256.145 114.113 256.253C113.831 256.362 113.496 256.416 113.109 256.416ZM118.037 247.974V256.308H117.028V247.974H118.037ZM121.623 250.438L119.062 253.177L117.63 254.664L117.549 253.595L118.574 252.369L120.397 250.438H121.623ZM120.706 256.308L118.612 253.508L119.133 252.613L121.889 256.308H120.706Z" fill="#363740"/>
<ellipse cx="154.193" cy="252.938" rx="4.90992" ry="3.89756" fill="#FFE600"/>
<path opacity="0.7" d="M173.538 255.456V256.308H169.589V255.456H173.538ZM169.795 248.408V256.308H168.748V248.408H169.795ZM178.51 255.304V252.282C178.51 252.051 178.463 251.85 178.369 251.68C178.278 251.506 178.141 251.372 177.956 251.278C177.772 251.184 177.544 251.137 177.273 251.137C177.02 251.137 176.797 251.181 176.605 251.268C176.417 251.354 176.269 251.468 176.161 251.609C176.056 251.75 176.003 251.902 176.003 252.065H175C175 251.855 175.054 251.647 175.162 251.441C175.271 251.235 175.426 251.049 175.629 250.882C175.835 250.712 176.081 250.579 176.367 250.481C176.656 250.38 176.978 250.329 177.332 250.329C177.759 250.329 178.135 250.401 178.461 250.546C178.79 250.691 179.047 250.91 179.231 251.202C179.419 251.492 179.513 251.855 179.513 252.293V255.027C179.513 255.223 179.53 255.431 179.562 255.651C179.598 255.872 179.651 256.062 179.72 256.221V256.308H178.672C178.622 256.192 178.582 256.038 178.553 255.846C178.524 255.651 178.51 255.47 178.51 255.304ZM178.683 252.749L178.694 253.454H177.68C177.394 253.454 177.139 253.477 176.915 253.524C176.69 253.568 176.502 253.635 176.35 253.725C176.199 253.816 176.083 253.93 176.003 254.067C175.924 254.201 175.884 254.358 175.884 254.539C175.884 254.723 175.925 254.892 176.009 255.044C176.092 255.195 176.217 255.317 176.383 255.407C176.553 255.494 176.761 255.537 177.007 255.537C177.314 255.537 177.586 255.472 177.821 255.342C178.056 255.212 178.242 255.053 178.379 254.865C178.521 254.676 178.597 254.494 178.607 254.317L179.036 254.799C179.011 254.951 178.942 255.119 178.83 255.304C178.718 255.488 178.568 255.666 178.379 255.836C178.195 256.002 177.974 256.141 177.718 256.253C177.464 256.362 177.179 256.416 176.86 256.416C176.463 256.416 176.114 256.338 175.813 256.183C175.517 256.027 175.285 255.819 175.119 255.559C174.956 255.295 174.875 255 174.875 254.675C174.875 254.36 174.936 254.083 175.059 253.845C175.182 253.602 175.359 253.402 175.591 253.242C175.822 253.08 176.101 252.957 176.426 252.873C176.752 252.79 177.115 252.749 177.517 252.749H178.683ZM184.973 254.751C184.973 254.606 184.94 254.472 184.875 254.349C184.814 254.223 184.685 254.109 184.49 254.007C184.298 253.902 184.009 253.812 183.622 253.736C183.297 253.667 183.002 253.586 182.738 253.492C182.477 253.398 182.255 253.284 182.07 253.15C181.89 253.016 181.75 252.859 181.653 252.678C181.555 252.497 181.506 252.286 181.506 252.043C181.506 251.812 181.557 251.593 181.658 251.387C181.763 251.181 181.91 250.998 182.098 250.839C182.289 250.68 182.519 250.555 182.787 250.465C183.054 250.374 183.353 250.329 183.682 250.329C184.152 250.329 184.553 250.412 184.886 250.579C185.219 250.745 185.474 250.967 185.651 251.246C185.828 251.521 185.917 251.826 185.917 252.163H184.913C184.913 252 184.864 251.843 184.767 251.691C184.673 251.535 184.534 251.407 184.349 251.306C184.168 251.204 183.946 251.154 183.682 251.154C183.403 251.154 183.177 251.197 183.004 251.284C182.834 251.367 182.709 251.474 182.629 251.604C182.553 251.734 182.515 251.872 182.515 252.016C182.515 252.125 182.533 252.222 182.57 252.309C182.609 252.392 182.678 252.47 182.776 252.543C182.873 252.611 183.011 252.676 183.188 252.738C183.365 252.799 183.591 252.861 183.866 252.922C184.347 253.031 184.743 253.161 185.054 253.313C185.365 253.465 185.597 253.651 185.749 253.872C185.901 254.092 185.977 254.36 185.977 254.675C185.977 254.931 185.922 255.167 185.814 255.38C185.709 255.593 185.555 255.778 185.353 255.933C185.154 256.085 184.915 256.205 184.637 256.291C184.362 256.375 184.052 256.416 183.709 256.416C183.192 256.416 182.754 256.324 182.396 256.139C182.038 255.955 181.767 255.716 181.582 255.423C181.398 255.13 181.305 254.821 181.305 254.496H182.315C182.329 254.77 182.409 254.989 182.553 255.152C182.698 255.311 182.875 255.425 183.085 255.494C183.295 255.559 183.503 255.591 183.709 255.591C183.984 255.591 184.213 255.555 184.398 255.483C184.586 255.411 184.729 255.311 184.826 255.185C184.924 255.058 184.973 254.913 184.973 254.751ZM190.216 250.438V251.208H187.042V250.438H190.216ZM188.116 249.011H189.12V254.854C189.12 255.053 189.15 255.203 189.212 255.304C189.273 255.405 189.353 255.472 189.451 255.505C189.548 255.537 189.653 255.554 189.765 255.554C189.848 255.554 189.935 255.546 190.026 255.532C190.12 255.514 190.19 255.499 190.237 255.488L190.243 256.308C190.163 256.333 190.058 256.356 189.928 256.378C189.801 256.403 189.648 256.416 189.467 256.416C189.221 256.416 188.995 256.367 188.789 256.27C188.583 256.172 188.418 256.009 188.295 255.781C188.176 255.55 188.116 255.239 188.116 254.848V249.011ZM197.304 253.921L198.872 248.408H199.632L199.192 250.551L197.505 256.308H196.751L197.304 253.921ZM195.682 248.408L196.93 253.812L197.304 256.308H196.556L194.641 248.408H195.682ZM201.661 253.807L202.882 248.408H203.929L202.019 256.308H201.27L201.661 253.807ZM199.746 248.408L201.27 253.921L201.824 256.308H201.07L199.442 250.551L198.997 248.408H199.746ZM207.663 256.416C207.254 256.416 206.884 256.347 206.551 256.21C206.222 256.069 205.938 255.872 205.699 255.619C205.464 255.365 205.283 255.065 205.157 254.718C205.03 254.371 204.967 253.991 204.967 253.579V253.351C204.967 252.873 205.037 252.448 205.178 252.076C205.319 251.7 205.511 251.382 205.753 251.121C205.996 250.861 206.271 250.664 206.578 250.53C206.885 250.396 207.204 250.329 207.533 250.329C207.952 250.329 208.314 250.401 208.618 250.546C208.925 250.691 209.177 250.893 209.372 251.154C209.567 251.41 209.712 251.714 209.806 252.065C209.9 252.412 209.947 252.792 209.947 253.204V253.655H205.563V252.835H208.943V252.76C208.929 252.499 208.875 252.246 208.781 252C208.69 251.754 208.546 251.552 208.347 251.392C208.148 251.233 207.876 251.154 207.533 251.154C207.305 251.154 207.095 251.202 206.903 251.3C206.712 251.394 206.547 251.535 206.41 251.723C206.272 251.911 206.166 252.141 206.09 252.412C206.014 252.684 205.976 252.996 205.976 253.351V253.579C205.976 253.857 206.014 254.119 206.09 254.365C206.169 254.608 206.283 254.821 206.432 255.006C206.583 255.19 206.766 255.335 206.979 255.44C207.196 255.544 207.442 255.597 207.717 255.597C208.072 255.597 208.372 255.525 208.618 255.38C208.864 255.235 209.079 255.042 209.263 254.799L209.871 255.282C209.745 255.474 209.584 255.657 209.388 255.83C209.193 256.004 208.952 256.145 208.667 256.253C208.385 256.362 208.05 256.416 207.663 256.416ZM214.018 256.416C213.609 256.416 213.238 256.347 212.906 256.21C212.576 256.069 212.293 255.872 212.054 255.619C211.819 255.365 211.638 255.065 211.511 254.718C211.385 254.371 211.321 253.991 211.321 253.579V253.351C211.321 252.873 211.392 252.448 211.533 252.076C211.674 251.7 211.866 251.382 212.108 251.121C212.35 250.861 212.625 250.664 212.933 250.53C213.24 250.396 213.558 250.329 213.888 250.329C214.307 250.329 214.669 250.401 214.973 250.546C215.28 250.691 215.531 250.893 215.727 251.154C215.922 251.41 216.067 251.714 216.161 252.065C216.255 252.412 216.302 252.792 216.302 253.204V253.655H211.918V252.835H215.298V252.76C215.284 252.499 215.229 252.246 215.135 252C215.045 251.754 214.9 251.552 214.701 251.392C214.502 251.233 214.231 251.154 213.888 251.154C213.66 251.154 213.45 251.202 213.258 251.3C213.067 251.394 212.902 251.535 212.765 251.723C212.627 251.911 212.52 252.141 212.444 252.412C212.369 252.684 212.331 252.996 212.331 253.351V253.579C212.331 253.857 212.369 254.119 212.444 254.365C212.524 254.608 212.638 254.821 212.786 255.006C212.938 255.19 213.121 255.335 213.334 255.44C213.551 255.544 213.797 255.597 214.072 255.597C214.426 255.597 214.727 255.525 214.973 255.38C215.219 255.235 215.434 255.042 215.618 254.799L216.226 255.282C216.099 255.474 215.938 255.657 215.743 255.83C215.548 256.004 215.307 256.145 215.021 256.253C214.739 256.362 214.405 256.416 214.018 256.416ZM218.946 247.974V256.308H217.937V247.974H218.946ZM222.532 250.438L219.971 253.177L218.539 254.664L218.457 253.595L219.483 252.369L221.306 250.438H222.532ZM221.615 256.308L219.521 253.508L220.042 252.613L222.798 256.308H221.615Z" fill="#363740"/>
<path d="M68.2886 129.663L121.128 47.7619L180.368 155.761L242.816 56.1639L293.327 124.504L349.807 112.341" stroke="#FFE600" stroke-width="2.77771" stroke-linecap="round" stroke-linejoin="round"/>
<path d="M68.2906 153.916L127.997 166.175L203.281 84.6258L242.303 135.848L309.051 153.916L349.809 84.6256" stroke="#7367F0" stroke-width="2.77771" stroke-linecap="round" stroke-linejoin="round"/>
</svg>
