  <svg width="104" height="79" viewBox="0 0 104 79" fill="none" xmlns="http://www.w3.org/2000/svg">
<path d="M47.0903 2.94026C39.6453 3.0082 32.4032 5.38583 26.3552 9.74771C20.3073 14.1096 15.749 20.2425 13.3045 27.307C10.86 34.3715 10.6487 42.0223 12.6994 49.2121C14.7502 56.4018 18.9628 62.7793 24.7607 67.4714L31.558 58.9956C27.4995 55.7112 24.5506 51.247 23.1151 46.2141C21.6796 41.1813 21.8275 35.8257 23.5387 30.8806C25.2498 25.9354 28.4406 21.6424 32.6741 18.5891C36.9077 15.5357 41.9772 13.8714 47.1887 13.8238L47.0903 2.94026Z" fill="#7367F0"/>
<path d="M71.9618 65.8343C65.6133 71.7419 57.3642 75.1632 48.7161 75.4756C40.0679 75.788 31.5955 72.9706 24.8411 67.5362L31.6142 59.041C36.3423 62.8451 42.273 64.8172 48.3267 64.5986C54.3805 64.3799 60.1548 61.985 64.5987 57.8497L71.9618 65.8343Z" fill="#7367F0"/>
<path d="M47.0904 2.94026C52.9622 2.88668 58.7584 4.27213 63.9769 6.97658C69.1954 9.68103 73.6788 13.6229 77.0386 18.4607L68.1525 24.6881C65.8007 21.3017 62.6623 18.5424 59.0094 16.6493C55.3564 14.7562 51.2991 13.7863 47.1888 13.8238L47.0904 2.94026Z" fill="#FFE600"/>
<path d="M76.8877 18.2451C81.9698 25.4508 84.2612 34.2712 83.3322 43.0527C82.4032 51.8343 78.3177 59.9739 71.8415 65.9458L64.5146 57.9277C69.0479 53.7474 71.9078 48.0497 72.5581 41.9026C73.2084 35.7555 71.6044 29.5812 68.0469 24.5372L76.8877 18.2451Z" fill="#FFE600"/>
<path d="M34.481 32.7655H36.0215C36.3709 32.7655 36.666 32.8187 36.9068 32.9253C37.1497 33.0318 37.334 33.1895 37.4597 33.3983C37.5876 33.605 37.6515 33.8596 37.6515 34.1621C37.6515 34.3752 37.6078 34.5702 37.5205 34.747C37.4352 34.9217 37.3116 35.0709 37.1497 35.1945C36.9899 35.3159 36.7982 35.4065 36.5744 35.4661L36.4018 35.5332H34.954L34.9477 35.0315H36.0407C36.2623 35.0315 36.4466 34.9931 36.5936 34.9164C36.7406 34.8376 36.8514 34.7321 36.926 34.6C37.0006 34.4679 37.0379 34.3219 37.0379 34.1621C37.0379 33.9832 37.0027 33.8266 36.9324 33.6923C36.8621 33.5581 36.7513 33.4548 36.6 33.3823C36.4509 33.3077 36.258 33.2704 36.0215 33.2704H35.0979V37.4189H34.481V32.7655ZM37.2009 37.4189L36.0695 35.3095L36.7119 35.3063L37.8592 37.3805V37.4189H37.2009ZM39.8599 37.4828C39.6192 37.4828 39.4008 37.4423 39.2048 37.3614C39.0109 37.2783 38.8436 37.1621 38.703 37.013C38.5645 36.8638 38.458 36.687 38.3834 36.4824C38.3088 36.2779 38.2715 36.0542 38.2715 35.8113V35.6771C38.2715 35.3958 38.3131 35.1454 38.3962 34.926C38.4793 34.7044 38.5922 34.5169 38.7349 34.3635C38.8777 34.2101 39.0396 34.094 39.2207 34.0151C39.4018 33.9363 39.5893 33.8969 39.7832 33.8969C40.0304 33.8969 40.2435 33.9395 40.4224 34.0247C40.6035 34.1099 40.7516 34.2293 40.8667 34.3827C40.9817 34.5339 41.067 34.7129 41.1224 34.9196C41.1778 35.1241 41.2055 35.3479 41.2055 35.5908V35.856H38.6231V35.3734H40.6142V35.3287C40.6057 35.1753 40.5737 35.0261 40.5183 34.8812C40.4651 34.7364 40.3798 34.617 40.2626 34.5233C40.1455 34.4295 39.9857 34.3827 39.7832 34.3827C39.649 34.3827 39.5254 34.4114 39.4125 34.469C39.2996 34.5244 39.2026 34.6074 39.1217 34.7182C39.0407 34.829 38.9778 34.9643 38.9331 35.1241C38.8884 35.2839 38.866 35.4682 38.866 35.6771V35.8113C38.866 35.9753 38.8884 36.1298 38.9331 36.2747C38.98 36.4175 39.0471 36.5432 39.1344 36.6518C39.2239 36.7605 39.3315 36.8457 39.4572 36.9075C39.5851 36.9693 39.73 37.0002 39.8919 37.0002C40.1007 37.0002 40.2776 36.9576 40.4224 36.8724C40.5673 36.7871 40.6941 36.6731 40.8028 36.5304L41.1607 36.8148C41.0861 36.9278 40.9913 37.0354 40.8763 37.1376C40.7612 37.2399 40.6195 37.323 40.4512 37.3869C40.285 37.4508 40.0879 37.4828 39.8599 37.4828ZM41.9118 33.9608H42.5062V37.8312C42.5062 38.0421 42.4722 38.2211 42.404 38.3681C42.3379 38.5151 42.2378 38.6259 42.1035 38.7005C41.9714 38.7772 41.8042 38.8155 41.6018 38.8155C41.5485 38.8155 41.4867 38.8102 41.4164 38.7996C41.344 38.7889 41.2832 38.7761 41.2342 38.7612L41.2374 38.285C41.2779 38.2935 41.3237 38.2999 41.3749 38.3042C41.426 38.3106 41.4707 38.3138 41.5091 38.3138C41.5964 38.3138 41.67 38.2978 41.7296 38.2658C41.7893 38.2339 41.834 38.1827 41.8638 38.1124C41.8958 38.0421 41.9118 37.9484 41.9118 37.8312V33.9608ZM41.8511 33.0435C41.8511 32.9476 41.8809 32.8667 41.9406 32.8006C42.0002 32.7346 42.0865 32.7016 42.1994 32.7016C42.3145 32.7016 42.4018 32.7346 42.4615 32.8006C42.5212 32.8667 42.551 32.9476 42.551 33.0435C42.551 33.1351 42.5212 33.214 42.4615 33.28C42.4018 33.344 42.3145 33.3759 42.1994 33.3759C42.0865 33.3759 42.0002 33.344 41.9406 33.28C41.8809 33.214 41.8511 33.1351 41.8511 33.0435ZM44.8969 37.4828C44.6561 37.4828 44.4377 37.4423 44.2417 37.3614C44.0478 37.2783 43.8805 37.1621 43.7399 37.013C43.6014 36.8638 43.4949 36.687 43.4203 36.4824C43.3457 36.2779 43.3085 36.0542 43.3085 35.8113V35.6771C43.3085 35.3958 43.35 35.1454 43.4331 34.926C43.5162 34.7044 43.6291 34.5169 43.7719 34.3635C43.9146 34.2101 44.0766 34.094 44.2577 34.0151C44.4388 33.9363 44.6263 33.8969 44.8202 33.8969C45.0673 33.8969 45.2804 33.9395 45.4594 34.0247C45.6405 34.1099 45.7886 34.2293 45.9036 34.3827C46.0187 34.5339 46.1039 34.7129 46.1593 34.9196C46.2147 35.1241 46.2424 35.3479 46.2424 35.5908V35.856H43.66V35.3734H45.6511V35.3287C45.6426 35.1753 45.6107 35.0261 45.5553 34.8812C45.502 34.7364 45.4168 34.617 45.2996 34.5233C45.1824 34.4295 45.0226 34.3827 44.8202 34.3827C44.6859 34.3827 44.5624 34.4114 44.4494 34.469C44.3365 34.5244 44.2396 34.6074 44.1586 34.7182C44.0776 34.829 44.0148 34.9643 43.97 35.1241C43.9253 35.2839 43.9029 35.4682 43.9029 35.6771V35.8113C43.9029 35.9753 43.9253 36.1298 43.97 36.2747C44.0169 36.4175 44.084 36.5432 44.1714 36.6518C44.2609 36.7605 44.3685 36.8457 44.4942 36.9075C44.622 36.9693 44.7669 37.0002 44.9288 37.0002C45.1376 37.0002 45.3145 36.9576 45.4594 36.8724C45.6043 36.7871 45.731 36.6731 45.8397 36.5304L46.1977 36.8148C46.1231 36.9278 46.0283 37.0354 45.9132 37.1376C45.7982 37.2399 45.6565 37.323 45.4881 37.3869C45.3219 37.4508 45.1249 37.4828 44.8969 37.4828ZM48.3166 36.997C48.4572 36.997 48.5872 36.9682 48.7065 36.9107C48.8259 36.8532 48.9239 36.7744 49.0006 36.6742C49.0773 36.5719 49.1209 36.4558 49.1316 36.3258H49.6941C49.6834 36.5304 49.6142 36.7211 49.4864 36.8979C49.3607 37.0726 49.1955 37.2143 48.991 37.323C48.7864 37.4295 48.5616 37.4828 48.3166 37.4828C48.0567 37.4828 47.8298 37.437 47.6359 37.3454C47.4441 37.2538 47.2843 37.128 47.1565 36.9682C47.0308 36.8084 46.9359 36.6252 46.872 36.4185C46.8102 36.2097 46.7793 35.9892 46.7793 35.757V35.6227C46.7793 35.3905 46.8102 35.171 46.872 34.9643C46.9359 34.7555 47.0308 34.5712 47.1565 34.4114C47.2843 34.2516 47.4441 34.1259 47.6359 34.0343C47.8298 33.9427 48.0567 33.8969 48.3166 33.8969C48.5872 33.8969 48.8237 33.9523 49.0261 34.0631C49.2285 34.1717 49.3873 34.3209 49.5023 34.5105C49.6195 34.698 49.6834 34.9111 49.6941 35.1497H49.1316C49.1209 35.007 49.0805 34.878 49.0102 34.763C48.942 34.6479 48.8482 34.5563 48.7289 34.4881C48.6117 34.4178 48.4743 34.3827 48.3166 34.3827C48.1355 34.3827 47.9832 34.4189 47.8596 34.4913C47.7381 34.5616 47.6412 34.6575 47.5687 34.779C47.4984 34.8983 47.4473 35.0315 47.4153 35.1785C47.3855 35.3234 47.3706 35.4714 47.3706 35.6227V35.757C47.3706 35.9082 47.3855 36.0574 47.4153 36.2044C47.4452 36.3514 47.4952 36.4846 47.5656 36.6039C47.638 36.7232 47.7349 36.8191 47.8564 36.8915C47.98 36.9619 48.1334 36.997 48.3166 36.997ZM51.8067 33.9608V34.4146H49.937V33.9608H51.8067ZM50.5698 33.1202H51.1611V36.5624C51.1611 36.6795 51.1792 36.768 51.2154 36.8276C51.2516 36.8873 51.2985 36.9267 51.356 36.9459C51.4136 36.965 51.4754 36.9746 51.5414 36.9746C51.5904 36.9746 51.6415 36.9704 51.6948 36.9619C51.7502 36.9512 51.7918 36.9427 51.8195 36.9363L51.8227 37.4189C51.7758 37.4338 51.714 37.4476 51.6373 37.4604C51.5627 37.4753 51.4722 37.4828 51.3656 37.4828C51.2207 37.4828 51.0876 37.454 50.9661 37.3965C50.8447 37.339 50.7477 37.2431 50.6753 37.1089C50.605 36.9725 50.5698 36.7893 50.5698 36.5592V33.1202ZM53.9352 37.4828C53.6945 37.4828 53.4761 37.4423 53.28 37.3614C53.0861 37.2783 52.9189 37.1621 52.7783 37.013C52.6398 36.8638 52.5332 36.687 52.4587 36.4824C52.3841 36.2779 52.3468 36.0542 52.3468 35.8113V35.6771C52.3468 35.3958 52.3884 35.1454 52.4714 34.926C52.5545 34.7044 52.6675 34.5169 52.8102 34.3635C52.953 34.2101 53.1149 34.094 53.296 34.0151C53.4771 33.9363 53.6646 33.8969 53.8585 33.8969C54.1057 33.8969 54.3187 33.9395 54.4977 34.0247C54.6788 34.1099 54.8269 34.2293 54.942 34.3827C55.057 34.5339 55.1423 34.7129 55.1977 34.9196C55.2531 35.1241 55.2808 35.3479 55.2808 35.5908V35.856H52.6984V35.3734H54.6895V35.3287C54.681 35.1753 54.649 35.0261 54.5936 34.8812C54.5403 34.7364 54.4551 34.617 54.3379 34.5233C54.2207 34.4295 54.0609 34.3827 53.8585 34.3827C53.7243 34.3827 53.6007 34.4114 53.4878 34.469C53.3749 34.5244 53.2779 34.6074 53.1969 34.7182C53.116 34.829 53.0531 34.9643 53.0084 35.1241C52.9636 35.2839 52.9413 35.4682 52.9413 35.6771V35.8113C52.9413 35.9753 52.9636 36.1298 53.0084 36.2747C53.0553 36.4175 53.1224 36.5432 53.2097 36.6518C53.2992 36.7605 53.4068 36.8457 53.5325 36.9075C53.6604 36.9693 53.8053 37.0002 53.9672 37.0002C54.176 37.0002 54.3528 36.9576 54.4977 36.8724C54.6426 36.7871 54.7694 36.6731 54.8781 36.5304L55.236 36.8148C55.1614 36.9278 55.0666 37.0354 54.9516 37.1376C54.8365 37.2399 54.6948 37.323 54.5265 37.3869C54.3603 37.4508 54.1632 37.4828 53.9352 37.4828ZM58.1508 36.7477V32.5098H58.7452V37.4189H58.2019L58.1508 36.7477ZM55.8241 35.7282V35.6611C55.8241 35.3969 55.856 35.1572 55.92 34.942C55.986 34.7246 56.0787 34.5382 56.198 34.3827C56.3195 34.2271 56.4633 34.1078 56.6295 34.0247C56.7978 33.9395 56.9853 33.8969 57.192 33.8969C57.4093 33.8969 57.5989 33.9352 57.7609 34.0119C57.9249 34.0865 58.0634 34.1962 58.1763 34.3411C58.2914 34.4839 58.382 34.6565 58.448 34.8589C58.5141 35.0613 58.5599 35.2903 58.5854 35.546V35.84C58.562 36.0936 58.5162 36.3216 58.448 36.524C58.382 36.7264 58.2914 36.899 58.1763 37.0418C58.0634 37.1845 57.9249 37.2942 57.7609 37.3709C57.5968 37.4455 57.405 37.4828 57.1856 37.4828C56.9832 37.4828 56.7978 37.4391 56.6295 37.3518C56.4633 37.2644 56.3195 37.1419 56.198 36.9842C56.0787 36.8266 55.986 36.6412 55.92 36.4281C55.856 36.2129 55.8241 35.9796 55.8241 35.7282ZM56.4185 35.6611V35.7282C56.4185 35.9008 56.4356 36.0627 56.4697 36.214C56.5059 36.3653 56.5613 36.4984 56.6359 36.6135C56.7104 36.7285 56.8053 36.8191 56.9203 36.8851C57.0354 36.9491 57.1728 36.981 57.3326 36.981C57.5286 36.981 57.6895 36.9395 57.8152 36.8564C57.943 36.7733 58.0453 36.6636 58.122 36.5272C58.1987 36.3908 58.2584 36.2427 58.301 36.0829V35.3127C58.2754 35.1955 58.2381 35.0826 58.1891 34.9739C58.1423 34.8631 58.0805 34.7651 58.0038 34.6799C57.9292 34.5925 57.8365 34.5233 57.7257 34.4722C57.617 34.421 57.4881 34.3954 57.339 34.3954C57.1771 34.3954 57.0375 34.4295 56.9203 34.4977C56.8053 34.5638 56.7104 34.6554 56.6359 34.7726C56.5613 34.8876 56.5059 35.0219 56.4697 35.1753C56.4356 35.3266 56.4185 35.4885 56.4185 35.6611ZM36.5105 43.594H35.2673V43.0922H36.5105C36.7513 43.0922 36.9462 43.0538 37.0954 42.9771C37.2445 42.9004 37.3532 42.7939 37.4214 42.6575C37.4917 42.5212 37.5268 42.3656 37.5268 42.1909C37.5268 42.0311 37.4917 41.8809 37.4214 41.7403C37.3532 41.5996 37.2445 41.4867 37.0954 41.4015C36.9462 41.3141 36.7513 41.2704 36.5105 41.2704H35.4111V45.4189H34.7942V40.7655H36.5105C36.8621 40.7655 37.1593 40.8262 37.4022 40.9476C37.6451 41.0691 37.8294 41.2374 37.9551 41.4526C38.0808 41.6657 38.1437 41.9097 38.1437 42.1845C38.1437 42.4828 38.0808 42.7374 37.9551 42.9484C37.8294 43.1593 37.6451 43.3202 37.4022 43.431C37.1593 43.5396 36.8621 43.594 36.5105 43.594ZM39.4253 42.5041V45.4189H38.834V41.9608H39.4093L39.4253 42.5041ZM40.5055 41.9416L40.5023 42.4913C40.4533 42.4807 40.4065 42.4743 40.3617 42.4722C40.3191 42.4679 40.2701 42.4658 40.2147 42.4658C40.0783 42.4658 39.958 42.4871 39.8535 42.5297C39.7491 42.5723 39.6607 42.632 39.5883 42.7087C39.5158 42.7854 39.4583 42.877 39.4157 42.9835C39.3752 43.0879 39.3486 43.203 39.3358 43.3287L39.1696 43.4246C39.1696 43.2158 39.1898 43.0197 39.2303 42.8365C39.2729 42.6533 39.3379 42.4913 39.4253 42.3507C39.5126 42.2079 39.6234 42.0972 39.7577 42.0183C39.894 41.9374 40.056 41.8969 40.2435 41.8969C40.2861 41.8969 40.3351 41.9022 40.3905 41.9128C40.4459 41.9214 40.4842 41.931 40.5055 41.9416ZM40.8315 43.7282V43.6547C40.8315 43.4054 40.8678 43.1742 40.9402 42.9611C41.0126 42.7459 41.117 42.5595 41.2534 42.4018C41.3898 42.242 41.5549 42.1185 41.7488 42.0311C41.9427 41.9416 42.16 41.8969 42.4008 41.8969C42.6437 41.8969 42.8621 41.9416 43.056 42.0311C43.252 42.1185 43.4182 42.242 43.5545 42.4018C43.693 42.5595 43.7985 42.7459 43.8709 42.9611C43.9434 43.1742 43.9796 43.4054 43.9796 43.6547V43.7282C43.9796 43.9775 43.9434 44.2087 43.8709 44.4217C43.7985 44.6348 43.693 44.8212 43.5545 44.981C43.4182 45.1387 43.2531 45.2623 43.0592 45.3518C42.8674 45.4391 42.6501 45.4828 42.4072 45.4828C42.1643 45.4828 41.9459 45.4391 41.752 45.3518C41.5581 45.2623 41.3919 45.1387 41.2534 44.981C41.117 44.8212 41.0126 44.6348 40.9402 44.4217C40.8678 44.2087 40.8315 43.9775 40.8315 43.7282ZM41.4228 43.6547V43.7282C41.4228 43.9008 41.443 44.0638 41.4835 44.2172C41.524 44.3685 41.5847 44.5027 41.6657 44.6199C41.7488 44.7371 41.8521 44.8298 41.9757 44.8979C42.0993 44.964 42.2431 44.997 42.4072 44.997C42.5691 44.997 42.7108 44.964 42.8322 44.8979C42.9558 44.8298 43.0581 44.7371 43.1391 44.6199C43.22 44.5027 43.2808 44.3685 43.3212 44.2172C43.3638 44.0638 43.3852 43.9008 43.3852 43.7282V43.6547C43.3852 43.4842 43.3638 43.3234 43.3212 43.1721C43.2808 43.0187 43.219 42.8834 43.1359 42.7662C43.0549 42.6469 42.9526 42.5531 42.829 42.4849C42.7076 42.4168 42.5648 42.3827 42.4008 42.3827C42.2388 42.3827 42.0961 42.4168 41.9725 42.4849C41.8511 42.5531 41.7488 42.6469 41.6657 42.7662C41.5847 42.8834 41.524 43.0187 41.4835 43.1721C41.443 43.3234 41.4228 43.4842 41.4228 43.6547ZM46.9008 44.7477V40.5098H47.4952V45.4189H46.9519L46.9008 44.7477ZM44.5741 43.7282V43.6611C44.5741 43.3969 44.606 43.1572 44.67 42.942C44.736 42.7246 44.8287 42.5382 44.948 42.3827C45.0695 42.2271 45.2133 42.1078 45.3795 42.0247C45.5478 41.9395 45.7353 41.8969 45.942 41.8969C46.1593 41.8969 46.3489 41.9352 46.5109 42.0119C46.6749 42.0865 46.8134 42.1962 46.9263 42.3411C47.0414 42.4839 47.132 42.6565 47.198 42.8589C47.2641 43.0613 47.3099 43.2903 47.3354 43.546V43.84C47.312 44.0936 47.2662 44.3216 47.198 44.524C47.132 44.7264 47.0414 44.899 46.9263 45.0418C46.8134 45.1845 46.6749 45.2942 46.5109 45.3709C46.3468 45.4455 46.155 45.4828 45.9356 45.4828C45.7332 45.4828 45.5478 45.4391 45.3795 45.3518C45.2133 45.2644 45.0695 45.1419 44.948 44.9842C44.8287 44.8266 44.736 44.6412 44.67 44.4281C44.606 44.2129 44.5741 43.9796 44.5741 43.7282ZM45.1685 43.6611V43.7282C45.1685 43.9008 45.1856 44.0627 45.2197 44.214C45.2559 44.3653 45.3113 44.4984 45.3859 44.6135C45.4604 44.7285 45.5553 44.8191 45.6703 44.8851C45.7854 44.9491 45.9228 44.981 46.0826 44.981C46.2786 44.981 46.4395 44.9395 46.5652 44.8564C46.693 44.7733 46.7953 44.6636 46.872 44.5272C46.9487 44.3908 47.0084 44.2427 47.051 44.0829V43.3127C47.0254 43.1955 46.9881 43.0826 46.9391 42.9739C46.8923 42.8631 46.8305 42.7651 46.7538 42.6799C46.6792 42.5925 46.5865 42.5233 46.4757 42.4722C46.367 42.421 46.2381 42.3954 46.089 42.3954C45.9271 42.3954 45.7875 42.4295 45.6703 42.4977C45.5553 42.5638 45.4604 42.6554 45.3859 42.7726C45.3113 42.8876 45.2559 43.0219 45.2197 43.1753C45.1856 43.3266 45.1685 43.4885 45.1685 43.6611ZM50.5315 44.6199V41.9608H51.1259V45.4189H50.5602L50.5315 44.6199ZM50.6433 43.8912L50.8894 43.8848C50.8894 44.1149 50.8649 44.328 50.8159 44.524C50.769 44.7179 50.6923 44.8862 50.5858 45.029C50.4793 45.1717 50.3397 45.2836 50.1671 45.3646C49.9945 45.4434 49.7847 45.4828 49.5375 45.4828C49.3692 45.4828 49.2147 45.4583 49.0741 45.4093C48.9356 45.3603 48.8163 45.2847 48.7161 45.1824C48.616 45.0801 48.5382 44.9469 48.4828 44.7829C48.4295 44.6188 48.4029 44.4217 48.4029 44.1916V41.9608H48.9942V44.198C48.9942 44.3535 49.0112 44.4824 49.0453 44.5847C49.0815 44.6849 49.1295 44.7648 49.1891 44.8244C49.2509 44.882 49.3191 44.9224 49.3937 44.9459C49.4704 44.9693 49.5492 44.981 49.6302 44.981C49.8816 44.981 50.0808 44.9331 50.2278 44.8372C50.3749 44.7392 50.4803 44.6082 50.5442 44.4441C50.6103 44.2779 50.6433 44.0936 50.6433 43.8912ZM53.4111 44.997C53.5517 44.997 53.6817 44.9682 53.801 44.9107C53.9203 44.8532 54.0183 44.7744 54.095 44.6742C54.1717 44.5719 54.2154 44.4558 54.2261 44.3258H54.7886C54.7779 44.5304 54.7087 44.7211 54.5808 44.8979C54.4551 45.0726 54.29 45.2143 54.0854 45.323C53.8809 45.4295 53.6561 45.4828 53.4111 45.4828C53.1511 45.4828 52.9242 45.437 52.7303 45.3454C52.5386 45.2538 52.3788 45.128 52.2509 44.9682C52.1252 44.8084 52.0304 44.6252 51.9665 44.4185C51.9047 44.2097 51.8738 43.9892 51.8738 43.757V43.6227C51.8738 43.3905 51.9047 43.171 51.9665 42.9643C52.0304 42.7555 52.1252 42.5712 52.2509 42.4114C52.3788 42.2516 52.5386 42.1259 52.7303 42.0343C52.9242 41.9427 53.1511 41.8969 53.4111 41.8969C53.6817 41.8969 53.9182 41.9523 54.1206 42.0631C54.323 42.1717 54.4817 42.3209 54.5968 42.5105C54.714 42.698 54.7779 42.9111 54.7886 43.1497H54.2261C54.2154 43.007 54.1749 42.878 54.1046 42.763C54.0364 42.6479 53.9427 42.5563 53.8234 42.4881C53.7062 42.4178 53.5687 42.3827 53.4111 42.3827C53.23 42.3827 53.0776 42.4189 52.954 42.4913C52.8326 42.5616 52.7356 42.6575 52.6632 42.779C52.5929 42.8983 52.5418 43.0315 52.5098 43.1785C52.48 43.3234 52.4651 43.4714 52.4651 43.6227V43.757C52.4651 43.9082 52.48 44.0574 52.5098 44.2044C52.5396 44.3514 52.5897 44.4846 52.66 44.6039C52.7325 44.7232 52.8294 44.8191 52.9508 44.8915C53.0744 44.9619 53.2278 44.997 53.4111 44.997ZM56.9011 41.9608V42.4146H55.0315V41.9608H56.9011ZM55.6643 41.1202H56.2555V44.5624C56.2555 44.6795 56.2736 44.768 56.3099 44.8276C56.3461 44.8873 56.393 44.9267 56.4505 44.9459C56.508 44.965 56.5698 44.9746 56.6359 44.9746C56.6849 44.9746 56.736 44.9704 56.7893 44.9619C56.8447 44.9512 56.8862 44.9427 56.9139 44.9363L56.9171 45.4189C56.8702 45.4338 56.8084 45.4476 56.7317 45.4604C56.6572 45.4753 56.5666 45.4828 56.4601 45.4828C56.3152 45.4828 56.182 45.454 56.0606 45.3965C55.9391 45.339 55.8422 45.2431 55.7697 45.1089C55.6994 44.9725 55.6643 44.7893 55.6643 44.5592V41.1202ZM59.6082 44.5016C59.6082 44.4164 59.589 44.3376 59.5506 44.2651C59.5144 44.1905 59.4388 44.1234 59.3237 44.0638C59.2108 44.002 59.0403 43.9487 58.8124 43.904C58.6206 43.8635 58.4469 43.8155 58.2914 43.7601C58.138 43.7048 58.007 43.6376 57.8983 43.5588C57.7918 43.48 57.7097 43.3873 57.6522 43.2807C57.5947 43.1742 57.5659 43.0496 57.5659 42.9068C57.5659 42.7704 57.5957 42.6415 57.6554 42.5201C57.7172 42.3986 57.8035 42.291 57.9143 42.1973C58.0272 42.1035 58.1625 42.03 58.3202 41.9768C58.4778 41.9235 58.6536 41.8969 58.8475 41.8969C59.1245 41.8969 59.361 41.9459 59.557 42.0439C59.7531 42.1419 59.9033 42.2729 60.0077 42.437C60.1121 42.5989 60.1643 42.779 60.1643 42.9771H59.573C59.573 42.8812 59.5442 42.7886 59.4867 42.6991C59.4313 42.6074 59.3493 42.5318 59.2406 42.4722C59.1341 42.4125 59.0031 42.3827 58.8475 42.3827C58.6834 42.3827 58.5503 42.4082 58.448 42.4594C58.3479 42.5084 58.2744 42.5712 58.2275 42.6479C58.1827 42.7246 58.1604 42.8056 58.1604 42.8908C58.1604 42.9548 58.171 43.0123 58.1923 43.0634C58.2158 43.1124 58.2562 43.1582 58.3138 43.2008C58.3713 43.2413 58.4523 43.2797 58.5567 43.3159C58.6611 43.3521 58.7942 43.3883 58.9562 43.4246C59.2396 43.4885 59.4729 43.5652 59.6561 43.6547C59.8393 43.7442 59.9757 43.8539 60.0652 43.9839C60.1547 44.1138 60.1994 44.2715 60.1994 44.4569C60.1994 44.6082 60.1675 44.7467 60.1035 44.8724C60.0418 44.9981 59.9512 45.1067 59.8319 45.1984C59.7147 45.2878 59.5741 45.3582 59.41 45.4093C59.2481 45.4583 59.0659 45.4828 58.8635 45.4828C58.5588 45.4828 58.301 45.4285 58.0901 45.3198C57.8791 45.2111 57.7193 45.0705 57.6107 44.8979C57.502 44.7253 57.4477 44.5432 57.4477 44.3514H58.0421C58.0506 44.5133 58.0975 44.6423 58.1827 44.7381C58.268 44.8319 58.3724 44.899 58.4959 44.9395C58.6195 44.9778 58.742 44.997 58.8635 44.997C59.0254 44.997 59.1607 44.9757 59.2694 44.9331C59.3802 44.8905 59.4643 44.8319 59.5219 44.7573C59.5794 44.6827 59.6082 44.5975 59.6082 44.5016Z" fill="#4B465C"/>
<rect x="61.125" y="6.21889" width="42" height="17.5946" rx="3.40541" fill="#4B465C"/>
<path d="M76.2096 16.8448H76.2886C76.732 16.8448 77.0923 16.7825 77.3694 16.6578C77.6465 16.5331 77.8599 16.3654 78.0096 16.1548C78.1592 15.9441 78.2618 15.7072 78.3172 15.4439C78.3726 15.1779 78.4003 14.9049 78.4003 14.625V13.698C78.4003 13.4236 78.3685 13.1797 78.3047 12.9664C78.2438 12.753 78.1578 12.5742 78.047 12.4301C77.9389 12.286 77.8156 12.1765 77.677 12.1017C77.5384 12.0269 77.3916 11.9895 77.2364 11.9895C77.059 11.9895 76.8997 12.0255 76.7583 12.0975C76.6198 12.1668 76.502 12.2652 76.405 12.3927C76.3108 12.5202 76.2387 12.6698 76.1888 12.8416C76.1389 13.0135 76.114 13.2005 76.114 13.4028C76.114 13.583 76.1362 13.7576 76.1805 13.9266C76.2248 14.0957 76.2927 14.2481 76.3842 14.3839C76.4756 14.5197 76.5893 14.6278 76.7251 14.7081C76.8636 14.7857 77.0258 14.8245 77.2114 14.8245C77.3833 14.8245 77.544 14.7913 77.6936 14.7248C77.8461 14.6555 77.9805 14.5626 78.0969 14.4462C78.216 14.3271 78.3103 14.1927 78.3795 14.043C78.4516 13.8934 78.4932 13.7368 78.5043 13.5733H78.8701C78.8701 13.8033 78.8243 14.0305 78.7329 14.255C78.6442 14.4767 78.5195 14.679 78.3588 14.8619C78.198 15.0448 78.0096 15.1917 77.7934 15.3026C77.5772 15.4107 77.3417 15.4647 77.0867 15.4647C76.7874 15.4647 76.5283 15.4065 76.3094 15.2901C76.0904 15.1737 75.9103 15.0185 75.769 14.8245C75.6304 14.6305 75.5265 14.4144 75.4572 14.176C75.3907 13.9349 75.3574 13.6911 75.3574 13.4444C75.3574 13.1562 75.3976 12.886 75.478 12.6338C75.5583 12.3816 75.6775 12.1599 75.8355 11.9687C75.9934 11.7747 76.1888 11.6236 76.4216 11.5156C76.6572 11.4075 76.9288 11.3534 77.2364 11.3534C77.5828 11.3534 77.8779 11.4227 78.1218 11.5613C78.3657 11.6999 78.5638 11.8855 78.7163 12.1183C78.8715 12.3511 78.9851 12.613 79.0571 12.904C79.1292 13.195 79.1652 13.4943 79.1652 13.8019V14.0804C79.1652 14.3936 79.1444 14.7123 79.1029 15.0365C79.0641 15.358 78.9879 15.6656 78.8742 15.9594C78.7634 16.2531 78.6013 16.5164 78.3879 16.7492C78.1745 16.9792 77.896 17.1621 77.5523 17.2979C77.2114 17.431 76.7902 17.4975 76.2886 17.4975H76.2096V16.8448ZM84.324 15.4522V16.0841H79.9509V15.631L82.6612 11.4366H83.289L82.6155 12.6504L80.8239 15.4522H84.324ZM83.4802 11.4366V17.4892H82.7111V11.4366H83.4802ZM85.7873 16.8448H85.8663C86.3097 16.8448 86.67 16.7825 86.9471 16.6578C87.2242 16.5331 87.4376 16.3654 87.5873 16.1548C87.7369 15.9441 87.8395 15.7072 87.8949 15.4439C87.9503 15.1779 87.978 14.9049 87.978 14.625V13.698C87.978 13.4236 87.9462 13.1797 87.8824 12.9664C87.8215 12.753 87.7355 12.5742 87.6247 12.4301C87.5166 12.286 87.3933 12.1765 87.2547 12.1017C87.1162 12.0269 86.9693 11.9895 86.8141 11.9895C86.6367 11.9895 86.4774 12.0255 86.336 12.0975C86.1975 12.1668 86.0797 12.2652 85.9827 12.3927C85.8885 12.5202 85.8164 12.6698 85.7665 12.8416C85.7166 13.0135 85.6917 13.2005 85.6917 13.4028C85.6917 13.583 85.7139 13.7576 85.7582 13.9266C85.8025 14.0957 85.8704 14.2481 85.9619 14.3839C86.0533 14.5197 86.167 14.6278 86.3028 14.7081C86.4413 14.7857 86.6035 14.8245 86.7891 14.8245C86.961 14.8245 87.1217 14.7913 87.2713 14.7248C87.4238 14.6555 87.5582 14.5626 87.6746 14.4462C87.7937 14.3271 87.888 14.1927 87.9573 14.043C88.0293 13.8934 88.0709 13.7368 88.082 13.5733H88.4478C88.4478 13.8033 88.402 14.0305 88.3106 14.255C88.2219 14.4767 88.0972 14.679 87.9365 14.8619C87.7757 15.0448 87.5873 15.1917 87.3711 15.3026C87.155 15.4107 86.9194 15.4647 86.6644 15.4647C86.3651 15.4647 86.106 15.4065 85.8871 15.2901C85.6681 15.1737 85.488 15.0185 85.3467 14.8245C85.2081 14.6305 85.1042 14.4144 85.0349 14.176C84.9684 13.9349 84.9351 13.6911 84.9351 13.4444C84.9351 13.1562 84.9753 12.886 85.0557 12.6338C85.136 12.3816 85.2552 12.1599 85.4132 11.9687C85.5711 11.7747 85.7665 11.6236 85.9993 11.5156C86.2349 11.4075 86.5065 11.3534 86.8141 11.3534C87.1605 11.3534 87.4556 11.4227 87.6995 11.5613C87.9434 11.6999 88.1415 11.8855 88.294 12.1183C88.4492 12.3511 88.5628 12.613 88.6348 12.904C88.7069 13.195 88.7429 13.4943 88.7429 13.8019V14.0804C88.7429 14.3936 88.7221 14.7123 88.6806 15.0365C88.6418 15.358 88.5656 15.6656 88.4519 15.9594C88.3411 16.2531 88.179 16.5164 87.9656 16.7492C87.7522 16.9792 87.4737 17.1621 87.13 17.2979C86.7891 17.431 86.3679 17.4975 85.8663 17.4975H85.7873V16.8448Z" fill="white"/>
<path d="M82.1251 26.6514L79.2872 23.8136H84.9629L82.1251 26.6514Z" fill="#4B465C"/>
<path d="M26.125 55.2189L28.9628 58.0567H23.2872L26.125 55.2189Z" fill="#4B465C"/>
<rect x="5.125" y="58.0567" width="42" height="17.5946" rx="3.40541" fill="#4B465C"/>
<path d="M19.5777 63.2682V69.354H18.8087V64.2285L17.2581 64.7938V64.0996L19.4572 63.2682H19.5777ZM25.8049 68.7222V69.354H21.8433V68.8011L23.8262 66.5938C24.0701 66.3222 24.2585 66.0922 24.3915 65.9037C24.5273 65.7125 24.6216 65.5421 24.6742 65.3924C24.7296 65.24 24.7574 65.0848 24.7574 64.9268C24.7574 64.7273 24.7158 64.5472 24.6326 64.3864C24.5523 64.2229 24.4331 64.0927 24.2751 63.9957C24.1172 63.8987 23.926 63.8502 23.7015 63.8502C23.4327 63.8502 23.2082 63.9028 23.028 64.0081C22.8507 64.1107 22.7177 64.2548 22.629 64.4405C22.5403 64.6261 22.4959 64.8395 22.4959 65.0806H21.7269C21.7269 64.7398 21.8017 64.428 21.9514 64.1453C22.101 63.8626 22.3227 63.6382 22.6165 63.4719C22.9103 63.3028 23.2719 63.2183 23.7015 63.2183C24.0839 63.2183 24.4109 63.2862 24.6825 63.422C24.9541 63.555 25.162 63.7435 25.3061 63.9873C25.453 64.2285 25.5264 64.5111 25.5264 64.8354C25.5264 65.0127 25.4959 65.1929 25.4349 65.3758C25.3767 65.5559 25.295 65.7361 25.1897 65.9162C25.0871 66.0963 24.9666 66.2737 24.828 66.4483C24.6922 66.6229 24.5467 66.7947 24.3915 66.9638L22.7703 68.7222H25.8049ZM27.3929 68.7097H27.4719C27.9153 68.7097 28.2755 68.6473 28.5527 68.5226C28.8298 68.3979 29.0432 68.2302 29.1929 68.0196C29.3425 67.809 29.445 67.5721 29.5005 67.3088C29.5559 67.0427 29.5836 66.7698 29.5836 66.4899V65.5628C29.5836 65.2885 29.5517 65.0446 29.488 64.8312C29.427 64.6178 29.3411 64.4391 29.2303 64.295C29.1222 64.1509 28.9989 64.0414 28.8603 63.9666C28.7217 63.8917 28.5749 63.8543 28.4197 63.8543C28.2423 63.8543 28.0829 63.8903 27.9416 63.9624C27.803 64.0317 27.6853 64.1301 27.5883 64.2576C27.494 64.385 27.422 64.5347 27.3721 64.7065C27.3222 64.8783 27.2973 65.0654 27.2973 65.2677C27.2973 65.4478 27.3194 65.6224 27.3638 65.7915C27.4081 65.9605 27.476 66.113 27.5675 66.2487C27.6589 66.3845 27.7726 66.4926 27.9083 66.573C28.0469 66.6506 28.209 66.6894 28.3947 66.6894C28.5665 66.6894 28.7273 66.6561 28.8769 66.5896C29.0293 66.5203 29.1638 66.4275 29.2802 66.3111C29.3993 66.1919 29.4935 66.0575 29.5628 65.9079C29.6349 65.7582 29.6765 65.6016 29.6875 65.4381H30.0534C30.0534 65.6682 30.0076 65.8954 29.9162 66.1199C29.8275 66.3416 29.7028 66.5439 29.542 66.7268C29.3813 66.9097 29.1929 67.0566 28.9767 67.1674C28.7605 67.2755 28.525 67.3296 28.27 67.3296C27.9707 67.3296 27.7116 67.2714 27.4926 67.155C27.2737 67.0386 27.0936 66.8834 26.9522 66.6894C26.8137 66.4954 26.7097 66.2792 26.6405 66.0409C26.574 65.7998 26.5407 65.5559 26.5407 65.3093C26.5407 65.0211 26.5809 64.7508 26.6613 64.4987C26.7416 64.2465 26.8608 64.0248 27.0188 63.8335C27.1767 63.6395 27.3721 63.4885 27.6049 63.3804C27.8405 63.2723 28.112 63.2183 28.4197 63.2183C28.7661 63.2183 29.0612 63.2876 29.3051 63.4262C29.549 63.5647 29.7471 63.7504 29.8995 63.9832C30.0547 64.216 30.1684 64.4779 30.2404 64.7689C30.3125 65.0598 30.3485 65.3592 30.3485 65.6668V65.9453C30.3485 66.2584 30.3277 66.5772 30.2861 66.9014C30.2473 67.2229 30.1711 67.5305 30.0575 67.8242C29.9467 68.118 29.7845 68.3813 29.5711 68.6141C29.3578 68.8441 29.0792 69.027 28.7356 69.1628C28.3947 69.2958 27.9735 69.3623 27.4719 69.3623H27.3929V68.7097ZM32.1817 68.7097H32.2607C32.7041 68.7097 33.0644 68.6473 33.3415 68.5226C33.6187 68.3979 33.8321 68.2302 33.9817 68.0196C34.1314 67.809 34.2339 67.5721 34.2893 67.3088C34.3448 67.0427 34.3725 66.7698 34.3725 66.4899V65.5628C34.3725 65.2885 34.3406 65.0446 34.2769 64.8312C34.2159 64.6178 34.13 64.4391 34.0191 64.295C33.911 64.1509 33.7877 64.0414 33.6492 63.9666C33.5106 63.8917 33.3637 63.8543 33.2085 63.8543C33.0311 63.8543 32.8718 63.8903 32.7305 63.9624C32.5919 64.0317 32.4741 64.1301 32.3771 64.2576C32.2829 64.385 32.2108 64.5347 32.1609 64.7065C32.1111 64.8783 32.0861 65.0654 32.0861 65.2677C32.0861 65.4478 32.1083 65.6224 32.1526 65.7915C32.197 65.9605 32.2649 66.113 32.3563 66.2487C32.4478 66.3845 32.5614 66.4926 32.6972 66.573C32.8358 66.6506 32.9979 66.6894 33.1836 66.6894C33.3554 66.6894 33.5161 66.6561 33.6658 66.5896C33.8182 66.5203 33.9526 66.4275 34.069 66.3111C34.1882 66.1919 34.2824 66.0575 34.3517 65.9079C34.4237 65.7582 34.4653 65.6016 34.4764 65.4381H34.8422C34.8422 65.6682 34.7965 65.8954 34.705 66.1199C34.6163 66.3416 34.4916 66.5439 34.3309 66.7268C34.1702 66.9097 33.9817 67.0566 33.7655 67.1674C33.5494 67.2755 33.3138 67.3296 33.0589 67.3296C32.7596 67.3296 32.5004 67.2714 32.2815 67.155C32.0626 67.0386 31.8824 66.8834 31.7411 66.6894C31.6025 66.4954 31.4986 66.2792 31.4293 66.0409C31.3628 65.7998 31.3296 65.5559 31.3296 65.3093C31.3296 65.0211 31.3697 64.7508 31.4501 64.4987C31.5305 64.2465 31.6496 64.0248 31.8076 63.8335C31.9656 63.6395 32.1609 63.4885 32.3937 63.3804C32.6293 63.2723 32.9009 63.2183 33.2085 63.2183C33.5549 63.2183 33.8501 63.2876 34.0939 63.4262C34.3378 63.5647 34.536 63.7504 34.6884 63.9832C34.8436 64.216 34.9572 64.4779 35.0293 64.7689C35.1013 65.0598 35.1374 65.3592 35.1374 65.6668V65.9453C35.1374 66.2584 35.1166 66.5772 35.075 66.9014C35.0362 67.2229 34.96 67.5305 34.8464 67.8242C34.7355 68.118 34.5734 68.3813 34.36 68.6141C34.1466 68.8441 33.8681 69.027 33.5244 69.1628C33.1836 69.2958 32.7623 69.3623 32.2607 69.3623H32.1817V68.7097Z" fill="white"/>
</svg>