 <svg width="89" height="89" viewBox="0 0 89 89" fill="none" xmlns="http://www.w3.org/2000/svg">
<path opacity="0.4" d="M44.9964 3.96176C53.434 4.03841 61.6417 6.72087 68.4961 11.642C75.3504 16.563 80.5164 23.4822 83.2869 31.4524C86.0573 39.4226 86.2968 48.0543 83.9726 56.1658C81.6484 64.2774 76.8741 71.4724 70.3032 76.7661L62.5996 67.2037C67.1993 63.4981 70.5413 58.4616 72.1682 52.7835C73.7951 47.1054 73.6275 41.0633 71.6882 35.4842C69.7489 29.905 66.1327 25.0616 61.3346 21.6168C56.5366 18.1721 50.7912 16.2943 44.8848 16.2407L44.9964 3.96176Z" fill="#7367F0"/>
<path opacity="0.8" d="M16.8087 74.9191C24.0036 81.5841 33.3525 85.4441 43.1538 85.7965C52.9551 86.1489 62.5571 82.9703 70.2121 76.8392L62.5359 67.2549C57.1773 71.5467 50.4559 73.7717 43.595 73.525C36.7341 73.2783 30.1899 70.5763 25.1534 65.9108L16.8087 74.9191Z" fill="#7367F0"/>
<path d="M11.2261 21.2288C5.46636 29.3583 2.86948 39.3095 3.92232 49.2169C4.97516 59.1242 9.60543 68.3074 16.9451 75.0449L25.2489 65.9989C20.1112 61.2826 16.87 54.8544 16.133 47.9192C15.396 40.9841 17.2138 34.0182 21.2457 28.3276L11.2261 21.2288Z" fill="#7367F0"/>
<path d="M38.3606 37.6303V38.7441L33.9366 48.8916H31.7787L36.2028 39.2391H30.4793V37.6303H38.3606ZM45.105 37.5994V48.8916H43.0554V39.9893L40.3406 40.8865V39.2313L44.873 37.5994H45.105ZM48.8407 40.3915V39.796C48.8407 39.368 48.9335 38.9787 49.1192 38.6281C49.3048 38.2774 49.5755 37.9964 49.9313 37.785C50.2922 37.5736 50.7305 37.4679 51.2461 37.4679C51.7721 37.4679 52.2129 37.5736 52.5687 37.785C52.9296 37.9964 53.2003 38.2774 53.3808 38.6281C53.5664 38.9787 53.6592 39.368 53.6592 39.796V40.3915C53.6592 40.8092 53.5664 41.1933 53.3808 41.5439C53.2003 41.8945 52.9322 42.1756 52.5764 42.387C52.2206 42.5984 51.7824 42.7041 51.2616 42.7041C50.7408 42.7041 50.2999 42.5984 49.939 42.387C49.5781 42.1756 49.3048 41.8945 49.1192 41.5439C48.9335 41.1933 48.8407 40.8092 48.8407 40.3915ZM50.2252 39.796V40.3915C50.2252 40.5874 50.2613 40.7731 50.3335 40.9484C50.4108 41.1185 50.5268 41.2578 50.6815 41.366C50.8362 41.4743 51.0296 41.5285 51.2616 41.5285C51.4936 41.5285 51.6818 41.4743 51.8262 41.366C51.9757 41.2578 52.0866 41.1185 52.1588 40.9484C52.2361 40.7731 52.2748 40.5874 52.2748 40.3915V39.796C52.2748 39.5949 52.2361 39.4067 52.1588 39.2313C52.0866 39.056 51.9731 38.9142 51.8185 38.806C51.6689 38.6977 51.4781 38.6435 51.2461 38.6435C51.0192 38.6435 50.8285 38.6977 50.6738 38.806C50.5242 38.9142 50.4108 39.056 50.3335 39.2313C50.2613 39.4067 50.2252 39.5949 50.2252 39.796ZM54.247 46.726V46.1304C54.247 45.7076 54.3399 45.3209 54.5255 44.9703C54.7163 44.6196 54.9921 44.3386 55.3531 44.1272C55.714 43.9158 56.1497 43.8101 56.6602 43.8101C57.1913 43.8101 57.6347 43.9158 57.9905 44.1272C58.3463 44.3386 58.6144 44.6196 58.7949 44.9703C58.9805 45.3209 59.0733 45.7076 59.0733 46.1304V46.726C59.0733 47.1488 58.9805 47.5355 58.7949 47.8861C58.6144 48.2367 58.3463 48.5178 57.9905 48.7292C57.6399 48.9406 57.2042 49.0463 56.6834 49.0463C56.1626 49.0463 55.7192 48.9406 55.3531 48.7292C54.9921 48.5178 54.7163 48.2367 54.5255 47.8861C54.3399 47.5355 54.247 47.1488 54.247 46.726ZM55.6392 46.1304V46.726C55.6392 46.927 55.6805 47.1153 55.763 47.2906C55.8455 47.4607 55.9641 47.5999 56.1188 47.7082C56.2786 47.8165 56.4642 47.8706 56.6756 47.8706C56.9335 47.8706 57.1371 47.8165 57.2867 47.7082C57.4362 47.5999 57.5419 47.4607 57.6038 47.2906C57.6656 47.1153 57.6966 46.927 57.6966 46.726V46.1304C57.6966 45.9293 57.6579 45.7437 57.5806 45.5735C57.5032 45.3982 57.3872 45.2564 57.2325 45.1481C57.083 45.0399 56.8922 44.9857 56.6602 44.9857C56.4333 44.9857 56.2425 45.0399 56.0878 45.1481C55.9383 45.2564 55.8249 45.3982 55.7475 45.5735C55.6753 45.7437 55.6392 45.9293 55.6392 46.1304ZM57.1706 39.2391L51.6715 48.0408L50.6583 47.4762L56.1574 38.6745L57.1706 39.2391Z" fill="#4A4B53"/>
</svg>