<svg width="87" height="90" viewBox="0 0 87 90" fill="none" xmlns="http://www.w3.org/2000/svg">
<path opacity="0.8" d="M16.4152 10.0254C11.5392 14.0407 7.60772 19.081 4.90027 24.7879L11.3326 27.8395C13.5918 23.0776 16.8723 18.8718 20.941 15.5213L16.4152 10.0254Z" fill="#7367F0"/>
<path opacity="0.3" d="M4.02072 26.7693C1.84937 32.0135 0.737757 37.6357 0.749978 43.3117L7.86949 43.2963C7.85929 38.5601 8.78686 33.8688 10.5987 29.4929L4.02072 26.7693Z" fill="#7367F0"/>
<g opacity="0.7">
<mask id="path-3-inside-1_171_1264" fill="white">
<path d="M86.7502 46.2189C86.7502 57.6233 82.2199 68.5605 74.1558 76.6246C66.0917 84.6887 55.1544 89.2191 43.7501 89.2191C32.3457 89.2191 21.4084 84.6887 13.3443 76.6246C5.28024 68.5605 0.74988 57.6233 0.749878 46.2189L43.7501 46.2189H86.7502Z"/>
</mask>
<path d="M86.7502 46.2189C86.7502 57.6233 82.2199 68.5605 74.1558 76.6246C66.0917 84.6887 55.1544 89.2191 43.7501 89.2191C32.3457 89.2191 21.4084 84.6887 13.3443 76.6246C5.28024 68.5605 0.74988 57.6233 0.749878 46.2189L43.7501 46.2189H86.7502Z" fill="#FFE600" stroke="#7367F0" stroke-width="2" mask="url(#path-3-inside-1_171_1264)"/>
</g>
<path d="M33.6775 58.5495C33.6775 58.4082 33.6558 58.2815 33.6123 58.1692C33.5725 58.0533 33.4965 57.9483 33.3842 57.8541C33.2719 57.7564 33.1144 57.6604 32.9116 57.5662C32.7088 57.4721 32.4462 57.3743 32.1239 57.2729C31.7654 57.157 31.425 57.0266 31.1027 56.8818C30.784 56.7369 30.5015 56.5685 30.2553 56.3766C30.0126 56.181 29.8207 55.9547 29.6795 55.6976C29.5418 55.4405 29.473 55.1417 29.473 54.8013C29.473 54.4717 29.5455 54.173 29.6903 53.905C29.8352 53.6334 30.038 53.4016 30.2987 53.2097C30.5595 53.0141 30.8673 52.8638 31.2222 52.7588C31.5807 52.6538 31.9736 52.6013 32.401 52.6013C32.984 52.6013 33.4928 52.7063 33.9274 52.9163C34.362 53.1264 34.6988 53.4143 34.9378 53.78C35.1804 54.1458 35.3017 54.5641 35.3017 55.0349H33.683C33.683 54.8031 33.6341 54.6003 33.5363 54.4265C33.4421 54.249 33.2973 54.1096 33.1017 54.0082C32.9098 53.9068 32.6671 53.8561 32.3738 53.8561C32.0913 53.8561 31.8559 53.8995 31.6676 53.9865C31.4793 54.0697 31.3381 54.1838 31.2439 54.3287C31.1498 54.4699 31.1027 54.6293 31.1027 54.8067C31.1027 54.9407 31.1353 55.062 31.2005 55.1707C31.2693 55.2793 31.3707 55.3807 31.5047 55.4749C31.6387 55.569 31.8034 55.6577 31.999 55.741C32.1945 55.8243 32.4209 55.9058 32.678 55.9855C33.109 56.1159 33.4874 56.2625 33.8133 56.4255C34.1429 56.5885 34.4181 56.7713 34.639 56.9741C34.8599 57.1769 35.0265 57.4069 35.1388 57.664C35.251 57.9211 35.3072 58.2127 35.3072 58.5386C35.3072 58.8826 35.2402 59.1905 35.1062 59.4621C34.9722 59.7337 34.7784 59.9636 34.5249 60.1519C34.2714 60.3403 33.9691 60.4833 33.6178 60.5811C33.2665 60.6789 32.8736 60.7278 32.439 60.7278C32.0479 60.7278 31.6622 60.6771 31.2819 60.5757C30.9017 60.4706 30.5558 60.3131 30.2444 60.1031C29.9366 59.893 29.6903 59.625 29.5056 59.2991C29.3209 58.9732 29.2286 58.5875 29.2286 58.142H30.8637C30.8637 58.3883 30.9017 58.5965 30.9777 58.7667C31.0538 58.937 31.1606 59.0746 31.2982 59.1796C31.4395 59.2846 31.6061 59.3607 31.798 59.4077C31.9936 59.4548 32.2072 59.4784 32.439 59.4784C32.7215 59.4784 32.9532 59.4385 33.1343 59.3589C33.319 59.2792 33.4548 59.1687 33.5417 59.0275C33.6323 58.8863 33.6775 58.7269 33.6775 58.5495ZM38.7457 59.5055C38.9377 59.5055 39.1079 59.4693 39.2563 59.3969C39.4048 59.3208 39.5207 59.2158 39.604 59.0818C39.6909 58.9442 39.7362 58.783 39.7398 58.5983H41.2119C41.2083 59.0112 41.0978 59.3788 40.8806 59.7011C40.6633 60.0198 40.3717 60.2715 40.006 60.4561C39.6402 60.6372 39.231 60.7278 38.7783 60.7278C38.322 60.7278 37.9237 60.6517 37.5832 60.4996C37.2464 60.3475 36.9658 60.1375 36.7413 59.8695C36.5167 59.5979 36.3483 59.2828 36.2361 58.9243C36.1238 58.5621 36.0677 58.1746 36.0677 57.7618V57.6043C36.0677 57.1878 36.1238 56.8003 36.2361 56.4418C36.3483 56.0796 36.5167 55.7646 36.7413 55.4966C36.9658 55.225 37.2464 55.0131 37.5832 54.861C37.92 54.7089 38.3148 54.6329 38.7675 54.6329C39.2491 54.6329 39.671 54.7252 40.0331 54.9099C40.3989 55.0946 40.685 55.359 40.8914 55.703C41.1015 56.0434 41.2083 56.4472 41.2119 56.9144H39.7398C39.7362 56.7188 39.6945 56.5414 39.6149 56.382C39.5388 56.2227 39.4266 56.0959 39.2781 56.0018C39.1332 55.904 38.954 55.8551 38.7403 55.8551C38.5121 55.8551 38.3256 55.904 38.1808 56.0018C38.0359 56.0959 37.9237 56.2263 37.844 56.3929C37.7643 56.5559 37.7082 56.7424 37.6756 56.9524C37.6466 57.1588 37.6321 57.3761 37.6321 57.6043V57.7618C37.6321 57.9899 37.6466 58.209 37.6756 58.4191C37.7046 58.6291 37.7589 58.8156 37.8386 58.9786C37.9218 59.1416 38.0359 59.2701 38.1808 59.3643C38.3256 59.4584 38.514 59.5055 38.7457 59.5055ZM41.8692 57.7401V57.626C41.8692 57.195 41.9308 56.7985 42.0539 56.4364C42.177 56.0706 42.3563 55.7537 42.5917 55.4857C42.8271 55.2177 43.1168 55.0095 43.4608 54.861C43.8049 54.7089 44.1996 54.6329 44.645 54.6329C45.0905 54.6329 45.487 54.7089 45.8347 54.861C46.1823 55.0095 46.4739 55.2177 46.7093 55.4857C46.9483 55.7537 47.1293 56.0706 47.2525 56.4364C47.3756 56.7985 47.4372 57.195 47.4372 57.626V57.7401C47.4372 58.1674 47.3756 58.5639 47.2525 58.9297C47.1293 59.2919 46.9483 59.6087 46.7093 59.8803C46.4739 60.1483 46.1841 60.3566 45.8401 60.505C45.4961 60.6535 45.1013 60.7278 44.6559 60.7278C44.2105 60.7278 43.8139 60.6535 43.4663 60.505C43.1222 60.3566 42.8307 60.1483 42.5917 59.8803C42.3563 59.6087 42.177 59.2919 42.0539 58.9297C41.9308 58.5639 41.8692 58.1674 41.8692 57.7401ZM43.4337 57.626V57.7401C43.4337 57.9863 43.4554 58.2163 43.4989 58.43C43.5423 58.6436 43.6111 58.8319 43.7053 58.9949C43.8031 59.1542 43.9298 59.2792 44.0855 59.3697C44.2412 59.4603 44.4314 59.5055 44.6559 59.5055C44.8732 59.5055 45.0597 59.4603 45.2154 59.3697C45.3711 59.2792 45.4961 59.1542 45.5902 58.9949C45.6844 58.8319 45.7532 58.6436 45.7967 58.43C45.8437 58.2163 45.8673 57.9863 45.8673 57.7401V57.626C45.8673 57.387 45.8437 57.1625 45.7967 56.9524C45.7532 56.7387 45.6826 56.5504 45.5848 56.3875C45.4906 56.2209 45.3657 56.0905 45.21 55.9963C45.0543 55.9022 44.8659 55.8551 44.645 55.8551C44.4241 55.8551 44.2358 55.9022 44.0801 55.9963C43.928 56.0905 43.8031 56.2209 43.7053 56.3875C43.6111 56.5504 43.5423 56.7387 43.4989 56.9524C43.4554 57.1625 43.4337 57.387 43.4337 57.626ZM49.9631 56.0235V60.6191H48.3987V54.7415H49.8708L49.9631 56.0235ZM51.734 54.7035L51.7068 56.1539C51.6308 56.143 51.5384 56.134 51.4298 56.1267C51.3248 56.1159 51.2288 56.1104 51.1419 56.1104C50.921 56.1104 50.729 56.1394 50.5661 56.1973C50.4067 56.2517 50.2727 56.3331 50.1641 56.4418C50.0591 56.5504 49.9794 56.6826 49.9251 56.8383C49.8744 56.9941 49.8454 57.1715 49.8382 57.3707L49.5231 57.2729C49.5231 56.8927 49.5611 56.5432 49.6372 56.2245C49.7132 55.9022 49.8237 55.6215 49.9685 55.3825C50.117 55.1435 50.2981 54.9588 50.5118 54.8284C50.7254 54.6981 50.9699 54.6329 51.2451 54.6329C51.332 54.6329 51.4207 54.6401 51.5113 54.6546C51.6018 54.6655 51.6761 54.6818 51.734 54.7035ZM55.0693 60.7278C54.613 60.7278 54.2038 60.6553 53.8417 60.5105C53.4795 60.362 53.1717 60.1574 52.9182 59.8966C52.6683 59.6359 52.4764 59.3335 52.3424 58.9895C52.2084 58.6418 52.1414 58.2724 52.1414 57.8813V57.664C52.1414 57.2186 52.2048 56.8112 52.3315 56.4418C52.4583 56.0724 52.6394 55.7519 52.8747 55.4803C53.1138 55.2087 53.4035 55.0005 53.7439 54.8556C54.0843 54.7071 54.4682 54.6329 54.8955 54.6329C55.312 54.6329 55.6814 54.7017 56.0037 54.8393C56.326 54.9769 56.5958 55.1725 56.8131 55.426C57.034 55.6795 57.2006 55.9837 57.3128 56.3386C57.4251 56.6899 57.4812 57.081 57.4812 57.5119V58.1638H52.8096V57.1208H55.9439V57.0013C55.9439 56.784 55.9041 56.5903 55.8244 56.4201C55.7484 56.2462 55.6325 56.1086 55.4767 56.0072C55.321 55.9058 55.1218 55.8551 54.8792 55.8551C54.6728 55.8551 54.4953 55.9004 54.3469 55.9909C54.1984 56.0815 54.0771 56.2082 53.9829 56.3712C53.8924 56.5341 53.8236 56.7261 53.7765 56.947C53.733 57.1643 53.7113 57.4033 53.7113 57.664V57.8813C53.7113 58.1167 53.7439 58.334 53.8091 58.5332C53.8779 58.7323 53.9739 58.9044 54.097 59.0492C54.2237 59.1941 54.3758 59.3063 54.5533 59.386C54.7344 59.4657 54.939 59.5055 55.1671 59.5055C55.4496 59.5055 55.7121 59.4512 55.9548 59.3426C56.201 59.2303 56.4129 59.0619 56.5903 58.8374L57.3508 59.6631C57.2277 59.8405 57.0593 60.0107 56.8456 60.1737C56.6356 60.3366 56.3821 60.4706 56.0851 60.5757C55.7882 60.6771 55.4496 60.7278 55.0693 60.7278ZM41.049 68.6936V76.6191H39.4845V70.4971L37.605 71.0946V69.8615L40.8806 68.6936H41.049ZM43.765 75.864C43.765 75.6323 43.8447 75.4385 44.004 75.2828C44.167 75.1271 44.3825 75.0492 44.6505 75.0492C44.9185 75.0492 45.1321 75.1271 45.2915 75.2828C45.4544 75.4385 45.5359 75.6323 45.5359 75.864C45.5359 76.0958 45.4544 76.2896 45.2915 76.4453C45.1321 76.601 44.9185 76.6789 44.6505 76.6789C44.3825 76.6789 44.167 76.601 44.004 76.4453C43.8447 76.2896 43.765 76.0958 43.765 75.864ZM48.453 71.9855H49.2895C49.5575 71.9855 49.7784 71.9402 49.9523 71.8497C50.1261 71.7555 50.2546 71.6252 50.3379 71.4586C50.4248 71.2884 50.4683 71.091 50.4683 70.8665C50.4683 70.6637 50.4285 70.4844 50.3488 70.3287C50.2727 70.1693 50.1551 70.0462 49.9957 69.9593C49.8364 69.8688 49.6354 69.8235 49.3927 69.8235C49.2008 69.8235 49.0234 69.8615 48.8604 69.9376C48.6974 70.0136 48.5671 70.1204 48.4693 70.2581C48.3715 70.3957 48.3226 70.5623 48.3226 70.7578H46.7527C46.7527 70.3232 46.8686 69.9448 47.1004 69.6225C47.3358 69.3002 47.6508 69.0485 48.0456 68.8674C48.4403 68.6864 48.8749 68.5958 49.3493 68.5958C49.8853 68.5958 50.3542 68.6827 50.7562 68.8566C51.1582 69.0268 51.4714 69.2785 51.696 69.6116C51.9205 69.9448 52.0328 70.3577 52.0328 70.8502C52.0328 71.1 51.9748 71.3427 51.8589 71.5781C51.7431 71.8098 51.5765 72.0199 51.3592 72.2082C51.1455 72.3929 50.8848 72.5414 50.5769 72.6536C50.2691 72.7623 49.9233 72.8166 49.5394 72.8166H48.453V71.9855ZM48.453 73.1751V72.3657H49.5394C49.9704 72.3657 50.3488 72.4146 50.6747 72.5124C51.0007 72.6102 51.2741 72.7514 51.495 72.9361C51.7159 73.1172 51.8825 73.3327 51.9947 73.5825C52.107 73.8288 52.1631 74.1022 52.1631 74.4028C52.1631 74.7722 52.0925 75.1017 51.9513 75.3914C51.81 75.6775 51.6109 75.9202 51.3537 76.1194C51.1002 76.3185 50.8033 76.4706 50.4629 76.5757C50.1225 76.6771 49.7513 76.7278 49.3493 76.7278C49.0161 76.7278 48.6884 76.6825 48.3661 76.5919C48.0474 76.4978 47.7577 76.3584 47.4969 76.1737C47.2398 75.9854 47.0334 75.75 46.8777 75.4675C46.7256 75.1814 46.6495 74.8428 46.6495 74.4517H48.2194C48.2194 74.6545 48.2701 74.8356 48.3715 74.9949C48.4729 75.1542 48.6123 75.2792 48.7898 75.3697C48.9708 75.4603 49.1718 75.5055 49.3927 75.5055C49.6426 75.5055 49.8563 75.4603 50.0337 75.3697C50.2148 75.2756 50.3524 75.1452 50.4466 74.9786C50.5444 74.8084 50.5932 74.611 50.5932 74.3865C50.5932 74.0968 50.5407 73.865 50.4357 73.6912C50.3307 73.5137 50.1804 73.3834 49.9848 73.3001C49.7893 73.2168 49.5575 73.1751 49.2895 73.1751H48.453Z" fill="#4B465C"/>
<circle cx="43.7944" cy="38.4992" r="3.98647" transform="rotate(-59.7028 43.7944 38.4992)" fill="#DBDADE"/>
<circle cx="42.4166" cy="37.6953" r="1.59459" transform="rotate(-59.7028 42.4166 37.6953)" fill="#363740"/>
<path d="M27.9602 29.2489L42.597 36.2016L41.2036 38.5863L27.9602 29.2489Z" fill="#363740"/>
</svg>
