<svg
                width="379"
                height="199"
                viewBox="0 0 379 199"
                fill="none"
                xmlns="http://www.w3.org/2000/svg"
              >
                <path
                  d="M0 49.6052H377.862"
                  stroke="#DBDADE"
                  stroke-width="0.647493"
                  stroke-dasharray="1.94 3.88"
                />
                <path
                  d="M0 0.987061H377.862"
                  stroke="#DBDADE"
                  stroke-width="0.647493"
                  stroke-dasharray="1.94 3.88"
                />
                <path
                  d="M0 98.2224H377.862"
                  stroke="#DBDADE"
                  stroke-width="0.647493"
                  stroke-dasharray="1.94 3.88"
                />
                <path
                  d="M0 146.841L379 147.058"
                  stroke="#DBDADE"
                  stroke-width="0.647493"
                />
                <path
                  opacity="0.5"
                  d="M10.634 162.367C10.634 161.55 10.7669 160.914 11.0328 160.458C11.2987 159.997 11.7641 159.767 12.4288 159.767C13.0888 159.767 13.5518 159.997 13.8177 160.458C14.0836 160.914 14.2165 161.55 14.2165 162.367C14.2165 163.198 14.0836 163.843 13.8177 164.304C13.5518 164.765 13.0888 164.995 12.4288 164.995C11.7641 164.995 11.2987 164.765 11.0328 164.304C10.7669 163.843 10.634 163.198 10.634 162.367ZM13.5755 162.367C13.5755 161.954 13.547 161.605 13.4901 161.32C13.4378 161.03 13.3262 160.797 13.1553 160.622C12.9891 160.446 12.747 160.358 12.4288 160.358C12.1059 160.358 11.859 160.446 11.6881 160.622C11.5219 160.797 11.4103 161.03 11.3533 161.32C11.3011 161.605 11.275 161.954 11.275 162.367C11.275 162.794 11.3011 163.153 11.3533 163.442C11.4103 163.732 11.5219 163.964 11.6881 164.14C11.859 164.316 12.1059 164.404 12.4288 164.404C12.747 164.404 12.9891 164.316 13.1553 164.14C13.3262 163.964 13.4378 163.732 13.4901 163.442C13.547 163.153 13.5755 162.794 13.5755 162.367ZM15.2592 160.437V159.845H16.5982V164.995H15.9429V160.437H15.2592Z"
                  fill="#6F6B7D"
                />
                <path
                  d="M5.89526 37.45H11.7908V146.84H5.89526V37.45Z"
                  fill="#7367F0"
                />
                <path
                  d="M16.2108 86.0681H22.1063V146.841H16.2108V86.0681Z"
                  fill="#FFE600"
                />
                <path
                  opacity="0.5"
                  d="M266.517 162.367C266.517 161.55 266.65 160.914 266.916 160.458C267.182 159.997 267.647 159.767 268.312 159.767C268.972 159.767 269.435 159.997 269.701 160.458C269.967 160.914 270.1 161.55 270.1 162.367C270.1 163.198 269.967 163.843 269.701 164.304C269.435 164.765 268.972 164.995 268.312 164.995C267.647 164.995 267.182 164.765 266.916 164.304C266.65 163.843 266.517 163.198 266.517 162.367ZM269.459 162.367C269.459 161.954 269.43 161.605 269.373 161.32C269.321 161.03 269.21 160.797 269.039 160.622C268.872 160.446 268.63 160.358 268.312 160.358C267.989 160.358 267.742 160.446 267.571 160.622C267.405 160.797 267.294 161.03 267.237 161.32C267.184 161.605 267.158 161.954 267.158 162.367C267.158 162.794 267.184 163.153 267.237 163.442C267.294 163.732 267.405 163.964 267.571 164.14C267.742 164.316 267.989 164.404 268.312 164.404C268.63 164.404 268.872 164.316 269.039 164.14C269.21 163.964 269.321 163.732 269.373 163.442C269.43 163.153 269.459 162.794 269.459 162.367ZM274.483 160.351L272.503 164.995H271.848L273.856 160.415H271.107V159.86H274.483V160.351Z"
                  fill="#6F6B7D"
                />
                <path
                  d="M262.348 37.45H268.244V146.84H262.348V37.45Z"
                  fill="#7367F0"
                />
                <path
                  d="M272.664 86.0681H278.56V146.841H272.664V86.0681Z"
                  fill="#FFE600"
                />
                <path
                  opacity="0.5"
                  d="M52.7012 162.368C52.7012 161.551 52.8342 160.915 53.1001 160.459C53.366 159.998 53.8313 159.768 54.4961 159.768C55.1561 159.768 55.619 159.998 55.885 160.459C56.1509 160.915 56.2838 161.551 56.2838 162.368C56.2838 163.199 56.1509 163.844 55.885 164.305C55.619 164.766 55.1561 164.996 54.4961 164.996C53.8313 164.996 53.366 164.766 53.1001 164.305C52.8342 163.844 52.7012 163.199 52.7012 162.368ZM55.6428 162.368C55.6428 161.955 55.6143 161.606 55.5573 161.321C55.5051 161.031 55.3935 160.798 55.2226 160.623C55.0564 160.447 54.8142 160.359 54.4961 160.359C54.1732 160.359 53.9263 160.447 53.7553 160.623C53.5892 160.798 53.4776 161.031 53.4206 161.321C53.3684 161.606 53.3422 161.955 53.3422 162.368C53.3422 162.795 53.3684 163.154 53.4206 163.443C53.4776 163.733 53.5892 163.965 53.7553 164.141C53.9263 164.317 54.1732 164.405 54.4961 164.405C54.8142 164.405 55.0564 164.317 55.2226 164.141C55.3935 163.965 55.5051 163.733 55.5573 163.443C55.6143 163.154 55.6428 162.795 55.6428 162.368ZM57.419 164.476C58.022 163.992 58.4945 163.595 58.8364 163.286C59.1782 162.973 59.4655 162.648 59.6982 162.311C59.9356 161.969 60.0543 161.634 60.0543 161.306C60.0543 160.998 59.9783 160.756 59.8264 160.58C59.6792 160.4 59.4394 160.309 59.107 160.309C58.7841 160.309 58.5325 160.411 58.352 160.616C58.1764 160.815 58.0814 161.083 58.0671 161.42H57.4404C57.4594 160.889 57.6208 160.478 57.9247 160.188C58.2286 159.899 58.6203 159.754 59.0999 159.754C59.589 159.754 59.976 159.889 60.2609 160.16C60.5505 160.43 60.6953 160.803 60.6953 161.278C60.6953 161.672 60.5766 162.057 60.3392 162.432C60.1065 162.802 59.8406 163.13 59.5415 163.415C59.2423 163.695 58.8601 164.022 58.3948 164.398H60.8449V164.939H57.419V164.476Z"
                  fill="#6F6B7D"
                />
                <path
                  d="M48.6367 61.7595H54.5322V146.841H48.6367V61.7595Z"
                  fill="#7367F0"
                />
                <path
                  d="M58.9543 37.4509H64.8498V146.841H58.9543V37.4509Z"
                  fill="#FFE600"
                />
                <path
                  opacity="0.5"
                  d="M308.389 162.367C308.389 161.55 308.522 160.914 308.788 160.458C309.053 159.997 309.519 159.767 310.184 159.767C310.844 159.767 311.307 159.997 311.572 160.458C311.838 160.914 311.971 161.55 311.971 162.367C311.971 163.198 311.838 163.843 311.572 164.304C311.307 164.765 310.844 164.995 310.184 164.995C309.519 164.995 309.053 164.765 308.788 164.304C308.522 163.843 308.389 163.198 308.389 162.367ZM311.33 162.367C311.33 161.954 311.302 161.605 311.245 161.32C311.193 161.03 311.081 160.797 310.91 160.622C310.744 160.446 310.502 160.358 310.184 160.358C309.861 160.358 309.614 160.446 309.443 160.622C309.277 160.797 309.165 161.03 309.108 161.32C309.056 161.605 309.03 161.954 309.03 162.367C309.03 162.794 309.056 163.153 309.108 163.442C309.165 163.732 309.277 163.964 309.443 164.14C309.614 164.316 309.861 164.404 310.184 164.404C310.502 164.404 310.744 164.316 310.91 164.14C311.081 163.964 311.193 163.732 311.245 163.442C311.302 163.153 311.33 162.794 311.33 162.367ZM314.125 162.317C313.859 162.212 313.655 162.06 313.512 161.861C313.37 161.662 313.299 161.419 313.299 161.135C313.299 160.878 313.363 160.648 313.491 160.444C313.619 160.235 313.809 160.071 314.061 159.952C314.317 159.829 314.626 159.767 314.987 159.767C315.348 159.767 315.654 159.829 315.906 159.952C316.162 160.071 316.354 160.235 316.483 160.444C316.615 160.648 316.682 160.878 316.682 161.135C316.682 161.41 316.608 161.652 316.461 161.861C316.314 162.065 316.112 162.217 315.856 162.317C316.15 162.407 316.383 162.566 316.554 162.794C316.729 163.017 316.817 163.288 316.817 163.606C316.817 163.915 316.741 164.185 316.589 164.418C316.437 164.646 316.221 164.824 315.941 164.952C315.666 165.076 315.348 165.137 314.987 165.137C314.626 165.137 314.308 165.076 314.032 164.952C313.762 164.824 313.55 164.646 313.399 164.418C313.247 164.185 313.171 163.915 313.171 163.606C313.171 163.288 313.256 163.015 313.427 162.787C313.598 162.559 313.831 162.402 314.125 162.317ZM316.055 161.213C316.055 160.923 315.96 160.7 315.77 160.543C315.58 160.387 315.319 160.308 314.987 160.308C314.659 160.308 314.4 160.387 314.21 160.543C314.021 160.7 313.926 160.926 313.926 161.22C313.926 161.486 314.023 161.7 314.218 161.861C314.417 162.022 314.673 162.103 314.987 162.103C315.305 162.103 315.561 162.022 315.756 161.861C315.955 161.695 316.055 161.479 316.055 161.213ZM314.987 162.602C314.635 162.602 314.348 162.685 314.125 162.851C313.902 163.012 313.79 163.257 313.79 163.585C313.79 163.889 313.897 164.133 314.111 164.318C314.329 164.503 314.621 164.596 314.987 164.596C315.352 164.596 315.642 164.503 315.856 164.318C316.069 164.133 316.176 163.889 316.176 163.585C316.176 163.266 316.067 163.024 315.849 162.858C315.63 162.687 315.343 162.602 314.987 162.602Z"
                  fill="#6F6B7D"
                />
                <path
                  d="M305.092 61.7595H310.988V146.841H305.092V61.7595Z"
                  fill="#7367F0"
                />
                <path
                  d="M315.408 37.45H321.304V146.84H315.408V37.45Z"
                  fill="#FFE600"
                />
                <path
                  opacity="0.5"
                  d="M95.395 162.368C95.395 161.551 95.5279 160.915 95.7938 160.459C96.0597 159.998 96.5251 159.768 97.1898 159.768C97.8498 159.768 98.3128 159.998 98.5787 160.459C98.8446 160.915 98.9776 161.551 98.9776 162.368C98.9776 163.199 98.8446 163.844 98.5787 164.305C98.3128 164.766 97.8498 164.996 97.1898 164.996C96.5251 164.996 96.0597 164.766 95.7938 164.305C95.5279 163.844 95.395 163.199 95.395 162.368ZM98.3365 162.368C98.3365 161.955 98.308 161.606 98.2511 161.321C98.1988 161.031 98.0872 160.798 97.9163 160.623C97.7501 160.447 97.508 160.359 97.1898 160.359C96.8669 160.359 96.62 160.447 96.4491 160.623C96.2829 160.798 96.1713 161.031 96.1143 161.321C96.0621 161.606 96.036 161.955 96.036 162.368C96.036 162.795 96.0621 163.154 96.1143 163.443C96.1713 163.733 96.2829 163.965 96.4491 164.141C96.62 164.317 96.8669 164.405 97.1898 164.405C97.508 164.405 97.7501 164.317 97.9163 164.141C98.0872 163.965 98.1988 163.733 98.2511 163.443C98.308 163.154 98.3365 162.795 98.3365 162.368ZM100.177 161.143C100.21 160.706 100.379 160.364 100.683 160.117C100.986 159.87 101.381 159.747 101.865 159.747C102.188 159.747 102.466 159.806 102.698 159.925C102.936 160.039 103.114 160.195 103.232 160.395C103.356 160.594 103.418 160.82 103.418 161.071C103.418 161.366 103.332 161.62 103.161 161.833C102.995 162.047 102.777 162.185 102.506 162.247V162.282C102.815 162.358 103.059 162.508 103.239 162.731C103.42 162.954 103.51 163.246 103.51 163.607C103.51 163.878 103.448 164.122 103.325 164.341C103.202 164.554 103.016 164.723 102.769 164.846C102.523 164.97 102.226 165.031 101.879 165.031C101.376 165.031 100.963 164.901 100.64 164.64C100.317 164.374 100.136 163.999 100.099 163.514H100.725C100.759 163.799 100.875 164.032 101.074 164.212C101.274 164.393 101.54 164.483 101.872 164.483C102.204 164.483 102.456 164.398 102.627 164.227C102.803 164.051 102.89 163.825 102.89 163.55C102.89 163.194 102.772 162.937 102.534 162.781C102.297 162.624 101.938 162.546 101.459 162.546H101.295V162.004H101.466C101.903 162 102.233 161.928 102.456 161.791C102.679 161.648 102.791 161.43 102.791 161.135C102.791 160.884 102.708 160.682 102.541 160.53C102.38 160.378 102.147 160.302 101.844 160.302C101.549 160.302 101.312 160.378 101.131 160.53C100.951 160.682 100.844 160.886 100.811 161.143H100.177Z"
                  fill="#6F6B7D"
                />
                <path
                  d="M91.3792 49.6052H97.2746V146.841H91.3792V49.6052Z"
                  fill="#7367F0"
                />
                <path
                  d="M101.695 98.2234H107.591V146.841H101.695V98.2234Z"
                  fill="#FFE600"
                />
                <path
                  opacity="0.5"
                  d="M351.136 162.368C351.136 161.551 351.269 160.915 351.535 160.459C351.801 159.998 352.266 159.768 352.931 159.768C353.591 159.768 354.054 159.998 354.32 160.459C354.585 160.915 354.718 161.551 354.718 162.368C354.718 163.199 354.585 163.844 354.32 164.305C354.054 164.766 353.591 164.996 352.931 164.996C352.266 164.996 351.801 164.766 351.535 164.305C351.269 163.844 351.136 163.199 351.136 162.368ZM354.077 162.368C354.077 161.955 354.049 161.606 353.992 161.321C353.94 161.031 353.828 160.798 353.657 160.623C353.491 160.447 353.249 160.359 352.931 160.359C352.608 160.359 352.361 160.447 352.19 160.623C352.024 160.798 351.912 161.031 351.855 161.321C351.803 161.606 351.777 161.955 351.777 162.368C351.777 162.795 351.803 163.154 351.855 163.443C351.912 163.733 352.024 163.965 352.19 164.141C352.361 164.317 352.608 164.405 352.931 164.405C353.249 164.405 353.491 164.317 353.657 164.141C353.828 163.965 353.94 163.733 353.992 163.443C354.049 163.154 354.077 162.795 354.077 162.368ZM356.765 163.614C356.813 163.885 356.922 164.094 357.093 164.241C357.269 164.388 357.504 164.462 357.798 164.462C358.192 164.462 358.482 164.307 358.667 163.999C358.857 163.69 358.947 163.17 358.938 162.439C358.838 162.653 358.672 162.821 358.439 162.945C358.206 163.063 357.948 163.123 357.663 163.123C357.345 163.123 357.06 163.059 356.808 162.93C356.561 162.797 356.366 162.605 356.224 162.353C356.082 162.102 356.01 161.798 356.01 161.442C356.01 160.934 356.158 160.525 356.452 160.217C356.746 159.903 357.164 159.747 357.705 159.747C358.37 159.747 358.836 159.963 359.101 160.395C359.372 160.827 359.507 161.47 359.507 162.325C359.507 162.923 359.453 163.417 359.344 163.806C359.239 164.196 359.059 164.493 358.802 164.697C358.551 164.901 358.204 165.003 357.762 165.003C357.278 165.003 356.901 164.872 356.63 164.611C356.359 164.35 356.205 164.018 356.167 163.614H356.765ZM357.77 162.574C358.088 162.574 358.349 162.477 358.553 162.282C358.757 162.083 358.859 161.815 358.859 161.477C358.859 161.121 358.76 160.834 358.56 160.616C358.361 160.397 358.081 160.288 357.72 160.288C357.387 160.288 357.121 160.392 356.922 160.601C356.727 160.81 356.63 161.086 356.63 161.428C356.63 161.774 356.727 162.052 356.922 162.261C357.117 162.47 357.399 162.574 357.77 162.574Z"
                  fill="#6F6B7D"
                />
                <path
                  d="M347.834 49.6052H353.729V146.841H347.834V49.6052Z"
                  fill="#7367F0"
                />
                <path
                  d="M358.152 98.2234H364.047V146.841H358.152V98.2234Z"
                  fill="#FFE600"
                />
                <path
                  opacity="0.5"
                  d="M137.426 162.368C137.426 161.551 137.559 160.915 137.825 160.459C138.09 159.998 138.556 159.768 139.221 159.768C139.881 159.768 140.344 159.998 140.609 160.459C140.875 160.915 141.008 161.551 141.008 162.368C141.008 163.199 140.875 163.844 140.609 164.305C140.344 164.766 139.881 164.996 139.221 164.996C138.556 164.996 138.09 164.766 137.825 164.305C137.559 163.844 137.426 163.199 137.426 162.368ZM140.367 162.368C140.367 161.955 140.339 161.606 140.282 161.321C140.23 161.031 140.118 160.798 139.947 160.623C139.781 160.447 139.539 160.359 139.221 160.359C138.898 160.359 138.651 160.447 138.48 160.623C138.314 160.798 138.202 161.031 138.145 161.321C138.093 161.606 138.067 161.955 138.067 162.368C138.067 162.795 138.093 163.154 138.145 163.443C138.202 163.733 138.314 163.965 138.48 164.141C138.651 164.317 138.898 164.405 139.221 164.405C139.539 164.405 139.781 164.317 139.947 164.141C140.118 163.965 140.23 163.733 140.282 163.443C140.339 163.154 140.367 162.795 140.367 162.368ZM142.065 163.849V163.358L144.565 159.896H145.341V163.286H146.054V163.849H145.341V164.996H144.7V163.849H142.065ZM144.729 160.573L142.813 163.286H144.729V160.573Z"
                  fill="#6F6B7D"
                />
                <path
                  d="M134.123 73.9148H140.018V146.842H134.123V73.9148Z"
                  fill="#7367F0"
                />
                <path
                  d="M144.438 49.6052H150.334V146.841H144.438V49.6052Z"
                  fill="#FFE600"
                />
                <path
                  opacity="0.5"
                  d="M180.172 162.367C180.172 161.55 180.305 160.914 180.571 160.458C180.837 159.997 181.302 159.767 181.967 159.767C182.627 159.767 183.09 159.997 183.356 160.458C183.621 160.914 183.754 161.55 183.754 162.367C183.754 163.198 183.621 163.843 183.356 164.304C183.09 164.765 182.627 164.995 181.967 164.995C181.302 164.995 180.837 164.765 180.571 164.304C180.305 163.843 180.172 163.198 180.172 162.367ZM183.113 162.367C183.113 161.954 183.085 161.605 183.028 161.32C182.976 161.03 182.864 160.797 182.693 160.622C182.527 160.446 182.285 160.358 181.967 160.358C181.644 160.358 181.397 160.446 181.226 160.622C181.06 160.797 180.948 161.03 180.891 161.32C180.839 161.605 180.813 161.954 180.813 162.367C180.813 162.794 180.839 163.153 180.891 163.442C180.948 163.732 181.06 163.964 181.226 164.14C181.397 164.316 181.644 164.404 181.967 164.404C182.285 164.404 182.527 164.316 182.693 164.14C182.864 163.964 182.976 163.732 183.028 163.442C183.085 163.153 183.113 162.794 183.113 162.367ZM188.251 160.408H185.751V162.032C185.861 161.88 186.022 161.757 186.236 161.662C186.449 161.562 186.68 161.512 186.927 161.512C187.321 161.512 187.641 161.595 187.888 161.761C188.135 161.923 188.311 162.134 188.415 162.395C188.524 162.652 188.579 162.925 188.579 163.214C188.579 163.556 188.515 163.862 188.387 164.133C188.259 164.404 188.061 164.617 187.796 164.774C187.534 164.931 187.209 165.009 186.82 165.009C186.321 165.009 185.918 164.881 185.609 164.625C185.3 164.368 185.113 164.026 185.046 163.599H185.68C185.742 163.87 185.873 164.081 186.072 164.233C186.271 164.385 186.523 164.461 186.827 164.461C187.202 164.461 187.485 164.349 187.675 164.126C187.864 163.898 187.959 163.599 187.959 163.229C187.959 162.858 187.864 162.573 187.675 162.374C187.485 162.17 187.204 162.068 186.834 162.068C186.582 162.068 186.362 162.129 186.172 162.253C185.986 162.371 185.851 162.535 185.766 162.744H185.153V159.838H188.251V160.408Z"
                  fill="#6F6B7D"
                />
                <path
                  d="M176.865 25.2957H182.76V146.841H176.865V25.2957Z"
                  fill="#7367F0"
                />
                <path
                  d="M187.181 61.7595H193.076V146.841H187.181V61.7595Z"
                  fill="#FFE600"
                />
                <path
                  opacity="0.5"
                  d="M222.889 162.368C222.889 161.551 223.022 160.915 223.288 160.459C223.554 159.998 224.019 159.768 224.684 159.768C225.344 159.768 225.807 159.998 226.073 160.459C226.339 160.915 226.472 161.551 226.472 162.368C226.472 163.199 226.339 163.844 226.073 164.305C225.807 164.766 225.344 164.996 224.684 164.996C224.019 164.996 223.554 164.766 223.288 164.305C223.022 163.844 222.889 163.199 222.889 162.368ZM225.831 162.368C225.831 161.955 225.802 161.606 225.745 161.321C225.693 161.031 225.581 160.798 225.411 160.623C225.244 160.447 225.002 160.359 224.684 160.359C224.361 160.359 224.114 160.447 223.943 160.623C223.777 160.798 223.666 161.031 223.609 161.321C223.556 161.606 223.53 161.955 223.53 162.368C223.53 162.795 223.556 163.154 223.609 163.443C223.666 163.733 223.777 163.965 223.943 164.141C224.114 164.317 224.361 164.405 224.684 164.405C225.002 164.405 225.244 164.317 225.411 164.141C225.581 163.965 225.693 163.733 225.745 163.443C225.802 163.154 225.831 162.795 225.831 162.368ZM230.556 161.071C230.451 160.544 230.126 160.281 229.58 160.281C229.157 160.281 228.842 160.445 228.633 160.772C228.424 161.095 228.322 161.629 228.326 162.375C228.436 162.128 228.616 161.936 228.868 161.798C229.124 161.655 229.409 161.584 229.722 161.584C230.211 161.584 230.601 161.736 230.89 162.04C231.185 162.344 231.332 162.764 231.332 163.301C231.332 163.624 231.268 163.913 231.14 164.17C231.016 164.426 230.826 164.63 230.57 164.782C230.318 164.934 230.012 165.01 229.651 165.01C229.162 165.01 228.78 164.901 228.504 164.682C228.229 164.464 228.037 164.163 227.927 163.778C227.818 163.393 227.764 162.918 227.764 162.353C227.764 160.611 228.371 159.74 229.587 159.74C230.052 159.74 230.418 159.865 230.684 160.117C230.95 160.369 231.106 160.687 231.154 161.071H230.556ZM229.587 162.133C229.383 162.133 229.191 162.175 229.01 162.261C228.83 162.342 228.682 162.467 228.569 162.638C228.459 162.805 228.405 163.009 228.405 163.251C228.405 163.612 228.509 163.906 228.718 164.134C228.927 164.357 229.226 164.469 229.616 164.469C229.948 164.469 230.211 164.367 230.406 164.163C230.606 163.954 230.705 163.673 230.705 163.322C230.705 162.952 230.61 162.662 230.42 162.453C230.23 162.239 229.953 162.133 229.587 162.133Z"
                  fill="#6F6B7D"
                />
                <path
                  d="M219.607 13.1414H225.502V146.841H219.607V13.1414Z"
                  fill="#7367F0"
                />
                <path
                  d="M229.922 86.0681H235.818V146.841H229.922V86.0681Z"
                  fill="#FFE600"
                />
                <circle cx="4.5" cy="192.513" r="4.5" fill="#7367F0" />
                <path
                  opacity="0.7"
                  d="M21.1426 187.482V196.013H20.0293V187.482H21.1426ZM23.8848 187.482V188.407H17.293V187.482H23.8848ZM26.5703 187.013V196.013H25.4863V187.013H26.5703ZM26.3125 192.603L25.8613 192.585C25.8652 192.152 25.9297 191.751 26.0547 191.384C26.1797 191.013 26.3555 190.691 26.582 190.417C26.8086 190.144 27.0781 189.933 27.3906 189.784C27.707 189.632 28.0566 189.556 28.4395 189.556C28.752 189.556 29.0332 189.599 29.2832 189.685C29.5332 189.767 29.7461 189.9 29.9219 190.083C30.1016 190.267 30.2383 190.505 30.332 190.798C30.4258 191.087 30.4727 191.441 30.4727 191.859V196.013H29.3828V191.847C29.3828 191.515 29.334 191.249 29.2363 191.05C29.1387 190.847 28.9961 190.7 28.8086 190.611C28.6211 190.517 28.3906 190.47 28.1172 190.47C27.8477 190.47 27.6016 190.527 27.3789 190.64C27.1602 190.753 26.9707 190.909 26.8105 191.109C26.6543 191.308 26.5312 191.536 26.4414 191.794C26.3555 192.048 26.3125 192.318 26.3125 192.603ZM33.7734 189.673V196.013H32.6836V189.673H33.7734ZM32.6016 187.991C32.6016 187.816 32.6543 187.667 32.7598 187.546C32.8691 187.425 33.0293 187.365 33.2402 187.365C33.4473 187.365 33.6055 187.425 33.7148 187.546C33.8281 187.667 33.8848 187.816 33.8848 187.991C33.8848 188.159 33.8281 188.304 33.7148 188.425C33.6055 188.542 33.4473 188.601 33.2402 188.601C33.0293 188.601 32.8691 188.542 32.7598 188.425C32.6543 188.304 32.6016 188.159 32.6016 187.991ZM39.7051 194.331C39.7051 194.175 39.6699 194.031 39.5996 193.898C39.5332 193.761 39.3945 193.638 39.1836 193.529C38.9766 193.415 38.6641 193.318 38.2461 193.236C37.8945 193.161 37.5762 193.073 37.291 192.972C37.0098 192.87 36.7695 192.747 36.5703 192.603C36.375 192.458 36.2246 192.288 36.1191 192.093C36.0137 191.898 35.9609 191.669 35.9609 191.407C35.9609 191.157 36.0156 190.921 36.125 190.698C36.2383 190.476 36.3965 190.279 36.5996 190.107C36.8066 189.935 37.0547 189.8 37.3438 189.702C37.6328 189.605 37.9551 189.556 38.3105 189.556C38.8184 189.556 39.252 189.646 39.6113 189.825C39.9707 190.005 40.2461 190.245 40.4375 190.546C40.6289 190.843 40.7246 191.173 40.7246 191.536H39.6406C39.6406 191.361 39.5879 191.191 39.4824 191.027C39.3809 190.859 39.2305 190.72 39.0312 190.611C38.8359 190.501 38.5957 190.447 38.3105 190.447C38.0098 190.447 37.7656 190.493 37.5781 190.587C37.3945 190.677 37.2598 190.792 37.1738 190.933C37.0918 191.073 37.0508 191.222 37.0508 191.378C37.0508 191.495 37.0703 191.601 37.1094 191.695C37.1523 191.784 37.2266 191.868 37.332 191.947C37.4375 192.021 37.5859 192.091 37.7773 192.157C37.9688 192.224 38.2129 192.29 38.5098 192.357C39.0293 192.474 39.457 192.615 39.793 192.779C40.1289 192.943 40.3789 193.144 40.543 193.382C40.707 193.62 40.7891 193.909 40.7891 194.249C40.7891 194.527 40.7305 194.781 40.6133 195.011C40.5 195.241 40.334 195.441 40.1152 195.609C39.9004 195.773 39.6426 195.902 39.3418 195.995C39.0449 196.085 38.7109 196.13 38.3398 196.13C37.7812 196.13 37.3086 196.031 36.9219 195.831C36.5352 195.632 36.2422 195.374 36.043 195.058C35.8438 194.741 35.7441 194.407 35.7441 194.056H36.834C36.8496 194.353 36.9355 194.589 37.0918 194.765C37.248 194.937 37.4395 195.06 37.666 195.134C37.8926 195.204 38.1172 195.24 38.3398 195.24C38.6367 195.24 38.8848 195.2 39.084 195.122C39.2871 195.044 39.4414 194.937 39.5469 194.8C39.6523 194.663 39.7051 194.507 39.7051 194.331ZM47.7949 194.888L49.4238 189.673H50.1387L49.998 190.71L48.3398 196.013H47.6426L47.7949 194.888ZM46.6992 189.673L48.0879 194.947L48.1875 196.013H47.4551L45.6152 189.673H46.6992ZM51.6973 194.906L53.0215 189.673H54.0996L52.2598 196.013H51.5332L51.6973 194.906ZM50.2969 189.673L51.8906 194.8L52.0723 196.013H51.3809L49.6758 190.698L49.5352 189.673H50.2969ZM58.3438 196.13C57.9023 196.13 57.502 196.056 57.1426 195.907C56.7871 195.755 56.4805 195.542 56.2227 195.269C55.9688 194.995 55.7734 194.671 55.6367 194.296C55.5 193.921 55.4316 193.511 55.4316 193.066V192.82C55.4316 192.304 55.5078 191.845 55.6602 191.443C55.8125 191.036 56.0195 190.693 56.2812 190.411C56.543 190.13 56.8398 189.917 57.1719 189.773C57.5039 189.628 57.8477 189.556 58.2031 189.556C58.6562 189.556 59.0469 189.634 59.375 189.79C59.707 189.947 59.9785 190.165 60.1895 190.447C60.4004 190.724 60.5566 191.052 60.6582 191.431C60.7598 191.806 60.8105 192.216 60.8105 192.661V193.148H56.0762V192.263H59.7266V192.181C59.7109 191.9 59.6523 191.626 59.5508 191.361C59.4531 191.095 59.2969 190.876 59.082 190.704C58.8672 190.532 58.5742 190.447 58.2031 190.447C57.957 190.447 57.7305 190.499 57.5234 190.605C57.3164 190.706 57.1387 190.859 56.9902 191.062C56.8418 191.265 56.7266 191.513 56.6445 191.806C56.5625 192.099 56.5215 192.437 56.5215 192.82V193.066C56.5215 193.366 56.5625 193.65 56.6445 193.915C56.7305 194.177 56.8535 194.407 57.0137 194.607C57.1777 194.806 57.375 194.962 57.6055 195.075C57.8398 195.189 58.1055 195.245 58.4023 195.245C58.7852 195.245 59.1094 195.167 59.375 195.011C59.6406 194.855 59.873 194.646 60.0723 194.384L60.7285 194.906C60.5918 195.113 60.418 195.31 60.207 195.497C59.9961 195.685 59.7363 195.837 59.4277 195.954C59.123 196.072 58.7617 196.13 58.3438 196.13ZM65.207 196.13C64.7656 196.13 64.3652 196.056 64.0059 195.907C63.6504 195.755 63.3438 195.542 63.0859 195.269C62.832 194.995 62.6367 194.671 62.5 194.296C62.3633 193.921 62.2949 193.511 62.2949 193.066V192.82C62.2949 192.304 62.3711 191.845 62.5234 191.443C62.6758 191.036 62.8828 190.693 63.1445 190.411C63.4062 190.13 63.7031 189.917 64.0352 189.773C64.3672 189.628 64.7109 189.556 65.0664 189.556C65.5195 189.556 65.9102 189.634 66.2383 189.79C66.5703 189.947 66.8418 190.165 67.0527 190.447C67.2637 190.724 67.4199 191.052 67.5215 191.431C67.623 191.806 67.6738 192.216 67.6738 192.661V193.148H62.9395V192.263H66.5898V192.181C66.5742 191.9 66.5156 191.626 66.4141 191.361C66.3164 191.095 66.1602 190.876 65.9453 190.704C65.7305 190.532 65.4375 190.447 65.0664 190.447C64.8203 190.447 64.5938 190.499 64.3867 190.605C64.1797 190.706 64.002 190.859 63.8535 191.062C63.7051 191.265 63.5898 191.513 63.5078 191.806C63.4258 192.099 63.3848 192.437 63.3848 192.82V193.066C63.3848 193.366 63.4258 193.65 63.5078 193.915C63.5938 194.177 63.7168 194.407 63.877 194.607C64.041 194.806 64.2383 194.962 64.4688 195.075C64.7031 195.189 64.9688 195.245 65.2656 195.245C65.6484 195.245 65.9727 195.167 66.2383 195.011C66.5039 194.855 66.7363 194.646 66.9355 194.384L67.5918 194.906C67.4551 195.113 67.2812 195.31 67.0703 195.497C66.8594 195.685 66.5996 195.837 66.291 195.954C65.9863 196.072 65.625 196.13 65.207 196.13ZM70.5293 187.013V196.013H69.4395V187.013H70.5293ZM74.4023 189.673L71.6367 192.632L70.0898 194.238L70.002 193.083L71.1094 191.759L73.0781 189.673H74.4023ZM73.4121 196.013L71.1504 192.99L71.7129 192.023L74.6895 196.013H73.4121Z"
                  fill="#363740"
                />
                <circle cx="114.5" cy="192.513" r="4.5" fill="#FFE600" />
                <path
                  opacity="0.7"
                  d="M133.164 195.093V196.013H128.898V195.093H133.164ZM129.121 187.482V196.013H127.99V187.482H129.121ZM138.533 194.929V191.665C138.533 191.415 138.482 191.198 138.381 191.015C138.283 190.827 138.135 190.683 137.936 190.581C137.736 190.48 137.49 190.429 137.197 190.429C136.924 190.429 136.684 190.476 136.477 190.57C136.273 190.663 136.113 190.786 135.996 190.939C135.883 191.091 135.826 191.255 135.826 191.431H134.742C134.742 191.204 134.801 190.98 134.918 190.757C135.035 190.534 135.203 190.333 135.422 190.154C135.645 189.97 135.91 189.825 136.219 189.72C136.531 189.611 136.879 189.556 137.262 189.556C137.723 189.556 138.129 189.634 138.48 189.79C138.836 189.947 139.113 190.183 139.312 190.499C139.516 190.812 139.617 191.204 139.617 191.677V194.63C139.617 194.841 139.635 195.066 139.67 195.304C139.709 195.542 139.766 195.747 139.84 195.919V196.013H138.709C138.654 195.888 138.611 195.722 138.58 195.515C138.549 195.304 138.533 195.109 138.533 194.929ZM138.721 192.169L138.732 192.931H137.637C137.328 192.931 137.053 192.956 136.811 193.007C136.568 193.054 136.365 193.126 136.201 193.224C136.037 193.322 135.912 193.445 135.826 193.593C135.74 193.738 135.697 193.907 135.697 194.103C135.697 194.302 135.742 194.484 135.832 194.648C135.922 194.812 136.057 194.943 136.236 195.04C136.42 195.134 136.645 195.181 136.91 195.181C137.242 195.181 137.535 195.111 137.789 194.97C138.043 194.829 138.244 194.657 138.393 194.454C138.545 194.251 138.627 194.054 138.639 193.863L139.102 194.384C139.074 194.548 139 194.73 138.879 194.929C138.758 195.128 138.596 195.32 138.393 195.503C138.193 195.683 137.955 195.833 137.678 195.954C137.404 196.072 137.096 196.13 136.752 196.13C136.322 196.13 135.945 196.046 135.621 195.878C135.301 195.71 135.051 195.486 134.871 195.204C134.695 194.919 134.607 194.601 134.607 194.249C134.607 193.909 134.674 193.611 134.807 193.353C134.939 193.091 135.131 192.874 135.381 192.702C135.631 192.527 135.932 192.394 136.283 192.304C136.635 192.214 137.027 192.169 137.461 192.169H138.721ZM145.514 194.331C145.514 194.175 145.479 194.031 145.408 193.898C145.342 193.761 145.203 193.638 144.992 193.529C144.785 193.415 144.473 193.318 144.055 193.236C143.703 193.161 143.385 193.073 143.1 192.972C142.818 192.87 142.578 192.747 142.379 192.603C142.184 192.458 142.033 192.288 141.928 192.093C141.822 191.898 141.77 191.669 141.77 191.407C141.77 191.157 141.824 190.921 141.934 190.698C142.047 190.476 142.205 190.279 142.408 190.107C142.615 189.935 142.863 189.8 143.152 189.702C143.441 189.605 143.764 189.556 144.119 189.556C144.627 189.556 145.061 189.646 145.42 189.825C145.779 190.005 146.055 190.245 146.246 190.546C146.438 190.843 146.533 191.173 146.533 191.536H145.449C145.449 191.361 145.396 191.191 145.291 191.027C145.189 190.859 145.039 190.72 144.84 190.611C144.645 190.501 144.404 190.447 144.119 190.447C143.818 190.447 143.574 190.493 143.387 190.587C143.203 190.677 143.068 190.792 142.982 190.933C142.9 191.073 142.859 191.222 142.859 191.378C142.859 191.495 142.879 191.601 142.918 191.695C142.961 191.784 143.035 191.868 143.141 191.947C143.246 192.021 143.395 192.091 143.586 192.157C143.777 192.224 144.021 192.29 144.318 192.357C144.838 192.474 145.266 192.615 145.602 192.779C145.938 192.943 146.188 193.144 146.352 193.382C146.516 193.62 146.598 193.909 146.598 194.249C146.598 194.527 146.539 194.781 146.422 195.011C146.309 195.241 146.143 195.441 145.924 195.609C145.709 195.773 145.451 195.902 145.15 195.995C144.854 196.085 144.52 196.13 144.148 196.13C143.59 196.13 143.117 196.031 142.73 195.831C142.344 195.632 142.051 195.374 141.852 195.058C141.652 194.741 141.553 194.407 141.553 194.056H142.643C142.658 194.353 142.744 194.589 142.9 194.765C143.057 194.937 143.248 195.06 143.475 195.134C143.701 195.204 143.926 195.24 144.148 195.24C144.445 195.24 144.693 195.2 144.893 195.122C145.096 195.044 145.25 194.937 145.355 194.8C145.461 194.663 145.514 194.507 145.514 194.331ZM151.176 189.673V190.505H147.748V189.673H151.176ZM148.908 188.132H149.992V194.443C149.992 194.657 150.025 194.82 150.092 194.929C150.158 195.038 150.244 195.111 150.35 195.146C150.455 195.181 150.568 195.198 150.689 195.198C150.779 195.198 150.873 195.191 150.971 195.175C151.072 195.156 151.148 195.14 151.199 195.128L151.205 196.013C151.119 196.04 151.006 196.066 150.865 196.089C150.729 196.116 150.562 196.13 150.367 196.13C150.102 196.13 149.857 196.077 149.635 195.972C149.412 195.866 149.234 195.691 149.102 195.445C148.973 195.195 148.908 194.859 148.908 194.437V188.132ZM158.832 193.435L160.525 187.482H161.346L160.871 189.796L159.049 196.013H158.234L158.832 193.435ZM157.08 187.482L158.428 193.318L158.832 196.013H158.023L155.955 187.482H157.08ZM163.537 193.312L164.855 187.482H165.986L163.924 196.013H163.115L163.537 193.312ZM161.469 187.482L163.115 193.435L163.713 196.013H162.898L161.141 189.796L160.66 187.482H161.469ZM170.02 196.13C169.578 196.13 169.178 196.056 168.818 195.907C168.463 195.755 168.156 195.542 167.898 195.269C167.645 194.995 167.449 194.671 167.312 194.296C167.176 193.921 167.107 193.511 167.107 193.066V192.82C167.107 192.304 167.184 191.845 167.336 191.443C167.488 191.036 167.695 190.693 167.957 190.411C168.219 190.13 168.516 189.917 168.848 189.773C169.18 189.628 169.523 189.556 169.879 189.556C170.332 189.556 170.723 189.634 171.051 189.79C171.383 189.947 171.654 190.165 171.865 190.447C172.076 190.724 172.232 191.052 172.334 191.431C172.436 191.806 172.486 192.216 172.486 192.661V193.148H167.752V192.263H171.402V192.181C171.387 191.9 171.328 191.626 171.227 191.361C171.129 191.095 170.973 190.876 170.758 190.704C170.543 190.532 170.25 190.447 169.879 190.447C169.633 190.447 169.406 190.499 169.199 190.605C168.992 190.706 168.814 190.859 168.666 191.062C168.518 191.265 168.402 191.513 168.32 191.806C168.238 192.099 168.197 192.437 168.197 192.82V193.066C168.197 193.366 168.238 193.65 168.32 193.915C168.406 194.177 168.529 194.407 168.689 194.607C168.854 194.806 169.051 194.962 169.281 195.075C169.516 195.189 169.781 195.245 170.078 195.245C170.461 195.245 170.785 195.167 171.051 195.011C171.316 194.855 171.549 194.646 171.748 194.384L172.404 194.906C172.268 195.113 172.094 195.31 171.883 195.497C171.672 195.685 171.412 195.837 171.104 195.954C170.799 196.072 170.438 196.13 170.02 196.13ZM176.883 196.13C176.441 196.13 176.041 196.056 175.682 195.907C175.326 195.755 175.02 195.542 174.762 195.269C174.508 194.995 174.312 194.671 174.176 194.296C174.039 193.921 173.971 193.511 173.971 193.066V192.82C173.971 192.304 174.047 191.845 174.199 191.443C174.352 191.036 174.559 190.693 174.82 190.411C175.082 190.13 175.379 189.917 175.711 189.773C176.043 189.628 176.387 189.556 176.742 189.556C177.195 189.556 177.586 189.634 177.914 189.79C178.246 189.947 178.518 190.165 178.729 190.447C178.939 190.724 179.096 191.052 179.197 191.431C179.299 191.806 179.35 192.216 179.35 192.661V193.148H174.615V192.263H178.266V192.181C178.25 191.9 178.191 191.626 178.09 191.361C177.992 191.095 177.836 190.876 177.621 190.704C177.406 190.532 177.113 190.447 176.742 190.447C176.496 190.447 176.27 190.499 176.062 190.605C175.855 190.706 175.678 190.859 175.529 191.062C175.381 191.265 175.266 191.513 175.184 191.806C175.102 192.099 175.061 192.437 175.061 192.82V193.066C175.061 193.366 175.102 193.65 175.184 193.915C175.27 194.177 175.393 194.407 175.553 194.607C175.717 194.806 175.914 194.962 176.145 195.075C176.379 195.189 176.645 195.245 176.941 195.245C177.324 195.245 177.648 195.167 177.914 195.011C178.18 194.855 178.412 194.646 178.611 194.384L179.268 194.906C179.131 195.113 178.957 195.31 178.746 195.497C178.535 195.685 178.275 195.837 177.967 195.954C177.662 196.072 177.301 196.13 176.883 196.13ZM182.205 187.013V196.013H181.115V187.013H182.205ZM186.078 189.673L183.312 192.632L181.766 194.238L181.678 193.083L182.785 191.759L184.754 189.673H186.078ZM185.088 196.013L182.826 192.99L183.389 192.023L186.365 196.013H185.088Z"
                  fill="#363740"
                />
              </svg>