<svg
                width="138"
                height="93"
                viewBox="0 0 138 93"
                fill="none"
                xmlns="http://www.w3.org/2000/svg"
              >
                <rect
                  opacity="0.6"
                  x="12"
                  y="59.7028"
                  width="7.64977"
                  height="8.41475"
                  rx="3.82488"
                  fill="#7367F0"
                />
                <rect
                  opacity="0.7"
                  x="47.3667"
                  y="59.7028"
                  width="7.64977"
                  height="8.41475"
                  rx="3.82488"
                  fill="#7367F0"
                />
                <rect
                  opacity="0.8"
                  x="82.7335"
                  y="59.7028"
                  width="7.64977"
                  height="8.41475"
                  rx="3.82488"
                  fill="#7367F0"
                />
                <rect
                  x="118.1"
                  y="22.9839"
                  width="7.64977"
                  height="45.1336"
                  rx="3.82488"
                  fill="#7367F0"
                />
                <path
                  d="M86.4315 49.8932C87.0308 49.8932 87.5076 50.1342 87.862 50.6161C88.219 51.0955 88.3975 51.8056 88.3975 52.7466C88.3975 53.6824 88.2203 54.39 87.8659 54.8694C87.5114 55.3462 87.0308 55.5846 86.4239 55.5846C85.8196 55.5846 85.3402 55.3475 84.9857 54.8732C84.6313 54.3964 84.4541 53.6913 84.4541 52.758C84.4541 52.1282 84.5357 51.6004 84.6989 51.1745C84.8621 50.7487 85.0916 50.4287 85.3873 50.2145C85.6831 50.0003 86.0312 49.8932 86.4315 49.8932ZM86.4315 54.9726C86.8268 54.9726 87.1251 54.7992 87.3266 54.4525C87.5306 54.1031 87.6326 53.5358 87.6326 52.7504C87.6326 51.9497 87.5293 51.3734 87.3227 51.0215C87.1187 50.6671 86.8204 50.4899 86.4277 50.4899C86.0376 50.4899 85.7367 50.6684 85.525 51.0254C85.3159 51.3798 85.2114 51.9548 85.2114 52.7504C85.2114 53.5332 85.3159 54.0993 85.525 54.4486C85.7341 54.798 86.0363 54.9726 86.4315 54.9726Z"
                  fill="#363740"
                />
                <path
                  d="M52.319 49.8932C52.9183 49.8932 53.3951 50.1342 53.7495 50.6161C54.1065 51.0955 54.285 51.8056 54.285 52.7466C54.285 53.6824 54.1078 54.39 53.7534 54.8694C53.3989 55.3462 52.9183 55.5846 52.3114 55.5846C51.707 55.5846 51.2277 55.3475 50.8732 54.8732C50.5188 54.3964 50.3416 53.6913 50.3416 52.758C50.3416 52.1282 50.4232 51.6004 50.5863 51.1745C50.7495 50.7487 50.979 50.4287 51.2748 50.2145C51.5706 50.0003 51.9187 49.8932 52.319 49.8932ZM52.319 54.9726C52.7143 54.9726 53.0126 54.7992 53.214 54.4525C53.418 54.1031 53.52 53.5358 53.52 52.7504C53.52 51.9497 53.4168 51.3734 53.2102 51.0215C53.0062 50.6671 52.7079 50.4899 52.3152 50.4899C51.9251 50.4899 51.6242 50.6684 51.4125 51.0254C51.2034 51.3798 51.0989 51.9548 51.0989 52.7504C51.0989 53.5332 51.2034 54.0993 51.4125 54.4486C51.6216 54.798 51.9238 54.9726 52.319 54.9726Z"
                  fill="#363740"
                />
                <path
                  d="M15.5831 49.8932C16.1823 49.8932 16.6592 50.1342 17.0136 50.6161C17.3706 51.0955 17.5491 51.8056 17.5491 52.7466C17.5491 53.6824 17.3719 54.39 17.0174 54.8694C16.663 55.3462 16.1823 55.5846 15.5755 55.5846C14.9711 55.5846 14.4917 55.3475 14.1373 54.8732C13.7829 54.3964 13.6056 53.6913 13.6056 52.758C13.6056 52.1282 13.6872 51.6004 13.8504 51.1745C14.0136 50.7487 14.2431 50.4287 14.5389 50.2145C14.8347 50.0003 15.1828 49.8932 15.5831 49.8932ZM15.5831 54.9726C15.9783 54.9726 16.2767 54.7992 16.4781 54.4525C16.6821 54.1031 16.7841 53.5358 16.7841 52.7504C16.7841 51.9497 16.6808 51.3734 16.4743 51.0215C16.2703 50.6671 15.972 50.4899 15.5793 50.4899C15.1891 50.4899 14.8882 50.6684 14.6766 51.0254C14.4675 51.3798 14.363 51.9548 14.363 52.7504C14.363 53.5332 14.4675 54.0993 14.6766 54.4486C14.8857 54.798 15.1879 54.9726 15.5831 54.9726Z"
                  fill="#363740"
                />
                <path
                  d="M117.213 22.0004V17.5979H116.146V17.1351C116.477 17.1351 116.735 17.1109 116.918 17.0625C117.102 17.014 117.232 16.9401 117.308 16.8406C117.387 16.7412 117.431 16.6175 117.438 16.4696H117.943V22.0004H117.213ZM121.25 16.3931C121.849 16.3931 122.326 16.6341 122.68 17.116C123.037 17.5954 123.216 18.3055 123.216 19.2465C123.216 20.1823 123.038 20.8899 122.684 21.3693C122.33 21.8461 121.849 22.0845 121.242 22.0845C120.638 22.0845 120.158 21.8474 119.804 21.3731C119.449 20.8963 119.272 20.1912 119.272 19.2579C119.272 18.6281 119.354 18.1003 119.517 17.6744C119.68 17.2486 119.91 16.9286 120.206 16.7144C120.501 16.5002 120.849 16.3931 121.25 16.3931ZM121.25 21.4725C121.645 21.4725 121.943 21.2992 122.145 20.9524C122.349 20.603 122.451 20.0357 122.451 19.2503C122.451 18.4496 122.347 17.8733 122.141 17.5214C121.937 17.167 121.639 16.9898 121.246 16.9898C120.856 16.9898 120.555 17.1683 120.343 17.5253C120.134 17.8797 120.03 18.4547 120.03 19.2503C120.03 20.0331 120.134 20.5992 120.343 20.9485C120.552 21.2979 120.854 21.4725 121.25 21.4725Z"
                  fill="#363740"
                />
                <path
                  d="M12.2764 75.8327V74.9874H17.7161V75.8327H15.5233V82.1774H14.5985V75.8327H12.2764Z"
                  fill="#979797"
                />
                <path
                  d="M56.0976 74.9874L53.9993 82.1774H53.149L51.5728 76.6034L49.9717 82.1774H49.1463L47.0728 74.9874H48.0026L49.5938 80.7106L51.2148 74.9874H51.9358L53.5518 80.7106L55.1728 74.9874H56.0976Z"
                  fill="#979797"
                />
                <path
                  d="M85.4431 75.8327V74.9874H90.8828V75.8327H88.69V82.1774H87.7652V75.8327H85.4431Z"
                  fill="#979797"
                />
                <path
                  d="M120.747 74.9874H125.227L125.223 75.7929H121.692V78.1697H124.864V78.9653H121.692V82.1774H120.747V74.9874Z"
                  fill="#979797"
                />
              </svg>