<svg
                  width="24"
                  height="24"
                  viewBox="0 0 24 24"
                  fill="none"
                  xmlns="http://www.w3.org/2000/svg"
                >
                  <path
                    d="M23.9999 6.80607C23.9999 3.05268 21.584 0 18.6132 0C15.864 0 13.5894 2.61798 13.2665 5.98401H1.36271C0.610667 5.98401 0 6.75559 0 7.7058V22.2782C0 23.2284 0.610667 24 1.36271 24H20.7599C21.5119 24 22.1226 23.2284 22.1226 22.2782V11.965C23.272 10.7149 23.9999 8.86793 23.9999 6.80607ZM18.6132 1.40844C20.9705 1.40844 22.8851 3.83112 22.8851 6.80607C22.8851 9.78126 20.9677 12.2037 18.6132 12.2037C16.2585 12.2037 14.3412 9.78102 14.3412 6.80607C14.3412 3.83088 16.2587 1.40844 18.6132 1.40844ZM21.0079 22.2779C21.0079 22.4497 20.8959 22.5912 20.76 22.5912H1.36281C1.22683 22.5912 1.11486 22.4497 1.11486 22.2779L1.11467 7.7055C1.11467 7.5337 1.22665 7.39221 1.36262 7.39221H13.2479C13.3678 9.14764 14.0159 10.7178 14.9919 11.8399L11.6132 14.9328C11.2319 15.2799 10.7172 15.29 10.3304 14.9563L2.85043 8.4974C2.62369 8.30209 2.31715 8.37612 2.16239 8.66239C2.00781 8.94888 2.0664 9.33619 2.29297 9.53174L9.77011 15.9876C10.1274 16.2976 10.5433 16.4492 10.9569 16.4492C11.3702 16.4492 11.8263 16.2807 12.1916 15.9439L15.6555 12.7767C15.7089 12.7262 15.7541 12.6655 15.7861 12.5981C16.6074 13.2415 17.5754 13.6122 18.6102 13.6122C19.4688 13.6122 20.2822 13.356 21.0049 12.9012V22.2782L21.0079 22.2779Z"
                    fill="#EA5455"
                  />
                </svg>