 <svg
                width="111"
                height="56"
                viewBox="0 0 111 56"
                fill="none"
                xmlns="http://www.w3.org/2000/svg"
              >
                <ellipse
                  cx="74.5136"
                  cy="14.9172"
                  rx="1.32567"
                  ry="1.89277"
                  fill="#363740"
                />
                <ellipse
                  cx="74.5136"
                  cy="24.3801"
                  rx="1.32567"
                  ry="1.89277"
                  fill="#363740"
                />
                <ellipse
                  cx="35.7654"
                  cy="13.2893"
                  rx="1.32567"
                  ry="1.89277"
                  fill="#363740"
                />
                <ellipse
                  cx="35.7654"
                  cy="22.7531"
                  rx="1.32567"
                  ry="1.89277"
                  fill="#363740"
                />
                <rect
                  width="33.9031"
                  height="19.5366"
                  rx="8"
                  fill="#7367F0"
                  fill-opacity="0.2"
                />
                <rect
                  x="76.9542"
                  width="33.9031"
                  height="19.5366"
                  rx="8"
                  fill="#7367F0"
                  fill-opacity="0.2"
                />
                <rect
                  x="37.6698"
                  width="33.9031"
                  height="19.5366"
                  rx="8"
                  fill="#7367F0"
                  fill-opacity="0.2"
                />
                <rect
                  y="21.1641"
                  width="33.9031"
                  height="17.0945"
                  rx="8"
                  fill="#7367F0"
                  fill-opacity="0.2"
                />
                <rect
                  x="76.9542"
                  y="21.1641"
                  width="33.9031"
                  height="17.0945"
                  rx="8"
                  fill="#7367F0"
                  fill-opacity="0.2"
                />
                <rect
                  x="37.6698"
                  y="21.1641"
                  width="33.9031"
                  height="17.0945"
                  rx="8"
                  fill="#7367F0"
                  fill-opacity="0.2"
                />
                <path
                  d="M16.392 17.5712V20.6094C16.392 21.9276 16.2513 23.065 15.97 24.0214C15.6887 24.9699 15.2828 25.7495 14.7523 26.3604C14.2298 26.9632 13.6069 27.4093 12.8835 27.6987C12.1601 27.9881 11.3563 28.1327 10.4722 28.1327C9.76487 28.1327 9.10578 28.0443 8.49491 27.8675C7.88405 27.6826 7.33346 27.3973 6.84316 27.0115C6.3609 26.6257 5.94294 26.1394 5.58928 25.5526C5.24366 24.9578 4.97841 24.2505 4.79355 23.4307C4.60868 22.6108 4.51624 21.6704 4.51624 20.6094V17.5712C4.51624 16.253 4.6569 15.1237 4.93822 14.1833C5.22758 13.2348 5.63349 12.4592 6.15594 11.8564C6.68643 11.2535 7.31337 10.8115 8.03676 10.5301C8.76016 10.2408 9.56393 10.0961 10.4481 10.0961C11.1554 10.0961 11.8105 10.1885 12.4133 10.3734C13.0242 10.5502 13.5748 10.8275 14.0651 11.2053C14.5554 11.5831 14.9733 12.0694 15.3189 12.6641C15.6646 13.2509 15.9298 13.9542 16.1147 14.774C16.2995 15.5859 16.392 16.5182 16.392 17.5712ZM12.9076 21.0676V17.101C12.9076 16.466 12.8715 15.9114 12.7991 15.4372C12.7348 14.9629 12.6343 14.561 12.4977 14.2315C12.3611 13.8939 12.1923 13.6206 11.9913 13.4117C11.7904 13.2027 11.5613 13.05 11.3041 12.9535C11.0469 12.8571 10.7616 12.8088 10.4481 12.8088C10.0542 12.8088 9.70459 12.8852 9.39916 13.0379C9.10176 13.1906 8.84857 13.4358 8.63959 13.7733C8.43061 14.1029 8.26986 14.545 8.15733 15.0996C8.05284 15.6461 8.0006 16.3133 8.0006 17.101V21.0676C8.0006 21.7026 8.03275 22.2612 8.09705 22.7434C8.16939 23.2257 8.27388 23.6396 8.41052 23.9853C8.5552 24.3229 8.72399 24.6002 8.9169 24.8172C9.11784 25.0262 9.34691 25.1789 9.60412 25.2753C9.86936 25.3718 10.1587 25.42 10.4722 25.42C10.858 25.42 11.1996 25.3436 11.497 25.1909C11.8024 25.0302 12.0596 24.781 12.2686 24.4434C12.4856 24.0978 12.6464 23.6477 12.7509 23.0931C12.8554 22.5385 12.9076 21.8633 12.9076 21.0676ZM19.9236 19.8981L17.1506 19.235L18.1513 10.3372H28.0135V13.1464H21.0087L20.5746 17.0407C20.8077 16.904 21.1614 16.7594 21.6356 16.6066C22.1098 16.4459 22.6403 16.3655 23.2271 16.3655C24.0791 16.3655 24.8346 16.4981 25.4937 16.7634C26.1528 17.0286 26.7114 17.4144 27.1696 17.9208C27.6358 18.4272 27.9894 19.0461 28.2306 19.7775C28.4717 20.509 28.5923 21.3368 28.5923 22.2612C28.5923 23.0408 28.4717 23.7843 28.2306 24.4916C27.9894 25.1909 27.6237 25.8179 27.1334 26.3725C26.6431 26.919 26.0282 27.3491 25.2888 27.6625C24.5493 27.976 23.6732 28.1327 22.6604 28.1327C21.9049 28.1327 21.1735 28.0202 20.4661 27.7951C19.7668 27.5701 19.1359 27.2365 18.5732 26.7945C18.0186 26.3524 17.5726 25.8179 17.235 25.1909C16.9054 24.5559 16.7326 23.8326 16.7165 23.0207H20.1647C20.2129 23.5191 20.3415 23.9491 20.5505 24.3108C20.7675 24.6645 21.0529 24.9377 21.4065 25.1306C21.7602 25.3236 22.1741 25.42 22.6484 25.42C23.0904 25.42 23.4682 25.3356 23.7817 25.1668C24.0952 24.998 24.3483 24.7649 24.5413 24.4675C24.7342 24.1621 24.8748 23.8084 24.9632 23.4066C25.0597 22.9966 25.1079 22.5546 25.1079 22.0803C25.1079 21.6061 25.0516 21.1761 24.9391 20.7903C24.8266 20.4045 24.6538 20.0709 24.4207 19.7896C24.1876 19.5083 23.8902 19.2912 23.5285 19.1385C23.1748 18.9858 22.7609 18.9095 22.2867 18.9095C21.6437 18.9095 21.1453 19.0099 20.7917 19.2109C20.446 19.4118 20.1567 19.6409 19.9236 19.8981Z"
                  fill="#363740"
                />
                <path
                  d="M48.6731 10.8216V28.4121H45.2008V14.8243L41.0292 16.1506V13.4137L48.2993 10.8216H48.6731ZM61.2471 10.6769H61.7535V13.4499H61.5485C60.6322 13.4499 59.8164 13.5865 59.101 13.8598C58.3857 14.1331 57.7788 14.5229 57.2805 15.0293C56.7902 15.5276 56.4124 16.1305 56.1472 16.8378C55.89 17.5451 55.7614 18.3368 55.7614 19.2129V22.1306C55.7614 22.7576 55.8217 23.3122 55.9422 23.7944C56.0708 24.2687 56.2517 24.6665 56.4848 24.988C56.7259 25.3015 57.0072 25.5386 57.3287 25.6994C57.6502 25.8521 58.0119 25.9285 58.4138 25.9285C58.7916 25.9285 59.1332 25.8481 59.4386 25.6873C59.7521 25.5266 60.0173 25.3015 60.2344 25.0122C60.4594 24.7148 60.6282 24.3691 60.7407 23.9753C60.8613 23.5734 60.9216 23.1353 60.9216 22.6611C60.9216 22.1869 60.8613 21.7488 60.7407 21.347C60.6282 20.9451 60.4594 20.5994 60.2344 20.3101C60.0093 20.0127 59.736 19.7836 59.4145 19.6229C59.093 19.4621 58.7313 19.3817 58.3294 19.3817C57.7829 19.3817 57.3006 19.5103 56.8826 19.7675C56.4727 20.0167 56.1512 20.3382 55.9181 20.7321C55.685 21.1259 55.5604 21.5399 55.5443 21.9739L54.4954 21.2987C54.5195 20.6798 54.6481 20.0931 54.8812 19.5385C55.1224 18.9839 55.4519 18.4936 55.8699 18.0676C56.2959 17.6335 56.8063 17.2959 57.4011 17.0548C57.9959 16.8056 58.667 16.6811 59.4145 16.6811C60.2344 16.6811 60.9537 16.8378 61.5726 17.1513C62.1996 17.4647 62.722 17.8948 63.14 18.4413C63.558 18.9879 63.8714 19.6188 64.0804 20.3342C64.2894 21.0496 64.3939 21.8131 64.3939 22.625C64.3939 23.477 64.2532 24.2687 63.9719 25.0001C63.6986 25.7315 63.3007 26.3705 62.7783 26.9171C62.2639 27.4637 61.645 27.8897 60.9216 28.1951C60.1982 28.5005 59.3864 28.6532 58.4862 28.6532C57.5538 28.6532 56.7058 28.4844 55.9422 28.1469C55.1867 27.8012 54.5356 27.319 53.9891 26.7001C53.4425 26.0812 53.0205 25.3457 52.7231 24.4937C52.4338 23.6417 52.2891 22.7093 52.2891 21.6966V20.3463C52.2891 18.9316 52.494 17.6375 52.904 16.464C53.3219 15.2825 53.9207 14.2617 54.7004 13.4017C55.48 12.5336 56.4205 11.8624 57.5216 11.3882C58.6228 10.914 59.8646 10.6769 61.2471 10.6769Z"
                  fill="#363740"
                />
                <path
                  d="M92.5805 25.6994V28.4121H80.5721V26.0972L86.2508 20.0087C86.8215 19.3737 87.2716 18.8151 87.6011 18.3328C87.9307 17.8425 88.1678 17.4045 88.3125 17.0186C88.4652 16.6248 88.5415 16.251 88.5415 15.8974C88.5415 15.3669 88.4531 14.9128 88.2763 14.535C88.0995 14.1492 87.8382 13.8518 87.4926 13.6428C87.155 13.4338 86.7371 13.3293 86.2387 13.3293C85.7082 13.3293 85.2501 13.4579 84.8643 13.7151C84.4865 13.9723 84.1972 14.33 83.9962 14.7882C83.8033 15.2463 83.7069 15.7648 83.7069 16.3435H80.2225C80.2225 15.2986 80.4717 14.3421 80.97 13.474C81.4683 12.5979 82.1716 11.9026 83.0799 11.3882C83.9882 10.8658 85.0652 10.6045 86.3111 10.6045C87.5408 10.6045 88.5777 10.8055 89.4217 11.2074C90.2737 11.6012 90.9167 12.1719 91.3507 12.9194C91.7928 13.6589 92.0138 14.543 92.0138 15.5719C92.0138 16.1506 91.9214 16.7172 91.7365 17.2718C91.5517 17.8184 91.2864 18.365 90.9408 18.9115C90.6032 19.4501 90.1933 19.9966 89.711 20.5512C89.2288 21.1058 88.6943 21.6805 88.1075 22.2753L85.0572 25.6994H92.5805ZM101.116 10.8216V28.4121H97.6433V14.8243L93.4717 16.1506V13.4137L100.742 10.8216H101.116Z"
                  fill="#363740"
                />
                <path
                  d="M13.3231 50.1631H12.1477L12.1555 49.5561H13.3231C13.7252 49.5561 14.0603 49.4723 14.3284 49.3047C14.5965 49.1346 14.7975 48.8975 14.9316 48.5933C15.0682 48.2866 15.1365 47.9283 15.1365 47.5184V47.1743C15.1365 46.8521 15.0978 46.566 15.0205 46.316C14.9432 46.0634 14.8297 45.8507 14.6802 45.678C14.5307 45.5027 14.3477 45.37 14.1312 45.2798C13.9173 45.1896 13.6711 45.1444 13.3927 45.1444H12.1245V44.5336H13.3927C13.7613 44.5336 14.0977 44.5954 14.4019 44.7191C14.706 44.8403 14.9676 45.0169 15.1867 45.2488C15.4084 45.4783 15.5785 45.7566 15.6971 46.084C15.8157 46.4088 15.875 46.7748 15.875 47.1821V47.5184C15.875 47.9257 15.8157 48.293 15.6971 48.6204C15.5785 48.9452 15.4071 49.2223 15.1829 49.4517C14.9612 49.6811 14.6931 49.8576 14.3787 49.9814C14.0668 50.1025 13.7149 50.1631 13.3231 50.1631ZM12.546 44.5336V50.1631H11.7997V44.5336H12.546ZM19.3548 49.4478V47.2942C19.3548 47.1292 19.3213 46.9862 19.2542 46.865C19.1898 46.7413 19.0919 46.6459 18.9604 46.5789C18.8289 46.5119 18.6665 46.4784 18.4732 46.4784C18.2928 46.4784 18.1343 46.5093 17.9976 46.5712C17.8636 46.633 17.7579 46.7142 17.6806 46.8147C17.6058 46.9153 17.5685 47.0235 17.5685 47.1395H16.8532C16.8532 46.99 16.8918 46.8418 16.9692 46.6949C17.0465 46.548 17.1573 46.4152 17.3017 46.2966C17.4486 46.1755 17.6239 46.0801 17.8275 46.0105C18.0337 45.9384 18.2631 45.9023 18.5158 45.9023C18.8199 45.9023 19.088 45.9538 19.32 46.0569C19.5545 46.16 19.7375 46.316 19.869 46.5248C20.003 46.731 20.0701 46.99 20.0701 47.3019V49.2506C20.0701 49.3898 20.0817 49.538 20.1049 49.6952C20.1306 49.8525 20.168 49.9878 20.217 50.1012V50.1631H19.4708C19.4347 50.0806 19.4063 49.9711 19.3857 49.8344C19.3651 49.6952 19.3548 49.5664 19.3548 49.4478ZM19.4785 47.6267L19.4862 48.1293H18.7632C18.5596 48.1293 18.3778 48.1461 18.218 48.1796C18.0582 48.2105 17.9242 48.2582 17.8159 48.3227C17.7077 48.3871 17.6252 48.4683 17.5685 48.5662C17.5118 48.6616 17.4834 48.7737 17.4834 48.9026C17.4834 49.0341 17.5131 49.1539 17.5723 49.2622C17.6316 49.3705 17.7206 49.4568 17.8391 49.5213C17.9603 49.5831 18.1085 49.6141 18.2838 49.6141C18.5029 49.6141 18.6962 49.5677 18.8637 49.4749C19.0313 49.3821 19.164 49.2686 19.262 49.1346C19.3625 49.0006 19.4166 48.8704 19.4244 48.7441L19.7298 49.0882C19.7118 49.1965 19.6628 49.3163 19.5829 49.4478C19.503 49.5793 19.396 49.7056 19.262 49.8267C19.1305 49.9453 18.9733 50.0445 18.7903 50.1244C18.6098 50.2018 18.4062 50.2404 18.1794 50.2404C17.8958 50.2404 17.6471 50.185 17.4331 50.0742C17.2218 49.9633 17.0568 49.8151 16.9382 49.6295C16.8223 49.4414 16.7643 49.2313 16.7643 48.9993C16.7643 48.775 16.8081 48.5778 16.8957 48.4077C16.9834 48.235 17.1097 48.092 17.2746 47.9785C17.4396 47.8626 17.6381 47.7749 17.8701 47.7156C18.102 47.6563 18.3611 47.6267 18.6472 47.6267H19.4785ZM22.3087 49.73L23.4725 45.9796H24.2381L22.56 50.8088C22.5214 50.9119 22.4698 51.0227 22.4054 51.1413C22.3435 51.2624 22.2636 51.3771 22.1657 51.4854C22.0677 51.5937 21.9492 51.6813 21.81 51.7483C21.6733 51.8179 21.5097 51.8527 21.3189 51.8527C21.2622 51.8527 21.19 51.845 21.1024 51.8295C21.0148 51.8141 20.9529 51.8012 20.9168 51.7909L20.9129 51.2109C20.9336 51.2135 20.9658 51.216 21.0096 51.2186C21.056 51.2238 21.0882 51.2264 21.1063 51.2264C21.2687 51.2264 21.4066 51.2044 21.52 51.1606C21.6334 51.1194 21.7288 51.0485 21.8061 50.948C21.886 50.85 21.9543 50.7147 22.011 50.542L22.3087 49.73ZM21.4542 45.9796L22.5407 49.2274L22.7263 49.9814L22.2121 50.2443L20.6732 45.9796H21.4542ZM27.3196 49.0534C27.3196 48.9503 27.2964 48.8549 27.25 48.7673C27.2062 48.6771 27.1147 48.5959 26.9755 48.5237C26.8389 48.449 26.6327 48.3845 26.3569 48.3304C26.1249 48.2814 25.9148 48.2234 25.7267 48.1564C25.5411 48.0894 25.3825 48.0082 25.2511 47.9128C25.1222 47.8174 25.023 47.7053 24.9534 47.5764C24.8838 47.4476 24.849 47.2968 24.849 47.1241C24.849 46.9591 24.8851 46.8032 24.9572 46.6562C25.032 46.5093 25.1364 46.3791 25.2704 46.2657C25.407 46.1523 25.5707 46.0634 25.7615 45.9989C25.9522 45.9345 26.1649 45.9023 26.3994 45.9023C26.7345 45.9023 27.0206 45.9616 27.2578 46.0801C27.4949 46.1987 27.6766 46.3572 27.8029 46.5557C27.9292 46.7516 27.9924 46.9694 27.9924 47.2091H27.2771C27.2771 47.0931 27.2423 46.981 27.1727 46.8727C27.1057 46.7619 27.0065 46.6704 26.875 46.5982C26.7461 46.5261 26.5876 46.49 26.3994 46.49C26.2009 46.49 26.0398 46.5209 25.9161 46.5828C25.795 46.642 25.706 46.7181 25.6493 46.8109C25.5952 46.9037 25.5681 47.0016 25.5681 47.1047C25.5681 47.1821 25.581 47.2517 25.6068 47.3135C25.6352 47.3728 25.6841 47.4282 25.7537 47.4798C25.8233 47.5288 25.9213 47.5751 26.0476 47.619C26.1739 47.6628 26.335 47.7066 26.5309 47.7504C26.8737 47.8278 27.156 47.9206 27.3776 48.0288C27.5993 48.1371 27.7643 48.2698 27.8725 48.4271C27.9808 48.5843 28.0349 48.775 28.0349 48.9993C28.0349 49.1823 27.9963 49.3498 27.9189 49.5019C27.8442 49.654 27.7346 49.7855 27.5903 49.8963C27.4485 50.0046 27.2784 50.0896 27.0799 50.1515C26.884 50.2108 26.6636 50.2404 26.4188 50.2404C26.0502 50.2404 25.7383 50.1747 25.4831 50.0432C25.2279 49.9118 25.0346 49.7416 24.9031 49.5329C24.7717 49.3241 24.7059 49.1037 24.7059 48.8717H25.4251C25.4354 49.0676 25.4921 49.2235 25.5952 49.3395C25.6983 49.4529 25.8246 49.5341 25.9741 49.5831C26.1236 49.6295 26.2718 49.6527 26.4188 49.6527C26.6147 49.6527 26.7783 49.6269 26.9098 49.5754C27.0438 49.5238 27.1456 49.4529 27.2152 49.3627C27.2848 49.2725 27.3196 49.1694 27.3196 49.0534Z"
                  fill="#363740"
                />
                <path
                  d="M50.8742 46.7909V47.3979H47.8275V46.7909H50.8742ZM47.9435 44.3705V50H47.1973V44.3705H47.9435ZM51.5238 44.3705V50H50.7814V44.3705H51.5238ZM52.5523 47.9547V47.8657C52.5523 47.5641 52.5961 47.2845 52.6837 47.0267C52.7714 46.7664 52.8977 46.5408 53.0626 46.3501C53.2276 46.1568 53.4274 46.0073 53.6619 45.9016C53.8965 45.7933 54.1594 45.7392 54.4507 45.7392C54.7445 45.7392 55.0087 45.7933 55.2433 45.9016C55.4805 46.0073 55.6815 46.1568 55.8465 46.3501C56.014 46.5408 56.1416 46.7664 56.2293 47.0267C56.3169 47.2845 56.3607 47.5641 56.3607 47.8657V47.9547C56.3607 48.2562 56.3169 48.5359 56.2293 48.7937C56.1416 49.0514 56.014 49.277 55.8465 49.4703C55.6815 49.661 55.4817 49.8105 55.2472 49.9188C55.0152 50.0245 54.7523 50.0773 54.4584 50.0773C54.1646 50.0773 53.9004 50.0245 53.6658 49.9188C53.4312 49.8105 53.2302 49.661 53.0626 49.4703C52.8977 49.277 52.7714 49.0514 52.6837 48.7937C52.5961 48.5359 52.5523 48.2562 52.5523 47.9547ZM53.2676 47.8657V47.9547C53.2676 48.1634 53.292 48.3606 53.341 48.5462C53.39 48.7292 53.4635 48.8916 53.5614 49.0334C53.6619 49.1752 53.787 49.2873 53.9365 49.3698C54.086 49.4497 54.2599 49.4896 54.4584 49.4896C54.6543 49.4896 54.8257 49.4497 54.9727 49.3698C55.1222 49.2873 55.2459 49.1752 55.3438 49.0334C55.4418 48.8916 55.5152 48.7292 55.5642 48.5462C55.6158 48.3606 55.6416 48.1634 55.6416 47.9547V47.8657C55.6416 47.6595 55.6158 47.4649 55.5642 47.2819C55.5152 47.0963 55.4405 46.9326 55.34 46.7909C55.242 46.6465 55.1183 46.5331 54.9688 46.4506C54.8219 46.3681 54.6492 46.3269 54.4507 46.3269C54.2548 46.3269 54.0821 46.3681 53.9326 46.4506C53.7857 46.5331 53.6619 46.6465 53.5614 46.7909C53.4635 46.9326 53.39 47.0963 53.341 47.2819C53.292 47.4649 53.2676 47.6595 53.2676 47.8657ZM59.8173 49.0334V45.8165H60.5365V50H59.8521L59.8173 49.0334ZM59.9526 48.1518L60.2503 48.1441C60.2503 48.4225 60.2207 48.6803 60.1614 48.9174C60.1047 49.152 60.0119 49.3556 59.883 49.5283C59.7542 49.701 59.5853 49.8363 59.3765 49.9343C59.1677 50.0296 58.9139 50.0773 58.6148 50.0773C58.4112 50.0773 58.2243 50.0477 58.0542 49.9884C57.8867 49.9291 57.7423 49.8376 57.6212 49.7139C57.5 49.5902 57.4059 49.4291 57.3389 49.2306C57.2745 49.0321 57.2423 48.7937 57.2423 48.5153V45.8165H57.9576V48.523C57.9576 48.7112 57.9782 48.8671 58.0194 48.9909C58.0632 49.112 58.1212 49.2087 58.1934 49.2808C58.2682 49.3504 58.3506 49.3994 58.4409 49.4278C58.5337 49.4561 58.629 49.4703 58.727 49.4703C59.0311 49.4703 59.2721 49.4123 59.45 49.2963C59.6279 49.1777 59.7554 49.0192 59.8328 48.8207C59.9127 48.6197 59.9526 48.3967 59.9526 48.1518ZM62.3421 46.4738V50H61.6268V45.8165H62.3228L62.3421 46.4738ZM63.649 45.7933L63.6451 46.4583C63.5858 46.4455 63.5291 46.4377 63.475 46.4351C63.4234 46.43 63.3641 46.4274 63.2971 46.4274C63.1321 46.4274 62.9865 46.4532 62.8602 46.5047C62.7339 46.5563 62.6269 46.6285 62.5393 46.7213C62.4516 46.8141 62.382 46.9249 62.3305 47.0538C62.2815 47.1801 62.2493 47.3193 62.2338 47.4713L62.0328 47.5873C62.0328 47.3347 62.0573 47.0976 62.1062 46.8759C62.1578 46.6542 62.2364 46.4583 62.3421 46.2882C62.4478 46.1155 62.5818 45.9815 62.7442 45.8861C62.9092 45.7882 63.1051 45.7392 63.3319 45.7392C63.3835 45.7392 63.4427 45.7456 63.5098 45.7585C63.5768 45.7688 63.6232 45.7804 63.649 45.7933ZM66.746 48.8903C66.746 48.7872 66.7228 48.6919 66.6764 48.6042C66.6326 48.514 66.541 48.4328 66.4019 48.3606C66.2652 48.2859 66.059 48.2214 65.7832 48.1673C65.5512 48.1183 65.3412 48.0603 65.153 47.9933C64.9674 47.9263 64.8089 47.8451 64.6774 47.7497C64.5485 47.6544 64.4493 47.5422 64.3797 47.4134C64.3101 47.2845 64.2753 47.1337 64.2753 46.961C64.2753 46.796 64.3114 46.6401 64.3836 46.4931C64.4583 46.3462 64.5627 46.216 64.6968 46.1026C64.8334 45.9892 64.997 45.9003 65.1878 45.8358C65.3785 45.7714 65.5912 45.7392 65.8258 45.7392C66.1608 45.7392 66.447 45.7985 66.6841 45.917C66.9212 46.0356 67.103 46.1941 67.2293 46.3926C67.3556 46.5885 67.4187 46.8063 67.4187 47.046H66.7034C66.7034 46.93 66.6686 46.8179 66.599 46.7097C66.532 46.5988 66.4328 46.5073 66.3013 46.4351C66.1724 46.363 66.0139 46.3269 65.8258 46.3269C65.6273 46.3269 65.4662 46.3578 65.3424 46.4197C65.2213 46.479 65.1324 46.555 65.0757 46.6478C65.0215 46.7406 64.9945 46.8385 64.9945 46.9416C64.9945 47.019 65.0074 47.0886 65.0331 47.1504C65.0615 47.2097 65.1105 47.2651 65.1801 47.3167C65.2497 47.3657 65.3476 47.4121 65.4739 47.4559C65.6002 47.4997 65.7613 47.5435 65.9572 47.5873C66.3 47.6647 66.5823 47.7575 66.804 47.8657C67.0256 47.974 67.1906 48.1067 67.2989 48.264C67.4071 48.4212 67.4613 48.6119 67.4613 48.8362C67.4613 49.0192 67.4226 49.1868 67.3453 49.3388C67.2705 49.4909 67.161 49.6224 67.0166 49.7332C66.8748 49.8415 66.7047 49.9265 66.5062 49.9884C66.3103 50.0477 66.09 50.0773 65.8451 50.0773C65.4765 50.0773 65.1646 50.0116 64.9094 49.8801C64.6542 49.7487 64.4609 49.5786 64.3294 49.3698C64.198 49.161 64.1323 48.9406 64.1323 48.7086H64.8514C64.8617 48.9045 64.9184 49.0605 65.0215 49.1764C65.1246 49.2899 65.2509 49.3711 65.4004 49.42C65.5499 49.4664 65.6982 49.4896 65.8451 49.4896C66.041 49.4896 66.2047 49.4639 66.3361 49.4123C66.4702 49.3607 66.572 49.2899 66.6416 49.1996C66.7112 49.1094 66.746 49.0063 66.746 48.8903Z"
                  fill="#363740"
                />
                <path
                  d="M86.6103 44.514H87.3333L89.1776 49.1035L91.018 44.514H91.7449L89.456 50.1436H88.8915L86.6103 44.514ZM86.3744 44.514H87.0124L87.1168 47.9474V50.1436H86.3744V44.514ZM91.3389 44.514H91.9769V50.1436H91.2346V47.9474L91.3389 44.514ZM93.9565 45.9601V50.1436H93.2374V45.9601H93.9565ZM93.1832 44.8504C93.1832 44.7344 93.218 44.6365 93.2876 44.5565C93.3598 44.4766 93.4655 44.4367 93.6047 44.4367C93.7413 44.4367 93.8457 44.4766 93.9179 44.5565C93.9926 44.6365 94.03 44.7344 94.03 44.8504C94.03 44.9612 93.9926 45.0566 93.9179 45.1365C93.8457 45.2138 93.7413 45.2525 93.6047 45.2525C93.4655 45.2525 93.3598 45.2138 93.2876 45.1365C93.218 45.0566 93.1832 44.9612 93.1832 44.8504ZM95.8201 46.8532V50.1436H95.1049V45.9601H95.7815L95.8201 46.8532ZM95.65 47.8933L95.3523 47.8817C95.3549 47.5956 95.3974 47.3314 95.4799 47.0891C95.5624 46.8442 95.6784 46.6315 95.8279 46.4511C95.9774 46.2707 96.1552 46.1315 96.3615 46.0335C96.5702 45.933 96.8009 45.8827 97.0535 45.8827C97.2598 45.8827 97.4453 45.9111 97.6103 45.9678C97.7753 46.0219 97.9158 46.1096 98.0318 46.2307C98.1503 46.3519 98.2405 46.5091 98.3024 46.7024C98.3643 46.8932 98.3952 47.1264 98.3952 47.4022V50.1436H97.676V47.3945C97.676 47.1754 97.6438 47.0001 97.5794 46.8687C97.5149 46.7346 97.4209 46.638 97.2971 46.5787C97.1734 46.5168 97.0213 46.4859 96.8409 46.4859C96.663 46.4859 96.5006 46.5233 96.3537 46.598C96.2094 46.6728 96.0844 46.7759 95.9787 46.9073C95.8756 47.0388 95.7944 47.1896 95.7351 47.3597C95.6784 47.5273 95.65 47.7051 95.65 47.8933ZM101.918 49.0339C101.918 48.9308 101.894 48.8354 101.848 48.7478C101.804 48.6576 101.713 48.5764 101.573 48.5042C101.437 48.4294 101.231 48.365 100.955 48.3109C100.723 48.2619 100.513 48.2039 100.325 48.1369C100.139 48.0699 99.9804 47.9887 99.849 47.8933C99.7201 47.7979 99.6209 47.6858 99.5513 47.5569C99.4817 47.428 99.4469 47.2772 99.4469 47.1045C99.4469 46.9396 99.483 46.7836 99.5551 46.6367C99.6299 46.4898 99.7343 46.3596 99.8683 46.2462C100.005 46.1328 100.169 46.0438 100.359 45.9794C100.55 45.915 100.763 45.8827 100.997 45.8827C101.332 45.8827 101.619 45.942 101.856 46.0606C102.093 46.1792 102.275 46.3377 102.401 46.5362C102.527 46.7321 102.59 46.9499 102.59 47.1896H101.875C101.875 47.0736 101.84 46.9615 101.771 46.8532C101.704 46.7424 101.604 46.6509 101.473 46.5787C101.344 46.5065 101.185 46.4704 100.997 46.4704C100.799 46.4704 100.638 46.5014 100.514 46.5632C100.393 46.6225 100.304 46.6986 100.247 46.7914C100.193 46.8841 100.166 46.9821 100.166 47.0852C100.166 47.1625 100.179 47.2321 100.205 47.294C100.233 47.3533 100.282 47.4087 100.352 47.4602C100.421 47.5092 100.519 47.5556 100.645 47.5994C100.772 47.6433 100.933 47.6871 101.129 47.7309C101.472 47.8082 101.754 47.901 101.976 48.0093C102.197 48.1175 102.362 48.2503 102.47 48.4075C102.579 48.5648 102.633 48.7555 102.633 48.9798C102.633 49.1628 102.594 49.3303 102.517 49.4824C102.442 49.6345 102.333 49.7659 102.188 49.8768C102.046 49.985 101.876 50.0701 101.678 50.132C101.482 50.1912 101.262 50.2209 101.017 50.2209C100.648 50.2209 100.336 50.1552 100.081 50.0237C99.8258 49.8922 99.6325 49.7221 99.501 49.5133C99.3695 49.3045 99.3038 49.0842 99.3038 48.8522H100.023C100.033 49.0481 100.09 49.204 100.193 49.32C100.296 49.4334 100.423 49.5146 100.572 49.5636C100.722 49.61 100.87 49.6332 101.017 49.6332C101.213 49.6332 101.376 49.6074 101.508 49.5559C101.642 49.5043 101.744 49.4334 101.813 49.3432C101.883 49.253 101.918 49.1499 101.918 49.0339Z"
                  fill="#363740"
                />
              </svg>