 <svg
                  width="21"
                  height="21"
                  viewBox="0 0 21 21"
                  fill="none"
                  xmlns="http://www.w3.org/2000/svg"
                >
                  <path
                    d="M7.88867 13.0171L12.8144 8.09143"
                    stroke="#B5B5B5"
                    stroke-width="0.820952"
                    stroke-linecap="round"
                    stroke-linejoin="round"
                  />
                  <circle
                    cx="8.29915"
                    cy="8.50191"
                    r="0.410476"
                    fill="#B5B5B5"
                    stroke="#B5B5B5"
                    stroke-width="0.820952"
                    stroke-linecap="round"
                    stroke-linejoin="round"
                  />
                  <circle
                    cx="12.4039"
                    cy="12.6067"
                    r="0.410476"
                    fill="#B5B5B5"
                    stroke="#B5B5B5"
                    stroke-width="0.820952"
                    stroke-linecap="round"
                    stroke-linejoin="round"
                  />
                  <path
                    d="M4.60483 6.61369C4.60483 5.61621 5.41345 4.8076 6.41093 4.8076H7.23188C7.70877 4.80732 8.1662 4.61845 8.50435 4.28219L9.07902 3.70752C9.41802 3.36661 9.87894 3.17493 10.3597 3.17493C10.8405 3.17493 11.3014 3.36661 11.6404 3.70752L12.2151 4.28219C12.5532 4.61845 13.0106 4.80732 13.4875 4.8076H14.3085C15.306 4.8076 16.1146 5.61621 16.1146 6.61369V7.43465C16.1149 7.91154 16.3037 8.36896 16.64 8.70712L17.2147 9.28179C17.5556 9.62078 17.7472 10.0817 17.7472 10.5625C17.7472 11.0432 17.5556 11.5042 17.2147 11.8432L16.64 12.4178C16.3037 12.756 16.1149 13.2134 16.1146 13.6903V14.5113C16.1146 15.5087 15.306 16.3174 14.3085 16.3174H13.4875C13.0106 16.3176 12.5532 16.5065 12.2151 16.8428L11.6404 17.4174C11.3014 17.7583 10.8405 17.95 10.3597 17.95C9.87894 17.95 9.41802 17.7583 9.07902 17.4174L8.50435 16.8428C8.1662 16.5065 7.70877 16.3176 7.23188 16.3174H6.41093C5.41345 16.3174 4.60483 15.5087 4.60483 14.5113V13.6903C4.60456 13.2134 4.41568 12.756 4.07942 12.4178L3.50475 11.8432C3.16385 11.5042 2.97217 11.0432 2.97217 10.5625C2.97217 10.0817 3.16385 9.62078 3.50475 9.28179L4.07942 8.70712C4.41568 8.36896 4.60456 7.91154 4.60483 7.43465V6.61369"
                    stroke="#B5B5B5"
                    stroke-width="0.820952"
                    stroke-linecap="round"
                    stroke-linejoin="round"
                  />
                </svg>