<svg width="133" height="57" viewBox="0 0 133 57" fill="none" xmlns="http://www.w3.org/2000/svg">
<ellipse cx="89.9603" cy="15.809" rx="1.56286" ry="1.89277" fill="#363740"/>
<ellipse cx="89.9603" cy="25.2719" rx="1.56286" ry="1.89277" fill="#363740"/>
<ellipse cx="44.2794" cy="14.181" rx="1.56286" ry="1.89277" fill="#363740"/>
<ellipse cx="44.2794" cy="23.6449" rx="1.56286" ry="1.89277" fill="#363740"/>
<rect x="2.11499" y="0.891785" width="39.9689" height="19.5366" rx="8" fill="#FF9F43" fill-opacity="0.3"/>
<rect x="92.8376" y="0.891785" width="39.9689" height="19.5366" rx="8" fill="#FF9F43" fill-opacity="0.3"/>
<rect x="46.5244" y="0.891785" width="39.9689" height="19.5366" rx="8" fill="#FF9F43" fill-opacity="0.3"/>
<rect x="2.11499" y="22.0558" width="39.9689" height="17.0945" rx="8" fill="#FF9F43" fill-opacity="0.3"/>
<rect x="92.8376" y="22.0558" width="39.9689" height="17.0945" rx="8" fill="#FF9F43" fill-opacity="0.3"/>
<rect x="46.5244" y="22.0558" width="39.9689" height="17.0945" rx="8" fill="#FF9F43" fill-opacity="0.3"/>
<path d="M16.3389 11.0844V28.675H12.8666V15.0872L8.69503 16.4134V13.6766L15.9651 11.0844H16.3389ZM31.8789 11.1206V12.9894L25.091 28.675H21.4258L28.2137 13.8333H19.4726V11.1206H31.8789Z" fill="#363740"/>
<path d="M63.66 26.5912V29.3039H51.6517V26.989L57.3303 20.9005C57.901 20.2655 58.3511 19.7069 58.6807 19.2246C59.0102 18.7343 59.2473 18.2962 59.392 17.9104C59.5447 17.5166 59.6211 17.1428 59.6211 16.7892C59.6211 16.2587 59.5327 15.8045 59.3558 15.4268C59.179 15.041 58.9178 14.7436 58.5722 14.5346C58.2346 14.3256 57.8166 14.2211 57.3183 14.2211C56.7878 14.2211 56.3296 14.3497 55.9438 14.6069C55.566 14.8641 55.2767 15.2218 55.0757 15.68C54.8828 16.1381 54.7864 16.6565 54.7864 17.2353H51.302C51.302 16.1904 51.5512 15.2339 52.0495 14.3658C52.5479 13.4897 53.2512 12.7944 54.1594 12.28C55.0677 11.7576 56.1448 11.4963 57.3906 11.4963C58.6204 11.4963 59.6572 11.6973 60.5012 12.0992C61.3532 12.493 61.9962 13.0637 62.4303 13.8112C62.8723 14.5507 63.0934 15.4348 63.0934 16.4636C63.0934 17.0424 63.0009 17.609 62.8161 18.1636C62.6312 18.7102 62.366 19.2567 62.0203 19.8033C61.6828 20.3418 61.2728 20.8884 60.7906 21.443C60.3083 21.9976 59.7738 22.5723 59.187 23.1671L56.1367 26.5912H63.66ZM72.1951 11.7133V29.3039H68.7228V15.7161L64.5513 17.0424V14.3055L71.8214 11.7133H72.1951Z" fill="#363740"/>
<path d="M111.534 22.7451V25.4699H98.8863L98.7175 23.36L106.036 11.7495H108.797L105.807 16.753L102.166 22.7451H111.534ZM109.544 11.7495V29.3039H106.072V11.7495H109.544ZM123.24 11.7495V13.6183L116.452 29.3039H112.787L119.574 14.4622H110.833V11.7495H123.24Z" fill="#363740"/>
<path d="M14.0627 47.6826V48.2897H11.0159V47.6826H14.0627ZM11.1319 45.2622V50.8918H10.3857V45.2622H11.1319ZM14.7123 45.2622V50.8918H13.9699V45.2622H14.7123ZM15.7407 48.8464V48.7575C15.7407 48.4559 15.7846 48.1763 15.8722 47.9185C15.9598 47.6582 16.0861 47.4326 16.2511 47.2419C16.4161 47.0485 16.6158 46.899 16.8504 46.7934C17.085 46.6851 17.3479 46.631 17.6392 46.631C17.933 46.631 18.1972 46.6851 18.4318 46.7934C18.6689 46.899 18.87 47.0485 19.0349 47.2419C19.2025 47.4326 19.3301 47.6582 19.4177 47.9185C19.5054 48.1763 19.5492 48.4559 19.5492 48.7575V48.8464C19.5492 49.148 19.5054 49.4277 19.4177 49.6855C19.3301 49.9432 19.2025 50.1688 19.0349 50.3621C18.87 50.5528 18.6702 50.7023 18.4356 50.8106C18.2037 50.9163 17.9407 50.9691 17.6469 50.9691C17.353 50.9691 17.0888 50.9163 16.8543 50.8106C16.6197 50.7023 16.4187 50.5528 16.2511 50.3621C16.0861 50.1688 15.9598 49.9432 15.8722 49.6855C15.7846 49.4277 15.7407 49.148 15.7407 48.8464ZM16.456 48.7575V48.8464C16.456 49.0552 16.4805 49.2524 16.5295 49.438C16.5785 49.621 16.6519 49.7834 16.7499 49.9252C16.8504 50.0669 16.9754 50.1791 17.1249 50.2616C17.2744 50.3415 17.4484 50.3814 17.6469 50.3814C17.8428 50.3814 18.0142 50.3415 18.1611 50.2616C18.3106 50.1791 18.4344 50.0669 18.5323 49.9252C18.6303 49.7834 18.7037 49.621 18.7527 49.438C18.8042 49.2524 18.83 49.0552 18.83 48.8464V48.7575C18.83 48.5513 18.8042 48.3567 18.7527 48.1737C18.7037 47.9881 18.629 47.8244 18.5284 47.6826C18.4305 47.5383 18.3068 47.4249 18.1573 47.3424C18.0103 47.2599 17.8376 47.2187 17.6392 47.2187C17.4433 47.2187 17.2706 47.2599 17.1211 47.3424C16.9741 47.4249 16.8504 47.5383 16.7499 47.6826C16.6519 47.8244 16.5785 47.9881 16.5295 48.1737C16.4805 48.3567 16.456 48.5513 16.456 48.7575ZM23.0058 49.9252V46.7083H23.7249V50.8918H23.0406L23.0058 49.9252ZM23.1411 49.0436L23.4388 49.0359C23.4388 49.3143 23.4092 49.572 23.3499 49.8092C23.2932 50.0437 23.2004 50.2474 23.0715 50.4201C22.9426 50.5928 22.7738 50.7281 22.565 50.8261C22.3562 50.9214 22.1023 50.9691 21.8033 50.9691C21.5997 50.9691 21.4128 50.9395 21.2427 50.8802C21.0751 50.8209 20.9308 50.7294 20.8096 50.6057C20.6885 50.4819 20.5944 50.3208 20.5274 50.1224C20.4629 49.9239 20.4307 49.6855 20.4307 49.4071V46.7083H21.146V49.4148C21.146 49.603 21.1666 49.7589 21.2079 49.8826C21.2517 50.0038 21.3097 50.1005 21.3819 50.1726C21.4566 50.2422 21.5391 50.2912 21.6293 50.3196C21.7221 50.3479 21.8175 50.3621 21.9154 50.3621C22.2196 50.3621 22.4606 50.3041 22.6385 50.1881C22.8163 50.0695 22.9439 49.911 23.0212 49.7125C23.1011 49.5115 23.1411 49.2885 23.1411 49.0436ZM25.5306 47.3656V50.8918H24.8153V46.7083H25.5112L25.5306 47.3656ZM26.8374 46.6851L26.8335 47.3501C26.7743 47.3372 26.7176 47.3295 26.6634 47.3269C26.6119 47.3218 26.5526 47.3192 26.4856 47.3192C26.3206 47.3192 26.175 47.345 26.0487 47.3965C25.9224 47.4481 25.8154 47.5202 25.7277 47.613C25.6401 47.7058 25.5705 47.8167 25.519 47.9456C25.47 48.0719 25.4378 48.2111 25.4223 48.3631L25.2212 48.4791C25.2212 48.2265 25.2457 47.9894 25.2947 47.7677C25.3463 47.546 25.4249 47.3501 25.5306 47.18C25.6362 47.0073 25.7703 46.8733 25.9327 46.7779C26.0976 46.6799 26.2935 46.631 26.5204 46.631C26.5719 46.631 26.6312 46.6374 26.6982 46.6503C26.7652 46.6606 26.8116 46.6722 26.8374 46.6851ZM29.9344 49.7821C29.9344 49.679 29.9112 49.5836 29.8648 49.496C29.821 49.4058 29.7295 49.3246 29.5903 49.2524C29.4537 49.1777 29.2475 49.1132 28.9717 49.0591C28.7397 49.0101 28.5296 48.9521 28.3415 48.8851C28.1559 48.8181 27.9973 48.7369 27.8659 48.6415C27.737 48.5461 27.6378 48.434 27.5682 48.3051C27.4986 48.1763 27.4638 48.0255 27.4638 47.8528C27.4638 47.6878 27.4999 47.5318 27.572 47.3849C27.6468 47.238 27.7512 47.1078 27.8852 46.9944C28.0218 46.881 28.1855 46.7921 28.3763 46.7276C28.567 46.6632 28.7797 46.631 29.0142 46.631C29.3493 46.631 29.6354 46.6903 29.8726 46.8088C30.1097 46.9274 30.2914 47.0859 30.4177 47.2844C30.544 47.4803 30.6072 47.6981 30.6072 47.9378H29.8919C29.8919 47.8218 29.8571 47.7097 29.7875 47.6014C29.7205 47.4906 29.6213 47.3991 29.4898 47.3269C29.3609 47.2548 29.2024 47.2187 29.0142 47.2187C28.8157 47.2187 28.6546 47.2496 28.5309 47.3115C28.4098 47.3707 28.3208 47.4468 28.2641 47.5396C28.21 47.6324 28.1829 47.7303 28.1829 47.8334C28.1829 47.9108 28.1958 47.9804 28.2216 48.0422C28.25 48.1015 28.2989 48.1569 28.3685 48.2085C28.4381 48.2575 28.5361 48.3038 28.6624 48.3477C28.7887 48.3915 28.9498 48.4353 29.1457 48.4791C29.4885 48.5565 29.7708 48.6492 29.9924 48.7575C30.2141 48.8658 30.3791 48.9985 30.4873 49.1558C30.5956 49.313 30.6497 49.5037 30.6497 49.728C30.6497 49.911 30.6111 50.0785 30.5337 50.2306C30.459 50.3827 30.3494 50.5142 30.2051 50.625C30.0633 50.7333 29.8932 50.8183 29.6947 50.8802C29.4988 50.9395 29.2784 50.9691 29.0336 50.9691C28.665 50.9691 28.3531 50.9034 28.0979 50.7719C27.8427 50.6405 27.6494 50.4703 27.5179 50.2616C27.3865 50.0528 27.3207 49.8324 27.3207 49.6004H28.0399C28.0502 49.7963 28.1069 49.9522 28.21 50.0682C28.3131 50.1816 28.4394 50.2628 28.5889 50.3118C28.7384 50.3582 28.8866 50.3814 29.0336 50.3814C29.2295 50.3814 29.3931 50.3556 29.5246 50.3041C29.6586 50.2525 29.7604 50.1816 29.83 50.0914C29.8996 50.0012 29.9344 49.8981 29.9344 49.7821Z" fill="#363740"/>
<path d="M61.7847 45.2622H62.5078L64.3521 49.8517L66.1925 45.2622H66.9194L64.6304 50.8918H64.0659L61.7847 45.2622ZM61.5489 45.2622H62.1868L62.2912 48.6956V50.8918H61.5489V45.2622ZM66.5134 45.2622H67.1514V50.8918H66.409V48.6956L66.5134 45.2622ZM69.131 46.7083V50.8918H68.4118V46.7083H69.131ZM68.3577 45.5986C68.3577 45.4826 68.3925 45.3847 68.4621 45.3048C68.5343 45.2249 68.6399 45.1849 68.7791 45.1849C68.9157 45.1849 69.0201 45.2249 69.0923 45.3048C69.1671 45.3847 69.2044 45.4826 69.2044 45.5986C69.2044 45.7095 69.1671 45.8048 69.0923 45.8847C69.0201 45.9621 68.9157 46.0007 68.7791 46.0007C68.6399 46.0007 68.5343 45.9621 68.4621 45.8847C68.3925 45.8048 68.3577 45.7095 68.3577 45.5986ZM70.9946 47.6014V50.8918H70.2793V46.7083H70.9559L70.9946 47.6014ZM70.8245 48.6415L70.5268 48.6299C70.5293 48.3438 70.5719 48.0796 70.6543 47.8373C70.7368 47.5924 70.8528 47.3798 71.0023 47.1993C71.1518 47.0189 71.3297 46.8797 71.5359 46.7818C71.7447 46.6812 71.9754 46.631 72.228 46.631C72.4342 46.631 72.6198 46.6593 72.7848 46.716C72.9497 46.7702 73.0902 46.8578 73.2062 46.9789C73.3248 47.1001 73.415 47.2573 73.4768 47.4507C73.5387 47.6414 73.5696 47.8747 73.5696 48.1505V50.8918H72.8505V48.1427C72.8505 47.9236 72.8183 47.7484 72.7538 47.6169C72.6894 47.4829 72.5953 47.3862 72.4716 47.3269C72.3478 47.2651 72.1958 47.2341 72.0153 47.2341C71.8375 47.2341 71.6751 47.2715 71.5282 47.3463C71.3838 47.421 71.2588 47.5241 71.1531 47.6556C71.05 47.787 70.9688 47.9378 70.9095 48.1079C70.8528 48.2755 70.8245 48.4534 70.8245 48.6415ZM77.092 49.7821C77.092 49.679 77.0688 49.5836 77.0224 49.496C76.9786 49.4058 76.8871 49.3246 76.7479 49.2524C76.6112 49.1777 76.405 49.1132 76.1292 49.0591C75.8972 49.0101 75.6872 48.9521 75.499 48.8851C75.3134 48.8181 75.1549 48.7369 75.0234 48.6415C74.8945 48.5461 74.7953 48.434 74.7257 48.3051C74.6561 48.1763 74.6213 48.0255 74.6213 47.8528C74.6213 47.6878 74.6574 47.5318 74.7296 47.3849C74.8043 47.238 74.9087 47.1078 75.0428 46.9944C75.1794 46.881 75.3431 46.7921 75.5338 46.7276C75.7245 46.6632 75.9372 46.631 76.1718 46.631C76.5069 46.631 76.793 46.6903 77.0301 46.8088C77.2673 46.9274 77.449 47.0859 77.5753 47.2844C77.7016 47.4803 77.7647 47.6981 77.7647 47.9378H77.0494C77.0494 47.8218 77.0146 47.7097 76.945 47.6014C76.878 47.4906 76.7788 47.3991 76.6473 47.3269C76.5184 47.2548 76.3599 47.2187 76.1718 47.2187C75.9733 47.2187 75.8122 47.2496 75.6885 47.3115C75.5673 47.3707 75.4784 47.4468 75.4217 47.5396C75.3675 47.6324 75.3405 47.7303 75.3405 47.8334C75.3405 47.9108 75.3534 47.9804 75.3791 48.0422C75.4075 48.1015 75.4565 48.1569 75.5261 48.2085C75.5957 48.2575 75.6936 48.3038 75.8199 48.3477C75.9462 48.3915 76.1073 48.4353 76.3032 48.4791C76.646 48.5565 76.9283 48.6492 77.15 48.7575C77.3716 48.8658 77.5366 48.9985 77.6449 49.1558C77.7531 49.313 77.8073 49.5037 77.8073 49.728C77.8073 49.911 77.7686 50.0785 77.6913 50.2306C77.6165 50.3827 77.507 50.5142 77.3626 50.625C77.2209 50.7333 77.0507 50.8183 76.8523 50.8802C76.6564 50.9395 76.436 50.9691 76.1911 50.9691C75.8225 50.9691 75.5106 50.9034 75.2554 50.7719C75.0002 50.6405 74.8069 50.4703 74.6754 50.2616C74.544 50.0528 74.4783 49.8324 74.4783 49.6004H75.1974C75.2077 49.7963 75.2644 49.9522 75.3675 50.0682C75.4706 50.1816 75.5969 50.2628 75.7465 50.3118C75.896 50.3582 76.0442 50.3814 76.1911 50.3814C76.387 50.3814 76.5507 50.3556 76.6821 50.3041C76.8162 50.2525 76.918 50.1816 76.9876 50.0914C77.0572 50.0012 77.092 49.8981 77.092 49.7821Z" fill="#363740"/>
<path d="M110.505 49.6125C110.505 49.481 110.484 49.365 110.443 49.2645C110.405 49.1614 110.335 49.0686 110.234 48.9861C110.136 48.9036 110 48.825 109.825 48.7503C109.652 48.6755 109.433 48.5995 109.167 48.5222C108.889 48.4397 108.638 48.3482 108.413 48.2476C108.189 48.1445 107.997 48.0272 107.837 47.8958C107.677 47.7643 107.555 47.6135 107.47 47.4434C107.385 47.2733 107.342 47.0787 107.342 46.8596C107.342 46.6405 107.387 46.4381 107.478 46.2526C107.568 46.067 107.697 45.9059 107.864 45.7692C108.034 45.6301 108.237 45.5218 108.471 45.4445C108.706 45.3671 108.968 45.3285 109.256 45.3285C109.679 45.3285 110.037 45.4097 110.331 45.5721C110.627 45.7319 110.853 45.9419 111.008 46.2023C111.162 46.4601 111.24 46.7359 111.24 47.0297H110.497C110.497 46.8183 110.452 46.6315 110.362 46.4691C110.272 46.3041 110.135 46.1752 109.952 46.0824C109.769 45.9871 109.537 45.9394 109.256 45.9394C108.991 45.9394 108.772 45.9793 108.599 46.0592C108.426 46.1391 108.297 46.2474 108.212 46.384C108.13 46.5206 108.089 46.6766 108.089 46.8519C108.089 46.9704 108.113 47.0787 108.162 47.1766C108.214 47.272 108.292 47.3609 108.398 47.4434C108.506 47.5259 108.643 47.6019 108.808 47.6715C108.975 47.7411 109.175 47.8082 109.407 47.8726C109.727 47.9628 110.002 48.0633 110.234 48.1742C110.466 48.285 110.657 48.41 110.807 48.5492C110.959 48.6858 111.071 48.8418 111.143 49.0171C111.218 49.1898 111.255 49.3857 111.255 49.6048C111.255 49.8342 111.209 50.0417 111.116 50.2273C111.023 50.4128 110.89 50.5714 110.718 50.7028C110.545 50.8343 110.338 50.9361 110.095 51.0083C109.855 51.0779 109.587 51.1127 109.291 51.1127C109.031 51.1127 108.774 51.0766 108.522 51.0044C108.272 50.9322 108.043 50.824 107.837 50.6796C107.634 50.5353 107.47 50.3574 107.346 50.1461C107.225 49.9321 107.164 49.6847 107.164 49.4037H107.907C107.907 49.597 107.944 49.7633 108.019 49.9025C108.094 50.0391 108.196 50.1525 108.324 50.2427C108.456 50.3329 108.604 50.4 108.769 50.4438C108.937 50.485 109.111 50.5056 109.291 50.5056C109.551 50.5056 109.772 50.4696 109.952 50.3974C110.133 50.3252 110.269 50.2221 110.362 50.0881C110.457 49.954 110.505 49.7955 110.505 49.6125ZM113.834 51.1127C113.543 51.1127 113.279 51.0637 113.041 50.9657C112.807 50.8652 112.605 50.7247 112.434 50.5443C112.267 50.3639 112.138 50.1499 112.048 49.9025C111.958 49.655 111.912 49.3844 111.912 49.0905V48.9281C111.912 48.5879 111.963 48.285 112.063 48.0195C112.164 47.7514 112.3 47.5246 112.473 47.339C112.646 47.1534 112.842 47.013 113.061 46.9176C113.28 46.8222 113.507 46.7745 113.741 46.7745C114.04 46.7745 114.298 46.8261 114.515 46.9292C114.734 47.0323 114.913 47.1766 115.052 47.3622C115.191 47.5452 115.294 47.7618 115.361 48.0118C115.428 48.2592 115.462 48.5299 115.462 48.8237V49.1447H112.338V48.5608H114.747V48.5067C114.736 48.3211 114.698 48.1407 114.631 47.9654C114.566 47.7901 114.463 47.6458 114.321 47.5323C114.179 47.4189 113.986 47.3622 113.741 47.3622C113.579 47.3622 113.429 47.397 113.293 47.4666C113.156 47.5336 113.039 47.6342 112.941 47.7682C112.843 47.9022 112.767 48.0659 112.713 48.2592C112.659 48.4526 112.632 48.6755 112.632 48.9281V49.0905C112.632 49.289 112.659 49.4759 112.713 49.6512C112.77 49.8239 112.851 49.9759 112.956 50.1074C113.065 50.2389 113.195 50.342 113.347 50.4167C113.502 50.4915 113.677 50.5288 113.873 50.5288C114.125 50.5288 114.339 50.4773 114.515 50.3742C114.69 50.2711 114.843 50.1332 114.975 49.9605L115.408 50.3046C115.317 50.4412 115.203 50.5714 115.064 50.6951C114.924 50.8188 114.753 50.9193 114.549 50.9967C114.348 51.074 114.11 51.1127 113.834 51.1127ZM117.971 50.525C118.141 50.525 118.299 50.4902 118.443 50.4206C118.587 50.351 118.706 50.2556 118.799 50.1345C118.891 50.0107 118.944 49.8703 118.957 49.713H119.638C119.625 49.9605 119.541 50.1912 119.386 50.4051C119.234 50.6165 119.034 50.7879 118.787 50.9193C118.54 51.0482 118.268 51.1127 117.971 51.1127C117.657 51.1127 117.382 51.0572 117.148 50.9464C116.916 50.8356 116.722 50.6835 116.568 50.4902C116.416 50.2968 116.301 50.0752 116.224 49.8251C116.149 49.5725 116.111 49.3058 116.111 49.0248V48.8624C116.111 48.5814 116.149 48.3159 116.224 48.0659C116.301 47.8133 116.416 47.5903 116.568 47.397C116.722 47.2037 116.916 47.0516 117.148 46.9408C117.382 46.8299 117.657 46.7745 117.971 46.7745C118.299 46.7745 118.585 46.8415 118.829 46.9756C119.074 47.107 119.266 47.2875 119.406 47.5169C119.547 47.7437 119.625 48.0015 119.638 48.2902H118.957C118.944 48.1175 118.895 47.9615 118.81 47.8223C118.728 47.6831 118.614 47.5723 118.47 47.4898C118.328 47.4048 118.162 47.3622 117.971 47.3622C117.752 47.3622 117.568 47.406 117.418 47.4937C117.271 47.5787 117.154 47.6947 117.066 47.8417C116.981 47.986 116.919 48.1471 116.881 48.325C116.845 48.5002 116.827 48.6794 116.827 48.8624V49.0248C116.827 49.2078 116.845 49.3882 116.881 49.5661C116.917 49.7439 116.977 49.9051 117.063 50.0494C117.15 50.1937 117.267 50.3097 117.414 50.3974C117.564 50.4824 117.749 50.525 117.971 50.525Z" fill="#363740"/>
</svg>
